  0
SECTION
  2
HEADER
  9
$ACADVER
  1
AC1014
  9
$HANDSEED
  5
FFFF
  9
$MEASUREMENT
 70
     1
  0
ENDSEC
  0
SECTION
  2
TABLES
  0
TABLE
  2
VPORT
  5
8
330
0
100
AcDbSymbolTable
 70
     4
  0
VPORT
  5
2E
330
8
100
AcDbSymbolTableRecord
100
AcDbViewportTableRecord
  2
*ACTIVE
 70
     0
 10
0.0
 20
0.0
 11
1.0
 21
1.0
 12
210.0
 22
148.5
 13
0.0
 23
0.0
 14
10.0
 24
10.0
 15
10.0
 25
10.0
 16
0.0
 26
0.0
 36
1.0
 17
0.0
 27
0.0
 37
0.0
 40
341.0
 41
1.24
 42
50.0
 43
0.0
 44
0.0
 50
0.0
 51
0.0
 71
     0
 72
   100
 73
     1
 74
     3
 75
     0
 76
     0
 77
     0
 78
     0
  0
ENDTAB
  0
TABLE
  2
LTYPE
  5
5
330
0
100
AcDbSymbolTable
 70
     1
  0
LTYPE
  5
14
330
5
100
AcDbSymbolTableRecord
100
AcDbLinetypeTableRecord
  2
BYBLOCK
 70
     0
  3

 72
    65
 73
     0
 40
0.0
  0
LTYPE
  5
15
330
5
100
AcDbSymbolTableRecord
100
AcDbLinetypeTableRecord
  2
BYLAYER
 70
     0
  3

 72
    65
 73
     0
 40
0.0
  0
LTYPE
  5
16
330
5
100
AcDbSymbolTableRecord
100
AcDbLinetypeTableRecord
  2
CONTINUOUS
 70
     0
  3
Solid line
 72
    65
 73
     0
 40
0.0
  0
ENDTAB
  0
TABLE
  2
LAYER
  5
2
100
AcDbSymbolTable
 70
2
  0
LAYER
  5
50
100
AcDbSymbolTableRecord
100
AcDbLayerTableRecord
  2
0
 70
0
  6
CONTINUOUS
  0
LAYER
  5
51
100
AcDbSymbolTableRecord
100
AcDbLayerTableRecord
  2
Layer_1
 70
0
  6
CONTINUOUS
  0
ENDTAB
  0
TABLE
  2
STYLE
  5
3
330
0
100
AcDbSymbolTable
 70
     1
  0
STYLE
  5
11
330
3
100
AcDbSymbolTableRecord
100
AcDbTextStyleTableRecord
  2
STANDARD
 70
     0
 40
0.0
 41
1.0
 50
0.0
 71
     0
 42
2.5
  3
txt
  4

  0
ENDTAB
  0
TABLE
  2
VIEW
  5
6
330
0
100
AcDbSymbolTable
 70
     0
  0
ENDTAB
  0
TABLE
  2
UCS
  5
7
330
0
100
AcDbSymbolTable
 70
     0
  0
ENDTAB
  0
TABLE
  2
APPID
  5
9
330
0
100
AcDbSymbolTable
 70
     2
  0
APPID
  5
12
330
9
100
AcDbSymbolTableRecord
100
AcDbRegAppTableRecord
  2
ACAD
 70
     0
  0
ENDTAB
  0
TABLE
  2
DIMSTYLE
  5
A
330
0
100
AcDbSymbolTable
 70
     1
  0
DIMSTYLE
105
27
330
A
100
AcDbSymbolTableRecord
100
AcDbDimStyleTableRecord
  2
ISO-25
 70
     0
  3

  4

  5

  6

  7

 40
1.0
 41
2.5
 42
0.625
 43
3.75
 44
1.25
 45
0.0
 46
0.0
 47
0.0
 48
0.0
140
2.5
141
2.5
142
0.0
143
0.03937007874016
144
1.0
145
0.0
146
1.0
147
0.625
 71
     0
 72
     0
 73
     0
 74
     0
 75
     0
 76
     0
 77
     1
 78
     8
170
     0
171
     3
172
     1
173
     0
174
     0
175
     0
176
     0
177
     0
178
     0
270
     2
271
     2
272
     2
273
     2
274
     3
340
11
275
     0
280
     0
281
     0
282
     0
283
     0
284
     8
285
     0
286
     0
287
     3
288
     0
  0
ENDTAB
  0
TABLE
  2
BLOCK_RECORD
  5
1
330
0
100
AcDbSymbolTable
 70
     1
  0
BLOCK_RECORD
  5
1F
330
1
100
AcDbSymbolTableRecord
100
AcDbBlockTableRecord
  2
*MODEL_SPACE
  0
BLOCK_RECORD
  5
1B
330
1
100
AcDbSymbolTableRecord
100
AcDbBlockTableRecord
  2
*PAPER_SPACE
  0
ENDTAB
  0
ENDSEC
  0
SECTION
  2
BLOCKS
  0
BLOCK
  5
20
330
1F
100
AcDbEntity
  8
0
100
AcDbBlockBegin
  2
*MODEL_SPACE
 70
     0
 10
0.0
 20
0.0
 30
0.0
  3
*MODEL_SPACE
  1

  0
ENDBLK
  5
21
330
1F
100
AcDbEntity
  8
0
100
AcDbBlockEnd
  0
BLOCK
  5
1C
330
1B
100
AcDbEntity
 67
     1
  8
0
100
AcDbBlockBegin
  2
*PAPER_SPACE
  1

  0
ENDBLK
  5
1D
330
1B
100
AcDbEntity
 67
     1
  8
0
100
AcDbBlockEnd
  0
ENDSEC
  0
SECTION
  2
ENTITIES
  0
LINE
  5
100
100
AcDbEntity
  8
Layer_1
 62
7
100
AcDbLine
 10
284.385766
 20
297.061184
 30
0.0
 11
386.385760
 21
297.061184
 31
0.0
  0
SPLINE
  5
101
100
AcDbEntity
  8
Layer_1
 62
7
100
AcDbSpline
 70
8
 71
3
 72
8
 73
4
 74
0
 40
0
 40
0
 40
0
 40
0
 40
1
 40
1
 40
1
 40
1
 10
386.385760
 20
297.061184
 30
0.0
 10
389.155771
 20
297.061184
 30
0.0
 10
391.385750
 20
294.831183
 30
0.0
 10
391.385750
 20
292.061183
 30
0.0
  0
LINE
  5
102
100
AcDbEntity
  8
Layer_1
 62
7
100
AcDbLine
 10
391.385750
 20
292.061183
 30
0.0
 11
391.385750
 21
210.061183
 31
0.0
  0
SPLINE
  5
103
100
AcDbEntity
  8
Layer_1
 62
7
100
AcDbSpline
 70
8
 71
3
 72
8
 73
4
 74
0
 40
0
 40
0
 40
0
 40
0
 40
1
 40
1
 40
1
 40
1
 10
391.385750
 20
210.061183
 30
0.0
 10
391.385750
 20
207.291184
 30
0.0
 10
389.155771
 20
205.061182
 30
0.0
 10
386.385760
 20
205.061182
 30
0.0
  0
LINE
  5
104
100
AcDbEntity
  8
Layer_1
 62
7
100
AcDbLine
 10
386.385760
 20
205.061182
 30
0.0
 11
284.385766
 21
205.061182
 31
0.0
  0
SPLINE
  5
105
100
AcDbEntity
  8
Layer_1
 62
7
100
AcDbSpline
 70
8
 71
3
 72
8
 73
4
 74
0
 40
0
 40
0
 40
0
 40
0
 40
1
 40
1
 40
1
 40
1
 10
284.385766
 20
205.061182
 30
0.0
 10
281.615755
 20
205.061182
 30
0.0
 10
279.385753
 20
207.291184
 30
0.0
 10
279.385753
 20
210.061183
 30
0.0
  0
LINE
  5
106
100
AcDbEntity
  8
Layer_1
 62
7
100
AcDbLine
 10
279.385753
 20
210.061183
 30
0.0
 11
279.385753
 21
292.061183
 31
0.0
  0
SPLINE
  5
107
100
AcDbEntity
  8
Layer_1
 62
7
100
AcDbSpline
 70
8
 71
3
 72
8
 73
4
 74
0
 40
0
 40
0
 40
0
 40
0
 40
1
 40
1
 40
1
 40
1
 10
279.385753
 20
292.061183
 30
0.0
 10
279.385753
 20
294.831183
 30
0.0
 10
281.615755
 20
297.061184
 30
0.0
 10
284.385766
 20
297.061184
 30
0.0
  0
LINE
  5
108
100
AcDbEntity
  8
Layer_1
 62
7
100
AcDbLine
 10
284.385766
 20
297.061184
 30
0.0
 11
284.385766
 21
297.061184
 31
0.0
  0
SPLINE
  5
109
100
AcDbEntity
  8
Layer_1
 62
7
100
AcDbSpline
 70
8
 71
3
 72
8
 73
4
 74
0
 40
0
 40
0
 40
0
 40
0
 40
1
 40
1
 40
1
 40
1
 10
288.374136
 20
291.061102
 30
0.0
 10
288.374136
 20
289.410720
 30
0.0
 10
287.036238
 20
288.072822
 30
0.0
 10
285.385855
 20
288.072822
 30
0.0
  0
SPLINE
  5
10a
100
AcDbEntity
  8
Layer_1
 62
7
100
AcDbSpline
 70
8
 71
3
 72
8
 73
4
 74
0
 40
0
 40
0
 40
0
 40
0
 40
1
 40
1
 40
1
 40
1
 10
285.385855
 20
288.072822
 30
0.0
 10
283.735474
 20
288.072822
 30
0.0
 10
282.397575
 20
289.410720
 30
0.0
 10
282.397575
 20
291.061102
 30
0.0
  0
SPLINE
  5
10b
100
AcDbEntity
  8
Layer_1
 62
7
100
AcDbSpline
 70
8
 71
3
 72
8
 73
4
 74
0
 40
0
 40
0
 40
0
 40
0
 40
1
 40
1
 40
1
 40
1
 10
282.397575
 20
291.061102
 30
0.0
 10
282.397575
 20
292.711485
 30
0.0
 10
283.735474
 20
294.049383
 30
0.0
 10
285.385855
 20
294.049383
 30
0.0
  0
SPLINE
  5
10c
100
AcDbEntity
  8
Layer_1
 62
7
100
AcDbSpline
 70
8
 71
3
 72
8
 73
4
 74
0
 40
0
 40
0
 40
0
 40
0
 40
1
 40
1
 40
1
 40
1
 10
285.385855
 20
294.049383
 30
0.0
 10
287.036238
 20
294.049383
 30
0.0
 10
288.374136
 20
292.711485
 30
0.0
 10
288.374136
 20
291.061102
 30
0.0
  0
LINE
  5
10d
100
AcDbEntity
  8
Layer_1
 62
7
100
AcDbLine
 10
288.374136
 20
291.061102
 30
0.0
 11
288.374136
 21
291.061102
 31
0.0
  0
SPLINE
  5
10e
100
AcDbEntity
  8
Layer_1
 62
7
100
AcDbSpline
 70
8
 71
3
 72
8
 73
4
 74
0
 40
0
 40
0
 40
0
 40
0
 40
1
 40
1
 40
1
 40
1
 10
308.374096
 20
291.061102
 30
0.0
 10
308.374096
 20
289.410720
 30
0.0
 10
307.036198
 20
288.072822
 30
0.0
 10
305.385815
 20
288.072822
 30
0.0
  0
SPLINE
  5
10f
100
AcDbEntity
  8
Layer_1
 62
7
100
AcDbSpline
 70
8
 71
3
 72
8
 73
4
 74
0
 40
0
 40
0
 40
0
 40
0
 40
1
 40
1
 40
1
 40
1
 10
305.385815
 20
288.072822
 30
0.0
 10
303.735434
 20
288.072822
 30
0.0
 10
302.397535
 20
289.410720
 30
0.0
 10
302.397535
 20
291.061102
 30
0.0
  0
SPLINE
  5
110
100
AcDbEntity
  8
Layer_1
 62
7
100
AcDbSpline
 70
8
 71
3
 72
8
 73
4
 74
0
 40
0
 40
0
 40
0
 40
0
 40
1
 40
1
 40
1
 40
1
 10
302.397535
 20
291.061102
 30
0.0
 10
302.397535
 20
292.711485
 30
0.0
 10
303.735434
 20
294.049383
 30
0.0
 10
305.385815
 20
294.049383
 30
0.0
  0
SPLINE
  5
111
100
AcDbEntity
  8
Layer_1
 62
7
100
AcDbSpline
 70
8
 71
3
 72
8
 73
4
 74
0
 40
0
 40
0
 40
0
 40
0
 40
1
 40
1
 40
1
 40
1
 10
305.385815
 20
294.049383
 30
0.0
 10
307.036198
 20
294.049383
 30
0.0
 10
308.374096
 20
292.711485
 30
0.0
 10
308.374096
 20
291.061102
 30
0.0
  0
LINE
  5
112
100
AcDbEntity
  8
Layer_1
 62
7
100
AcDbLine
 10
308.374096
 20
291.061102
 30
0.0
 11
308.374096
 21
291.061102
 31
0.0
  0
SPLINE
  5
113
100
AcDbEntity
  8
Layer_1
 62
7
100
AcDbSpline
 70
8
 71
3
 72
8
 73
4
 74
0
 40
0
 40
0
 40
0
 40
0
 40
1
 40
1
 40
1
 40
1
 10
328.374056
 20
291.061102
 30
0.0
 10
328.374056
 20
289.410720
 30
0.0
 10
327.036158
 20
288.072822
 30
0.0
 10
325.385775
 20
288.072822
 30
0.0
  0
SPLINE
  5
114
100
AcDbEntity
  8
Layer_1
 62
7
100
AcDbSpline
 70
8
 71
3
 72
8
 73
4
 74
0
 40
0
 40
0
 40
0
 40
0
 40
1
 40
1
 40
1
 40
1
 10
325.385775
 20
288.072822
 30
0.0
 10
323.735394
 20
288.072822
 30
0.0
 10
322.397495
 20
289.410720
 30
0.0
 10
322.397495
 20
291.061102
 30
0.0
  0
SPLINE
  5
115
100
AcDbEntity
  8
Layer_1
 62
7
100
AcDbSpline
 70
8
 71
3
 72
8
 73
4
 74
0
 40
0
 40
0
 40
0
 40
0
 40
1
 40
1
 40
1
 40
1
 10
322.397495
 20
291.061102
 30
0.0
 10
322.397495
 20
292.711485
 30
0.0
 10
323.735394
 20
294.049383
 30
0.0
 10
325.385775
 20
294.049383
 30
0.0
  0
SPLINE
  5
116
100
AcDbEntity
  8
Layer_1
 62
7
100
AcDbSpline
 70
8
 71
3
 72
8
 73
4
 74
0
 40
0
 40
0
 40
0
 40
0
 40
1
 40
1
 40
1
 40
1
 10
325.385775
 20
294.049383
 30
0.0
 10
327.036158
 20
294.049383
 30
0.0
 10
328.374056
 20
292.711485
 30
0.0
 10
328.374056
 20
291.061102
 30
0.0
  0
LINE
  5
117
100
AcDbEntity
  8
Layer_1
 62
7
100
AcDbLine
 10
328.374056
 20
291.061102
 30
0.0
 11
328.374056
 21
291.061102
 31
0.0
  0
SPLINE
  5
118
100
AcDbEntity
  8
Layer_1
 62
7
100
AcDbSpline
 70
8
 71
3
 72
8
 73
4
 74
0
 40
0
 40
0
 40
0
 40
0
 40
1
 40
1
 40
1
 40
1
 10
348.374016
 20
291.061102
 30
0.0
 10
348.374016
 20
289.410720
 30
0.0
 10
347.036118
 20
288.072822
 30
0.0
 10
345.385735
 20
288.072822
 30
0.0
  0
SPLINE
  5
119
100
AcDbEntity
  8
Layer_1
 62
7
100
AcDbSpline
 70
8
 71
3
 72
8
 73
4
 74
0
 40
0
 40
0
 40
0
 40
0
 40
1
 40
1
 40
1
 40
1
 10
345.385735
 20
288.072822
 30
0.0
 10
343.735354
 20
288.072822
 30
0.0
 10
342.397455
 20
289.410720
 30
0.0
 10
342.397455
 20
291.061102
 30
0.0
  0
SPLINE
  5
11a
100
AcDbEntity
  8
Layer_1
 62
7
100
AcDbSpline
 70
8
 71
3
 72
8
 73
4
 74
0
 40
0
 40
0
 40
0
 40
0
 40
1
 40
1
 40
1
 40
1
 10
342.397455
 20
291.061102
 30
0.0
 10
342.397455
 20
292.711485
 30
0.0
 10
343.735354
 20
294.049383
 30
0.0
 10
345.385735
 20
294.049383
 30
0.0
  0
SPLINE
  5
11b
100
AcDbEntity
  8
Layer_1
 62
7
100
AcDbSpline
 70
8
 71
3
 72
8
 73
4
 74
0
 40
0
 40
0
 40
0
 40
0
 40
1
 40
1
 40
1
 40
1
 10
345.385735
 20
294.049383
 30
0.0
 10
347.036118
 20
294.049383
 30
0.0
 10
348.374016
 20
292.711485
 30
0.0
 10
348.374016
 20
291.061102
 30
0.0
  0
LINE
  5
11c
100
AcDbEntity
  8
Layer_1
 62
7
100
AcDbLine
 10
348.374016
 20
291.061102
 30
0.0
 11
348.374016
 21
291.061102
 31
0.0
  0
SPLINE
  5
11d
100
AcDbEntity
  8
Layer_1
 62
7
100
AcDbSpline
 70
8
 71
3
 72
8
 73
4
 74
0
 40
0
 40
0
 40
0
 40
0
 40
1
 40
1
 40
1
 40
1
 10
368.373976
 20
291.061102
 30
0.0
 10
368.373976
 20
289.410720
 30
0.0
 10
367.036078
 20
288.072822
 30
0.0
 10
365.385695
 20
288.072822
 30
0.0
  0
SPLINE
  5
11e
100
AcDbEntity
  8
Layer_1
 62
7
100
AcDbSpline
 70
8
 71
3
 72
8
 73
4
 74
0
 40
0
 40
0
 40
0
 40
0
 40
1
 40
1
 40
1
 40
1
 10
365.385695
 20
288.072822
 30
0.0
 10
363.735314
 20
288.072822
 30
0.0
 10
362.397415
 20
289.410720
 30
0.0
 10
362.397415
 20
291.061102
 30
0.0
  0
SPLINE
  5
11f
100
AcDbEntity
  8
Layer_1
 62
7
100
AcDbSpline
 70
8
 71
3
 72
8
 73
4
 74
0
 40
0
 40
0
 40
0
 40
0
 40
1
 40
1
 40
1
 40
1
 10
362.397415
 20
291.061102
 30
0.0
 10
362.397415
 20
292.711485
 30
0.0
 10
363.735314
 20
294.049383
 30
0.0
 10
365.385695
 20
294.049383
 30
0.0
  0
SPLINE
  5
120
100
AcDbEntity
  8
Layer_1
 62
7
100
AcDbSpline
 70
8
 71
3
 72
8
 73
4
 74
0
 40
0
 40
0
 40
0
 40
0
 40
1
 40
1
 40
1
 40
1
 10
365.385695
 20
294.049383
 30
0.0
 10
367.036078
 20
294.049383
 30
0.0
 10
368.373976
 20
292.711485
 30
0.0
 10
368.373976
 20
291.061102
 30
0.0
  0
LINE
  5
121
100
AcDbEntity
  8
Layer_1
 62
7
100
AcDbLine
 10
368.373976
 20
291.061102
 30
0.0
 11
368.373976
 21
291.061102
 31
0.0
  0
SPLINE
  5
122
100
AcDbEntity
  8
Layer_1
 62
7
100
AcDbSpline
 70
8
 71
3
 72
8
 73
4
 74
0
 40
0
 40
0
 40
0
 40
0
 40
1
 40
1
 40
1
 40
1
 10
388.373936
 20
291.061102
 30
0.0
 10
388.373936
 20
289.410720
 30
0.0
 10
387.036038
 20
288.072822
 30
0.0
 10
385.385655
 20
288.072822
 30
0.0
  0
SPLINE
  5
123
100
AcDbEntity
  8
Layer_1
 62
7
100
AcDbSpline
 70
8
 71
3
 72
8
 73
4
 74
0
 40
0
 40
0
 40
0
 40
0
 40
1
 40
1
 40
1
 40
1
 10
385.385655
 20
288.072822
 30
0.0
 10
383.735274
 20
288.072822
 30
0.0
 10
382.397375
 20
289.410720
 30
0.0
 10
382.397375
 20
291.061102
 30
0.0
  0
SPLINE
  5
124
100
AcDbEntity
  8
Layer_1
 62
7
100
AcDbSpline
 70
8
 71
3
 72
8
 73
4
 74
0
 40
0
 40
0
 40
0
 40
0
 40
1
 40
1
 40
1
 40
1
 10
382.397375
 20
291.061102
 30
0.0
 10
382.397375
 20
292.711485
 30
0.0
 10
383.735274
 20
294.049383
 30
0.0
 10
385.385655
 20
294.049383
 30
0.0
  0
SPLINE
  5
125
100
AcDbEntity
  8
Layer_1
 62
7
100
AcDbSpline
 70
8
 71
3
 72
8
 73
4
 74
0
 40
0
 40
0
 40
0
 40
0
 40
1
 40
1
 40
1
 40
1
 10
385.385655
 20
294.049383
 30
0.0
 10
387.036038
 20
294.049383
 30
0.0
 10
388.373936
 20
292.711485
 30
0.0
 10
388.373936
 20
291.061102
 30
0.0
  0
LINE
  5
126
100
AcDbEntity
  8
Layer_1
 62
7
100
AcDbLine
 10
388.373936
 20
291.061102
 30
0.0
 11
388.373936
 21
291.061102
 31
0.0
  0
SPLINE
  5
127
100
AcDbEntity
  8
Layer_1
 62
7
100
AcDbSpline
 70
8
 71
3
 72
8
 73
4
 74
0
 40
0
 40
0
 40
0
 40
0
 40
1
 40
1
 40
1
 40
1
 10
288.374135
 20
211.061262
 30
0.0
 10
288.374135
 20
209.410880
 30
0.0
 10
287.036236
 20
208.072982
 30
0.0
 10
285.385854
 20
208.072982
 30
0.0
  0
SPLINE
  5
128
100
AcDbEntity
  8
Layer_1
 62
7
100
AcDbSpline
 70
8
 71
3
 72
8
 73
4
 74
0
 40
0
 40
0
 40
0
 40
0
 40
1
 40
1
 40
1
 40
1
 10
285.385854
 20
208.072982
 30
0.0
 10
283.735473
 20
208.072982
 30
0.0
 10
282.397573
 20
209.410880
 30
0.0
 10
282.397573
 20
211.061262
 30
0.0
  0
SPLINE
  5
129
100
AcDbEntity
  8
Layer_1
 62
7
100
AcDbSpline
 70
8
 71
3
 72
8
 73
4
 74
0
 40
0
 40
0
 40
0
 40
0
 40
1
 40
1
 40
1
 40
1
 10
282.397573
 20
211.061262
 30
0.0
 10
282.397573
 20
212.711645
 30
0.0
 10
283.735473
 20
214.049543
 30
0.0
 10
285.385854
 20
214.049543
 30
0.0
  0
SPLINE
  5
12a
100
AcDbEntity
  8
Layer_1
 62
7
100
AcDbSpline
 70
8
 71
3
 72
8
 73
4
 74
0
 40
0
 40
0
 40
0
 40
0
 40
1
 40
1
 40
1
 40
1
 10
285.385854
 20
214.049543
 30
0.0
 10
287.036236
 20
214.049543
 30
0.0
 10
288.374135
 20
212.711645
 30
0.0
 10
288.374135
 20
211.061262
 30
0.0
  0
LINE
  5
12b
100
AcDbEntity
  8
Layer_1
 62
7
100
AcDbLine
 10
288.374135
 20
211.061262
 30
0.0
 11
288.374135
 21
211.061262
 31
0.0
  0
SPLINE
  5
12c
100
AcDbEntity
  8
Layer_1
 62
7
100
AcDbSpline
 70
8
 71
3
 72
8
 73
4
 74
0
 40
0
 40
0
 40
0
 40
0
 40
1
 40
1
 40
1
 40
1
 10
308.374095
 20
211.061262
 30
0.0
 10
308.374095
 20
209.410880
 30
0.0
 10
307.036196
 20
208.072982
 30
0.0
 10
305.385814
 20
208.072982
 30
0.0
  0
SPLINE
  5
12d
100
AcDbEntity
  8
Layer_1
 62
7
100
AcDbSpline
 70
8
 71
3
 72
8
 73
4
 74
0
 40
0
 40
0
 40
0
 40
0
 40
1
 40
1
 40
1
 40
1
 10
305.385814
 20
208.072982
 30
0.0
 10
303.735433
 20
208.072982
 30
0.0
 10
302.397533
 20
209.410880
 30
0.0
 10
302.397533
 20
211.061262
 30
0.0
  0
SPLINE
  5
12e
100
AcDbEntity
  8
Layer_1
 62
7
100
AcDbSpline
 70
8
 71
3
 72
8
 73
4
 74
0
 40
0
 40
0
 40
0
 40
0
 40
1
 40
1
 40
1
 40
1
 10
302.397533
 20
211.061262
 30
0.0
 10
302.397533
 20
212.711645
 30
0.0
 10
303.735433
 20
214.049543
 30
0.0
 10
305.385814
 20
214.049543
 30
0.0
  0
SPLINE
  5
12f
100
AcDbEntity
  8
Layer_1
 62
7
100
AcDbSpline
 70
8
 71
3
 72
8
 73
4
 74
0
 40
0
 40
0
 40
0
 40
0
 40
1
 40
1
 40
1
 40
1
 10
305.385814
 20
214.049543
 30
0.0
 10
307.036196
 20
214.049543
 30
0.0
 10
308.374095
 20
212.711645
 30
0.0
 10
308.374095
 20
211.061262
 30
0.0
  0
LINE
  5
130
100
AcDbEntity
  8
Layer_1
 62
7
100
AcDbLine
 10
308.374095
 20
211.061262
 30
0.0
 11
308.374095
 21
211.061262
 31
0.0
  0
SPLINE
  5
131
100
AcDbEntity
  8
Layer_1
 62
7
100
AcDbSpline
 70
8
 71
3
 72
8
 73
4
 74
0
 40
0
 40
0
 40
0
 40
0
 40
1
 40
1
 40
1
 40
1
 10
328.374055
 20
211.061262
 30
0.0
 10
328.374055
 20
209.410880
 30
0.0
 10
327.036156
 20
208.072982
 30
0.0
 10
325.385774
 20
208.072982
 30
0.0
  0
SPLINE
  5
132
100
AcDbEntity
  8
Layer_1
 62
7
100
AcDbSpline
 70
8
 71
3
 72
8
 73
4
 74
0
 40
0
 40
0
 40
0
 40
0
 40
1
 40
1
 40
1
 40
1
 10
325.385774
 20
208.072982
 30
0.0
 10
323.735393
 20
208.072982
 30
0.0
 10
322.397493
 20
209.410880
 30
0.0
 10
322.397493
 20
211.061262
 30
0.0
  0
SPLINE
  5
133
100
AcDbEntity
  8
Layer_1
 62
7
100
AcDbSpline
 70
8
 71
3
 72
8
 73
4
 74
0
 40
0
 40
0
 40
0
 40
0
 40
1
 40
1
 40
1
 40
1
 10
322.397493
 20
211.061262
 30
0.0
 10
322.397493
 20
212.711645
 30
0.0
 10
323.735393
 20
214.049543
 30
0.0
 10
325.385774
 20
214.049543
 30
0.0
  0
SPLINE
  5
134
100
AcDbEntity
  8
Layer_1
 62
7
100
AcDbSpline
 70
8
 71
3
 72
8
 73
4
 74
0
 40
0
 40
0
 40
0
 40
0
 40
1
 40
1
 40
1
 40
1
 10
325.385774
 20
214.049543
 30
0.0
 10
327.036156
 20
214.049543
 30
0.0
 10
328.374055
 20
212.711645
 30
0.0
 10
328.374055
 20
211.061262
 30
0.0
  0
LINE
  5
135
100
AcDbEntity
  8
Layer_1
 62
7
100
AcDbLine
 10
328.374055
 20
211.061262
 30
0.0
 11
328.374055
 21
211.061262
 31
0.0
  0
SPLINE
  5
136
100
AcDbEntity
  8
Layer_1
 62
7
100
AcDbSpline
 70
8
 71
3
 72
8
 73
4
 74
0
 40
0
 40
0
 40
0
 40
0
 40
1
 40
1
 40
1
 40
1
 10
348.374015
 20
211.061262
 30
0.0
 10
348.374015
 20
209.410880
 30
0.0
 10
347.036116
 20
208.072982
 30
0.0
 10
345.385734
 20
208.072982
 30
0.0
  0
SPLINE
  5
137
100
AcDbEntity
  8
Layer_1
 62
7
100
AcDbSpline
 70
8
 71
3
 72
8
 73
4
 74
0
 40
0
 40
0
 40
0
 40
0
 40
1
 40
1
 40
1
 40
1
 10
345.385734
 20
208.072982
 30
0.0
 10
343.735353
 20
208.072982
 30
0.0
 10
342.397453
 20
209.410880
 30
0.0
 10
342.397453
 20
211.061262
 30
0.0
  0
SPLINE
  5
138
100
AcDbEntity
  8
Layer_1
 62
7
100
AcDbSpline
 70
8
 71
3
 72
8
 73
4
 74
0
 40
0
 40
0
 40
0
 40
0
 40
1
 40
1
 40
1
 40
1
 10
342.397453
 20
211.061262
 30
0.0
 10
342.397453
 20
212.711645
 30
0.0
 10
343.735353
 20
214.049543
 30
0.0
 10
345.385734
 20
214.049543
 30
0.0
  0
SPLINE
  5
139
100
AcDbEntity
  8
Layer_1
 62
7
100
AcDbSpline
 70
8
 71
3
 72
8
 73
4
 74
0
 40
0
 40
0
 40
0
 40
0
 40
1
 40
1
 40
1
 40
1
 10
345.385734
 20
214.049543
 30
0.0
 10
347.036116
 20
214.049543
 30
0.0
 10
348.374015
 20
212.711645
 30
0.0
 10
348.374015
 20
211.061262
 30
0.0
  0
LINE
  5
13a
100
AcDbEntity
  8
Layer_1
 62
7
100
AcDbLine
 10
348.374015
 20
211.061262
 30
0.0
 11
348.374015
 21
211.061262
 31
0.0
  0
SPLINE
  5
13b
100
AcDbEntity
  8
Layer_1
 62
7
100
AcDbSpline
 70
8
 71
3
 72
8
 73
4
 74
0
 40
0
 40
0
 40
0
 40
0
 40
1
 40
1
 40
1
 40
1
 10
368.373975
 20
211.061262
 30
0.0
 10
368.373975
 20
209.410880
 30
0.0
 10
367.036076
 20
208.072982
 30
0.0
 10
365.385694
 20
208.072982
 30
0.0
  0
SPLINE
  5
13c
100
AcDbEntity
  8
Layer_1
 62
7
100
AcDbSpline
 70
8
 71
3
 72
8
 73
4
 74
0
 40
0
 40
0
 40
0
 40
0
 40
1
 40
1
 40
1
 40
1
 10
365.385694
 20
208.072982
 30
0.0
 10
363.735313
 20
208.072982
 30
0.0
 10
362.397413
 20
209.410880
 30
0.0
 10
362.397413
 20
211.061262
 30
0.0
  0
SPLINE
  5
13d
100
AcDbEntity
  8
Layer_1
 62
7
100
AcDbSpline
 70
8
 71
3
 72
8
 73
4
 74
0
 40
0
 40
0
 40
0
 40
0
 40
1
 40
1
 40
1
 40
1
 10
362.397413
 20
211.061262
 30
0.0
 10
362.397413
 20
212.711645
 30
0.0
 10
363.735313
 20
214.049543
 30
0.0
 10
365.385694
 20
214.049543
 30
0.0
  0
SPLINE
  5
13e
100
AcDbEntity
  8
Layer_1
 62
7
100
AcDbSpline
 70
8
 71
3
 72
8
 73
4
 74
0
 40
0
 40
0
 40
0
 40
0
 40
1
 40
1
 40
1
 40
1
 10
365.385694
 20
214.049543
 30
0.0
 10
367.036076
 20
214.049543
 30
0.0
 10
368.373975
 20
212.711645
 30
0.0
 10
368.373975
 20
211.061262
 30
0.0
  0
LINE
  5
13f
100
AcDbEntity
  8
Layer_1
 62
7
100
AcDbLine
 10
368.373975
 20
211.061262
 30
0.0
 11
368.373975
 21
211.061262
 31
0.0
  0
SPLINE
  5
140
100
AcDbEntity
  8
Layer_1
 62
7
100
AcDbSpline
 70
8
 71
3
 72
8
 73
4
 74
0
 40
0
 40
0
 40
0
 40
0
 40
1
 40
1
 40
1
 40
1
 10
388.373935
 20
211.061262
 30
0.0
 10
388.373935
 20
209.410880
 30
0.0
 10
387.036036
 20
208.072982
 30
0.0
 10
385.385654
 20
208.072982
 30
0.0
  0
SPLINE
  5
141
100
AcDbEntity
  8
Layer_1
 62
7
100
AcDbSpline
 70
8
 71
3
 72
8
 73
4
 74
0
 40
0
 40
0
 40
0
 40
0
 40
1
 40
1
 40
1
 40
1
 10
385.385654
 20
208.072982
 30
0.0
 10
383.735273
 20
208.072982
 30
0.0
 10
382.397373
 20
209.410880
 30
0.0
 10
382.397373
 20
211.061262
 30
0.0
  0
SPLINE
  5
142
100
AcDbEntity
  8
Layer_1
 62
7
100
AcDbSpline
 70
8
 71
3
 72
8
 73
4
 74
0
 40
0
 40
0
 40
0
 40
0
 40
1
 40
1
 40
1
 40
1
 10
382.397373
 20
211.061262
 30
0.0
 10
382.397373
 20
212.711645
 30
0.0
 10
383.735273
 20
214.049543
 30
0.0
 10
385.385654
 20
214.049543
 30
0.0
  0
SPLINE
  5
143
100
AcDbEntity
  8
Layer_1
 62
7
100
AcDbSpline
 70
8
 71
3
 72
8
 73
4
 74
0
 40
0
 40
0
 40
0
 40
0
 40
1
 40
1
 40
1
 40
1
 10
385.385654
 20
214.049543
 30
0.0
 10
387.036036
 20
214.049543
 30
0.0
 10
388.373935
 20
212.711645
 30
0.0
 10
388.373935
 20
211.061262
 30
0.0
  0
LINE
  5
144
100
AcDbEntity
  8
Layer_1
 62
7
100
AcDbLine
 10
388.373935
 20
211.061262
 30
0.0
 11
388.373935
 21
211.061262
 31
0.0
  0
SPLINE
  5
145
100
AcDbEntity
  8
Layer_1
 62
7
100
AcDbSpline
 70
8
 71
3
 72
8
 73
4
 74
0
 40
0
 40
0
 40
0
 40
0
 40
1
 40
1
 40
1
 40
1
 10
288.374135
 20
231.061222
 30
0.0
 10
288.374135
 20
229.410840
 30
0.0
 10
287.036236
 20
228.072942
 30
0.0
 10
285.385854
 20
228.072942
 30
0.0
  0
SPLINE
  5
146
100
AcDbEntity
  8
Layer_1
 62
7
100
AcDbSpline
 70
8
 71
3
 72
8
 73
4
 74
0
 40
0
 40
0
 40
0
 40
0
 40
1
 40
1
 40
1
 40
1
 10
285.385854
 20
228.072942
 30
0.0
 10
283.735473
 20
228.072942
 30
0.0
 10
282.397573
 20
229.410840
 30
0.0
 10
282.397573
 20
231.061222
 30
0.0
  0
SPLINE
  5
147
100
AcDbEntity
  8
Layer_1
 62
7
100
AcDbSpline
 70
8
 71
3
 72
8
 73
4
 74
0
 40
0
 40
0
 40
0
 40
0
 40
1
 40
1
 40
1
 40
1
 10
282.397573
 20
231.061222
 30
0.0
 10
282.397573
 20
232.711605
 30
0.0
 10
283.735473
 20
234.049503
 30
0.0
 10
285.385854
 20
234.049503
 30
0.0
  0
SPLINE
  5
148
100
AcDbEntity
  8
Layer_1
 62
7
100
AcDbSpline
 70
8
 71
3
 72
8
 73
4
 74
0
 40
0
 40
0
 40
0
 40
0
 40
1
 40
1
 40
1
 40
1
 10
285.385854
 20
234.049503
 30
0.0
 10
287.036236
 20
234.049503
 30
0.0
 10
288.374135
 20
232.711605
 30
0.0
 10
288.374135
 20
231.061222
 30
0.0
  0
LINE
  5
149
100
AcDbEntity
  8
Layer_1
 62
7
100
AcDbLine
 10
288.374135
 20
231.061222
 30
0.0
 11
288.374135
 21
231.061222
 31
0.0
  0
SPLINE
  5
14a
100
AcDbEntity
  8
Layer_1
 62
7
100
AcDbSpline
 70
8
 71
3
 72
8
 73
4
 74
0
 40
0
 40
0
 40
0
 40
0
 40
1
 40
1
 40
1
 40
1
 10
288.374135
 20
251.061182
 30
0.0
 10
288.374135
 20
249.410800
 30
0.0
 10
287.036236
 20
248.072902
 30
0.0
 10
285.385854
 20
248.072902
 30
0.0
  0
SPLINE
  5
14b
100
AcDbEntity
  8
Layer_1
 62
7
100
AcDbSpline
 70
8
 71
3
 72
8
 73
4
 74
0
 40
0
 40
0
 40
0
 40
0
 40
1
 40
1
 40
1
 40
1
 10
285.385854
 20
248.072902
 30
0.0
 10
283.735473
 20
248.072902
 30
0.0
 10
282.397573
 20
249.410800
 30
0.0
 10
282.397573
 20
251.061182
 30
0.0
  0
SPLINE
  5
14c
100
AcDbEntity
  8
Layer_1
 62
7
100
AcDbSpline
 70
8
 71
3
 72
8
 73
4
 74
0
 40
0
 40
0
 40
0
 40
0
 40
1
 40
1
 40
1
 40
1
 10
282.397573
 20
251.061182
 30
0.0
 10
282.397573
 20
252.711565
 30
0.0
 10
283.735473
 20
254.049463
 30
0.0
 10
285.385854
 20
254.049463
 30
0.0
  0
SPLINE
  5
14d
100
AcDbEntity
  8
Layer_1
 62
7
100
AcDbSpline
 70
8
 71
3
 72
8
 73
4
 74
0
 40
0
 40
0
 40
0
 40
0
 40
1
 40
1
 40
1
 40
1
 10
285.385854
 20
254.049463
 30
0.0
 10
287.036236
 20
254.049463
 30
0.0
 10
288.374135
 20
252.711565
 30
0.0
 10
288.374135
 20
251.061182
 30
0.0
  0
LINE
  5
14e
100
AcDbEntity
  8
Layer_1
 62
7
100
AcDbLine
 10
288.374135
 20
251.061182
 30
0.0
 11
288.374135
 21
251.061182
 31
0.0
  0
SPLINE
  5
14f
100
AcDbEntity
  8
Layer_1
 62
7
100
AcDbSpline
 70
8
 71
3
 72
8
 73
4
 74
0
 40
0
 40
0
 40
0
 40
0
 40
1
 40
1
 40
1
 40
1
 10
288.374135
 20
271.061142
 30
0.0
 10
288.374135
 20
269.410760
 30
0.0
 10
287.036236
 20
268.072862
 30
0.0
 10
285.385854
 20
268.072862
 30
0.0
  0
SPLINE
  5
150
100
AcDbEntity
  8
Layer_1
 62
7
100
AcDbSpline
 70
8
 71
3
 72
8
 73
4
 74
0
 40
0
 40
0
 40
0
 40
0
 40
1
 40
1
 40
1
 40
1
 10
285.385854
 20
268.072862
 30
0.0
 10
283.735473
 20
268.072862
 30
0.0
 10
282.397573
 20
269.410760
 30
0.0
 10
282.397573
 20
271.061142
 30
0.0
  0
SPLINE
  5
151
100
AcDbEntity
  8
Layer_1
 62
7
100
AcDbSpline
 70
8
 71
3
 72
8
 73
4
 74
0
 40
0
 40
0
 40
0
 40
0
 40
1
 40
1
 40
1
 40
1
 10
282.397573
 20
271.061142
 30
0.0
 10
282.397573
 20
272.711525
 30
0.0
 10
283.735473
 20
274.049423
 30
0.0
 10
285.385854
 20
274.049423
 30
0.0
  0
SPLINE
  5
152
100
AcDbEntity
  8
Layer_1
 62
7
100
AcDbSpline
 70
8
 71
3
 72
8
 73
4
 74
0
 40
0
 40
0
 40
0
 40
0
 40
1
 40
1
 40
1
 40
1
 10
285.385854
 20
274.049423
 30
0.0
 10
287.036236
 20
274.049423
 30
0.0
 10
288.374135
 20
272.711525
 30
0.0
 10
288.374135
 20
271.061142
 30
0.0
  0
LINE
  5
153
100
AcDbEntity
  8
Layer_1
 62
7
100
AcDbLine
 10
288.374135
 20
271.061142
 30
0.0
 11
288.374135
 21
271.061142
 31
0.0
  0
LINE
  5
154
100
AcDbEntity
  8
Layer_1
 62
7
100
AcDbLine
 10
322.385718
 20
284.061209
 30
0.0
 11
382.385711
 21
284.061209
 31
0.0
  0
SPLINE
  5
155
100
AcDbEntity
  8
Layer_1
 62
7
100
AcDbSpline
 70
8
 71
3
 72
8
 73
4
 74
0
 40
0
 40
0
 40
0
 40
0
 40
1
 40
1
 40
1
 40
1
 10
382.385711
 20
284.061209
 30
0.0
 10
383.493716
 20
284.061209
 30
0.0
 10
384.385707
 20
283.169209
 30
0.0
 10
384.385707
 20
282.061209
 30
0.0
  0
LINE
  5
156
100
AcDbEntity
  8
Layer_1
 62
7
100
AcDbLine
 10
384.385707
 20
282.061209
 30
0.0
 11
384.385707
 21
236.061208
 31
0.0
  0
SPLINE
  5
157
100
AcDbEntity
  8
Layer_1
 62
7
100
AcDbSpline
 70
8
 71
3
 72
8
 73
4
 74
0
 40
0
 40
0
 40
0
 40
0
 40
1
 40
1
 40
1
 40
1
 10
384.385707
 20
236.061208
 30
0.0
 10
384.385707
 20
234.953206
 30
0.0
 10
383.493716
 20
234.061206
 30
0.0
 10
382.385711
 20
234.061206
 30
0.0
  0
LINE
  5
158
100
AcDbEntity
  8
Layer_1
 62
7
100
AcDbLine
 10
382.385711
 20
234.061206
 30
0.0
 11
322.385718
 21
234.061206
 31
0.0
  0
SPLINE
  5
159
100
AcDbEntity
  8
Layer_1
 62
7
100
AcDbSpline
 70
8
 71
3
 72
8
 73
4
 74
0
 40
0
 40
0
 40
0
 40
0
 40
1
 40
1
 40
1
 40
1
 10
322.385718
 20
234.061206
 30
0.0
 10
321.277714
 20
234.061206
 30
0.0
 10
320.385722
 20
234.953206
 30
0.0
 10
320.385722
 20
236.061208
 30
0.0
  0
LINE
  5
15a
100
AcDbEntity
  8
Layer_1
 62
7
100
AcDbLine
 10
320.385722
 20
236.061208
 30
0.0
 11
320.385722
 21
282.061209
 31
0.0
  0
SPLINE
  5
15b
100
AcDbEntity
  8
Layer_1
 62
7
100
AcDbSpline
 70
8
 71
3
 72
8
 73
4
 74
0
 40
0
 40
0
 40
0
 40
0
 40
1
 40
1
 40
1
 40
1
 10
320.385722
 20
282.061209
 30
0.0
 10
320.385722
 20
283.169209
 30
0.0
 10
321.277714
 20
284.061209
 30
0.0
 10
322.385718
 20
284.061209
 30
0.0
  0
LINE
  5
15c
100
AcDbEntity
  8
Layer_1
 62
7
100
AcDbLine
 10
322.385718
 20
284.061209
 30
0.0
 11
322.385718
 21
284.061209
 31
0.0
  0
LINE
  5
15d
100
AcDbEntity
  8
Layer_1
 62
7
100
AcDbLine
 10
292.385835
 20
212.561266
 30
0.0
 11
298.385851
 21
212.561266
 31
0.0
  0
LINE
  5
15e
100
AcDbEntity
  8
Layer_1
 62
7
100
AcDbLine
 10
298.385851
 20
212.561266
 30
0.0
 11
298.385851
 21
209.561266
 31
0.0
  0
LINE
  5
15f
100
AcDbEntity
  8
Layer_1
 62
7
100
AcDbLine
 10
298.385851
 20
209.561266
 30
0.0
 11
292.385835
 21
209.561266
 31
0.0
  0
LINE
  5
160
100
AcDbEntity
  8
Layer_1
 62
7
100
AcDbLine
 10
292.385835
 20
209.561266
 30
0.0
 11
292.385835
 21
212.561266
 31
0.0
  0
LINE
  5
161
100
AcDbEntity
  8
Layer_1
 62
7
100
AcDbLine
 10
312.385795
 20
212.561266
 30
0.0
 11
318.385783
 21
212.561266
 31
0.0
  0
LINE
  5
162
100
AcDbEntity
  8
Layer_1
 62
7
100
AcDbLine
 10
318.385783
 20
212.561266
 30
0.0
 11
318.385783
 21
209.561266
 31
0.0
  0
LINE
  5
163
100
AcDbEntity
  8
Layer_1
 62
7
100
AcDbLine
 10
318.385783
 20
209.561266
 30
0.0
 11
312.385795
 21
209.561266
 31
0.0
  0
LINE
  5
164
100
AcDbEntity
  8
Layer_1
 62
7
100
AcDbLine
 10
312.385795
 20
209.561266
 30
0.0
 11
312.385795
 21
212.561266
 31
0.0
  0
LINE
  5
165
100
AcDbEntity
  8
Layer_1
 62
7
100
AcDbLine
 10
332.385755
 20
212.561266
 30
0.0
 11
338.385743
 21
212.561266
 31
0.0
  0
LINE
  5
166
100
AcDbEntity
  8
Layer_1
 62
7
100
AcDbLine
 10
338.385743
 20
212.561266
 30
0.0
 11
338.385743
 21
209.561266
 31
0.0
  0
LINE
  5
167
100
AcDbEntity
  8
Layer_1
 62
7
100
AcDbLine
 10
338.385743
 20
209.561266
 30
0.0
 11
332.385755
 21
209.561266
 31
0.0
  0
LINE
  5
168
100
AcDbEntity
  8
Layer_1
 62
7
100
AcDbLine
 10
332.385755
 20
209.561266
 30
0.0
 11
332.385755
 21
212.561266
 31
0.0
  0
LINE
  5
169
100
AcDbEntity
  8
Layer_1
 62
7
100
AcDbLine
 10
352.385686
 20
212.561266
 30
0.0
 11
358.385703
 21
212.561266
 31
0.0
  0
LINE
  5
16a
100
AcDbEntity
  8
Layer_1
 62
7
100
AcDbLine
 10
358.385703
 20
212.561266
 30
0.0
 11
358.385703
 21
209.561266
 31
0.0
  0
LINE
  5
16b
100
AcDbEntity
  8
Layer_1
 62
7
100
AcDbLine
 10
358.385703
 20
209.561266
 30
0.0
 11
352.385686
 21
209.561266
 31
0.0
  0
LINE
  5
16c
100
AcDbEntity
  8
Layer_1
 62
7
100
AcDbLine
 10
352.385686
 20
209.561266
 30
0.0
 11
352.385686
 21
212.561266
 31
0.0
  0
LINE
  5
16d
100
AcDbEntity
  8
Layer_1
 62
7
100
AcDbLine
 10
372.385646
 20
212.561266
 30
0.0
 11
378.385634
 21
212.561266
 31
0.0
  0
LINE
  5
16e
100
AcDbEntity
  8
Layer_1
 62
7
100
AcDbLine
 10
378.385634
 20
212.561266
 30
0.0
 11
378.385634
 21
209.561266
 31
0.0
  0
LINE
  5
16f
100
AcDbEntity
  8
Layer_1
 62
7
100
AcDbLine
 10
378.385634
 20
209.561266
 30
0.0
 11
372.385646
 21
209.561266
 31
0.0
  0
LINE
  5
170
100
AcDbEntity
  8
Layer_1
 62
7
100
AcDbLine
 10
372.385646
 20
209.561266
 30
0.0
 11
372.385646
 21
212.561266
 31
0.0
  0
LINE
  5
171
100
AcDbEntity
  8
Layer_1
 62
7
100
AcDbLine
 10
292.385835
 20
292.561107
 30
0.0
 11
298.385851
 21
292.561107
 31
0.0
  0
LINE
  5
172
100
AcDbEntity
  8
Layer_1
 62
7
100
AcDbLine
 10
298.385851
 20
292.561107
 30
0.0
 11
298.385851
 21
289.561107
 31
0.0
  0
LINE
  5
173
100
AcDbEntity
  8
Layer_1
 62
7
100
AcDbLine
 10
298.385851
 20
289.561107
 30
0.0
 11
292.385835
 21
289.561107
 31
0.0
  0
LINE
  5
174
100
AcDbEntity
  8
Layer_1
 62
7
100
AcDbLine
 10
292.385835
 20
289.561107
 30
0.0
 11
292.385835
 21
292.561107
 31
0.0
  0
LINE
  5
175
100
AcDbEntity
  8
Layer_1
 62
7
100
AcDbLine
 10
312.385795
 20
292.561107
 30
0.0
 11
318.385783
 21
292.561107
 31
0.0
  0
LINE
  5
176
100
AcDbEntity
  8
Layer_1
 62
7
100
AcDbLine
 10
318.385783
 20
292.561107
 30
0.0
 11
318.385783
 21
289.561107
 31
0.0
  0
LINE
  5
177
100
AcDbEntity
  8
Layer_1
 62
7
100
AcDbLine
 10
318.385783
 20
289.561107
 30
0.0
 11
312.385795
 21
289.561107
 31
0.0
  0
LINE
  5
178
100
AcDbEntity
  8
Layer_1
 62
7
100
AcDbLine
 10
312.385795
 20
289.561107
 30
0.0
 11
312.385795
 21
292.561107
 31
0.0
  0
LINE
  5
179
100
AcDbEntity
  8
Layer_1
 62
7
100
AcDbLine
 10
332.385755
 20
292.561107
 30
0.0
 11
338.385743
 21
292.561107
 31
0.0
  0
LINE
  5
17a
100
AcDbEntity
  8
Layer_1
 62
7
100
AcDbLine
 10
338.385743
 20
292.561107
 30
0.0
 11
338.385743
 21
289.561107
 31
0.0
  0
LINE
  5
17b
100
AcDbEntity
  8
Layer_1
 62
7
100
AcDbLine
 10
338.385743
 20
289.561107
 30
0.0
 11
332.385755
 21
289.561107
 31
0.0
  0
LINE
  5
17c
100
AcDbEntity
  8
Layer_1
 62
7
100
AcDbLine
 10
332.385755
 20
289.561107
 30
0.0
 11
332.385755
 21
292.561107
 31
0.0
  0
LINE
  5
17d
100
AcDbEntity
  8
Layer_1
 62
7
100
AcDbLine
 10
352.385686
 20
292.561107
 30
0.0
 11
358.385703
 21
292.561107
 31
0.0
  0
LINE
  5
17e
100
AcDbEntity
  8
Layer_1
 62
7
100
AcDbLine
 10
358.385703
 20
292.561107
 30
0.0
 11
358.385703
 21
289.561107
 31
0.0
  0
LINE
  5
17f
100
AcDbEntity
  8
Layer_1
 62
7
100
AcDbLine
 10
358.385703
 20
289.561107
 30
0.0
 11
352.385686
 21
289.561107
 31
0.0
  0
LINE
  5
180
100
AcDbEntity
  8
Layer_1
 62
7
100
AcDbLine
 10
352.385686
 20
289.561107
 30
0.0
 11
352.385686
 21
292.561107
 31
0.0
  0
LINE
  5
181
100
AcDbEntity
  8
Layer_1
 62
7
100
AcDbLine
 10
372.385646
 20
292.561107
 30
0.0
 11
378.385634
 21
292.561107
 31
0.0
  0
LINE
  5
182
100
AcDbEntity
  8
Layer_1
 62
7
100
AcDbLine
 10
378.385634
 20
292.561107
 30
0.0
 11
378.385634
 21
289.561107
 31
0.0
  0
LINE
  5
183
100
AcDbEntity
  8
Layer_1
 62
7
100
AcDbLine
 10
378.385634
 20
289.561107
 30
0.0
 11
372.385646
 21
289.561107
 31
0.0
  0
LINE
  5
184
100
AcDbEntity
  8
Layer_1
 62
7
100
AcDbLine
 10
372.385646
 20
289.561107
 30
0.0
 11
372.385646
 21
292.561107
 31
0.0
  0
LINE
  5
185
100
AcDbEntity
  8
Layer_1
 62
7
100
AcDbLine
 10
383.885609
 20
218.061249
 30
0.0
 11
383.885609
 21
224.061249
 31
0.0
  0
LINE
  5
186
100
AcDbEntity
  8
Layer_1
 62
7
100
AcDbLine
 10
383.885609
 20
224.061249
 30
0.0
 11
386.885603
 21
224.061249
 31
0.0
  0
LINE
  5
187
100
AcDbEntity
  8
Layer_1
 62
7
100
AcDbLine
 10
386.885603
 20
224.061249
 30
0.0
 11
386.885603
 21
218.061249
 31
0.0
  0
LINE
  5
188
100
AcDbEntity
  8
Layer_1
 62
7
100
AcDbLine
 10
386.885603
 20
218.061249
 30
0.0
 11
383.885609
 21
218.061249
 31
0.0
  0
LINE
  5
189
100
AcDbEntity
  8
Layer_1
 62
7
100
AcDbLine
 10
283.885866
 20
278.061126
 30
0.0
 11
283.885866
 21
284.061126
 31
0.0
  0
LINE
  5
18a
100
AcDbEntity
  8
Layer_1
 62
7
100
AcDbLine
 10
283.885866
 20
284.061126
 30
0.0
 11
286.885860
 21
284.061126
 31
0.0
  0
LINE
  5
18b
100
AcDbEntity
  8
Layer_1
 62
7
100
AcDbLine
 10
286.885860
 20
284.061126
 30
0.0
 11
286.885860
 21
278.061126
 31
0.0
  0
LINE
  5
18c
100
AcDbEntity
  8
Layer_1
 62
7
100
AcDbLine
 10
286.885860
 20
278.061126
 30
0.0
 11
283.885866
 21
278.061126
 31
0.0
  0
LINE
  5
18d
100
AcDbEntity
  8
Layer_1
 62
7
100
AcDbLine
 10
283.885866
 20
258.061166
 30
0.0
 11
283.885866
 21
264.061166
 31
0.0
  0
LINE
  5
18e
100
AcDbEntity
  8
Layer_1
 62
7
100
AcDbLine
 10
283.885866
 20
264.061166
 30
0.0
 11
286.885860
 21
264.061166
 31
0.0
  0
LINE
  5
18f
100
AcDbEntity
  8
Layer_1
 62
7
100
AcDbLine
 10
286.885860
 20
264.061166
 30
0.0
 11
286.885860
 21
258.061166
 31
0.0
  0
LINE
  5
190
100
AcDbEntity
  8
Layer_1
 62
7
100
AcDbLine
 10
286.885860
 20
258.061166
 30
0.0
 11
283.885866
 21
258.061166
 31
0.0
  0
LINE
  5
191
100
AcDbEntity
  8
Layer_1
 62
7
100
AcDbLine
 10
283.885866
 20
238.061206
 30
0.0
 11
283.885866
 21
244.061209
 31
0.0
  0
LINE
  5
192
100
AcDbEntity
  8
Layer_1
 62
7
100
AcDbLine
 10
283.885866
 20
244.061209
 30
0.0
 11
286.885860
 21
244.061209
 31
0.0
  0
LINE
  5
193
100
AcDbEntity
  8
Layer_1
 62
7
100
AcDbLine
 10
286.885860
 20
244.061209
 30
0.0
 11
286.885860
 21
238.061206
 31
0.0
  0
LINE
  5
194
100
AcDbEntity
  8
Layer_1
 62
7
100
AcDbLine
 10
286.885860
 20
238.061206
 30
0.0
 11
283.885866
 21
238.061206
 31
0.0
  0
LINE
  5
195
100
AcDbEntity
  8
Layer_1
 62
7
100
AcDbLine
 10
283.885866
 20
218.061249
 30
0.0
 11
283.885866
 21
224.061249
 31
0.0
  0
LINE
  5
196
100
AcDbEntity
  8
Layer_1
 62
7
100
AcDbLine
 10
283.885866
 20
224.061249
 30
0.0
 11
286.885860
 21
224.061249
 31
0.0
  0
LINE
  5
197
100
AcDbEntity
  8
Layer_1
 62
7
100
AcDbLine
 10
286.885860
 20
224.061249
 30
0.0
 11
286.885860
 21
218.061249
 31
0.0
  0
LINE
  5
198
100
AcDbEntity
  8
Layer_1
 62
7
100
AcDbLine
 10
286.885860
 20
218.061249
 30
0.0
 11
283.885866
 21
218.061249
 31
0.0
  0
SPLINE
  5
199
100
AcDbEntity
  8
Layer_1
 62
7
100
AcDbSpline
 70
8
 71
3
 72
8
 73
4
 74
0
 40
0
 40
0
 40
0
 40
0
 40
1
 40
1
 40
1
 40
1
 10
308.374095
 20
231.061222
 30
0.0
 10
308.374095
 20
229.410840
 30
0.0
 10
307.036196
 20
228.072942
 30
0.0
 10
305.385814
 20
228.072942
 30
0.0
  0
SPLINE
  5
19a
100
AcDbEntity
  8
Layer_1
 62
7
100
AcDbSpline
 70
8
 71
3
 72
8
 73
4
 74
0
 40
0
 40
0
 40
0
 40
0
 40
1
 40
1
 40
1
 40
1
 10
305.385814
 20
228.072942
 30
0.0
 10
303.735433
 20
228.072942
 30
0.0
 10
302.397533
 20
229.410840
 30
0.0
 10
302.397533
 20
231.061222
 30
0.0
  0
SPLINE
  5
19b
100
AcDbEntity
  8
Layer_1
 62
7
100
AcDbSpline
 70
8
 71
3
 72
8
 73
4
 74
0
 40
0
 40
0
 40
0
 40
0
 40
1
 40
1
 40
1
 40
1
 10
302.397533
 20
231.061222
 30
0.0
 10
302.397533
 20
232.711605
 30
0.0
 10
303.735433
 20
234.049503
 30
0.0
 10
305.385814
 20
234.049503
 30
0.0
  0
SPLINE
  5
19c
100
AcDbEntity
  8
Layer_1
 62
7
100
AcDbSpline
 70
8
 71
3
 72
8
 73
4
 74
0
 40
0
 40
0
 40
0
 40
0
 40
1
 40
1
 40
1
 40
1
 10
305.385814
 20
234.049503
 30
0.0
 10
307.036196
 20
234.049503
 30
0.0
 10
308.374095
 20
232.711605
 30
0.0
 10
308.374095
 20
231.061222
 30
0.0
  0
LINE
  5
19d
100
AcDbEntity
  8
Layer_1
 62
7
100
AcDbLine
 10
308.374095
 20
231.061222
 30
0.0
 11
308.374095
 21
231.061222
 31
0.0
  0
SPLINE
  5
19e
100
AcDbEntity
  8
Layer_1
 62
7
100
AcDbSpline
 70
8
 71
3
 72
8
 73
4
 74
0
 40
0
 40
0
 40
0
 40
0
 40
1
 40
1
 40
1
 40
1
 10
308.374095
 20
251.061182
 30
0.0
 10
308.374095
 20
249.410800
 30
0.0
 10
307.036196
 20
248.072902
 30
0.0
 10
305.385814
 20
248.072902
 30
0.0
  0
SPLINE
  5
19f
100
AcDbEntity
  8
Layer_1
 62
7
100
AcDbSpline
 70
8
 71
3
 72
8
 73
4
 74
0
 40
0
 40
0
 40
0
 40
0
 40
1
 40
1
 40
1
 40
1
 10
305.385814
 20
248.072902
 30
0.0
 10
303.735433
 20
248.072902
 30
0.0
 10
302.397533
 20
249.410800
 30
0.0
 10
302.397533
 20
251.061182
 30
0.0
  0
SPLINE
  5
1a0
100
AcDbEntity
  8
Layer_1
 62
7
100
AcDbSpline
 70
8
 71
3
 72
8
 73
4
 74
0
 40
0
 40
0
 40
0
 40
0
 40
1
 40
1
 40
1
 40
1
 10
302.397533
 20
251.061182
 30
0.0
 10
302.397533
 20
252.711565
 30
0.0
 10
303.735433
 20
254.049463
 30
0.0
 10
305.385814
 20
254.049463
 30
0.0
  0
SPLINE
  5
1a1
100
AcDbEntity
  8
Layer_1
 62
7
100
AcDbSpline
 70
8
 71
3
 72
8
 73
4
 74
0
 40
0
 40
0
 40
0
 40
0
 40
1
 40
1
 40
1
 40
1
 10
305.385814
 20
254.049463
 30
0.0
 10
307.036196
 20
254.049463
 30
0.0
 10
308.374095
 20
252.711565
 30
0.0
 10
308.374095
 20
251.061182
 30
0.0
  0
LINE
  5
1a2
100
AcDbEntity
  8
Layer_1
 62
7
100
AcDbLine
 10
308.374095
 20
251.061182
 30
0.0
 11
308.374095
 21
251.061182
 31
0.0
  0
SPLINE
  5
1a3
100
AcDbEntity
  8
Layer_1
 62
7
100
AcDbSpline
 70
8
 71
3
 72
8
 73
4
 74
0
 40
0
 40
0
 40
0
 40
0
 40
1
 40
1
 40
1
 40
1
 10
308.374095
 20
271.061142
 30
0.0
 10
308.374095
 20
269.410760
 30
0.0
 10
307.036196
 20
268.072862
 30
0.0
 10
305.385814
 20
268.072862
 30
0.0
  0
SPLINE
  5
1a4
100
AcDbEntity
  8
Layer_1
 62
7
100
AcDbSpline
 70
8
 71
3
 72
8
 73
4
 74
0
 40
0
 40
0
 40
0
 40
0
 40
1
 40
1
 40
1
 40
1
 10
305.385814
 20
268.072862
 30
0.0
 10
303.735433
 20
268.072862
 30
0.0
 10
302.397533
 20
269.410760
 30
0.0
 10
302.397533
 20
271.061142
 30
0.0
  0
SPLINE
  5
1a5
100
AcDbEntity
  8
Layer_1
 62
7
100
AcDbSpline
 70
8
 71
3
 72
8
 73
4
 74
0
 40
0
 40
0
 40
0
 40
0
 40
1
 40
1
 40
1
 40
1
 10
302.397533
 20
271.061142
 30
0.0
 10
302.397533
 20
272.711525
 30
0.0
 10
303.735433
 20
274.049423
 30
0.0
 10
305.385814
 20
274.049423
 30
0.0
  0
SPLINE
  5
1a6
100
AcDbEntity
  8
Layer_1
 62
7
100
AcDbSpline
 70
8
 71
3
 72
8
 73
4
 74
0
 40
0
 40
0
 40
0
 40
0
 40
1
 40
1
 40
1
 40
1
 10
305.385814
 20
274.049423
 30
0.0
 10
307.036196
 20
274.049423
 30
0.0
 10
308.374095
 20
272.711525
 30
0.0
 10
308.374095
 20
271.061142
 30
0.0
  0
LINE
  5
1a7
100
AcDbEntity
  8
Layer_1
 62
7
100
AcDbLine
 10
308.374095
 20
271.061142
 30
0.0
 11
308.374095
 21
271.061142
 31
0.0
  0
LINE
  5
1a8
100
AcDbEntity
  8
Layer_1
 62
7
100
AcDbLine
 10
303.885798
 20
278.061126
 30
0.0
 11
303.885798
 21
284.061126
 31
0.0
  0
LINE
  5
1a9
100
AcDbEntity
  8
Layer_1
 62
7
100
AcDbLine
 10
303.885798
 20
284.061126
 30
0.0
 11
306.885820
 21
284.061126
 31
0.0
  0
LINE
  5
1aa
100
AcDbEntity
  8
Layer_1
 62
7
100
AcDbLine
 10
306.885820
 20
284.061126
 30
0.0
 11
306.885820
 21
278.061126
 31
0.0
  0
LINE
  5
1ab
100
AcDbEntity
  8
Layer_1
 62
7
100
AcDbLine
 10
306.885820
 20
278.061126
 30
0.0
 11
303.885798
 21
278.061126
 31
0.0
  0
LINE
  5
1ac
100
AcDbEntity
  8
Layer_1
 62
7
100
AcDbLine
 10
303.885798
 20
258.061166
 30
0.0
 11
303.885798
 21
264.061166
 31
0.0
  0
LINE
  5
1ad
100
AcDbEntity
  8
Layer_1
 62
7
100
AcDbLine
 10
303.885798
 20
264.061166
 30
0.0
 11
306.885820
 21
264.061166
 31
0.0
  0
LINE
  5
1ae
100
AcDbEntity
  8
Layer_1
 62
7
100
AcDbLine
 10
306.885820
 20
264.061166
 30
0.0
 11
306.885820
 21
258.061166
 31
0.0
  0
LINE
  5
1af
100
AcDbEntity
  8
Layer_1
 62
7
100
AcDbLine
 10
306.885820
 20
258.061166
 30
0.0
 11
303.885798
 21
258.061166
 31
0.0
  0
LINE
  5
1b0
100
AcDbEntity
  8
Layer_1
 62
7
100
AcDbLine
 10
303.885798
 20
238.061206
 30
0.0
 11
303.885798
 21
244.061209
 31
0.0
  0
LINE
  5
1b1
100
AcDbEntity
  8
Layer_1
 62
7
100
AcDbLine
 10
303.885798
 20
244.061209
 30
0.0
 11
306.885820
 21
244.061209
 31
0.0
  0
LINE
  5
1b2
100
AcDbEntity
  8
Layer_1
 62
7
100
AcDbLine
 10
306.885820
 20
244.061209
 30
0.0
 11
306.885820
 21
238.061206
 31
0.0
  0
LINE
  5
1b3
100
AcDbEntity
  8
Layer_1
 62
7
100
AcDbLine
 10
306.885820
 20
238.061206
 30
0.0
 11
303.885798
 21
238.061206
 31
0.0
  0
LINE
  5
1b4
100
AcDbEntity
  8
Layer_1
 62
7
100
AcDbLine
 10
303.885798
 20
218.061249
 30
0.0
 11
303.885798
 21
224.061249
 31
0.0
  0
LINE
  5
1b5
100
AcDbEntity
  8
Layer_1
 62
7
100
AcDbLine
 10
303.885798
 20
224.061249
 30
0.0
 11
306.885820
 21
224.061249
 31
0.0
  0
LINE
  5
1b6
100
AcDbEntity
  8
Layer_1
 62
7
100
AcDbLine
 10
306.885820
 20
224.061249
 30
0.0
 11
306.885820
 21
218.061249
 31
0.0
  0
LINE
  5
1b7
100
AcDbEntity
  8
Layer_1
 62
7
100
AcDbLine
 10
306.885820
 20
218.061249
 30
0.0
 11
303.885798
 21
218.061249
 31
0.0
  0
LINE
  5
1b8
100
AcDbEntity
  8
Layer_1
 62
7
100
AcDbLine
 10
292.385835
 20
272.561147
 30
0.0
 11
298.385851
 21
272.561147
 31
0.0
  0
LINE
  5
1b9
100
AcDbEntity
  8
Layer_1
 62
7
100
AcDbLine
 10
298.385851
 20
272.561147
 30
0.0
 11
298.385851
 21
269.561147
 31
0.0
  0
LINE
  5
1ba
100
AcDbEntity
  8
Layer_1
 62
7
100
AcDbLine
 10
298.385851
 20
269.561147
 30
0.0
 11
292.385835
 21
269.561147
 31
0.0
  0
LINE
  5
1bb
100
AcDbEntity
  8
Layer_1
 62
7
100
AcDbLine
 10
292.385835
 20
269.561147
 30
0.0
 11
292.385835
 21
272.561147
 31
0.0
  0
LINE
  5
1bc
100
AcDbEntity
  8
Layer_1
 62
7
100
AcDbLine
 10
292.385835
 20
252.561189
 30
0.0
 11
298.385851
 21
252.561189
 31
0.0
  0
LINE
  5
1bd
100
AcDbEntity
  8
Layer_1
 62
7
100
AcDbLine
 10
298.385851
 20
252.561189
 30
0.0
 11
298.385851
 21
249.561189
 31
0.0
  0
LINE
  5
1be
100
AcDbEntity
  8
Layer_1
 62
7
100
AcDbLine
 10
298.385851
 20
249.561189
 30
0.0
 11
292.385835
 21
249.561189
 31
0.0
  0
LINE
  5
1bf
100
AcDbEntity
  8
Layer_1
 62
7
100
AcDbLine
 10
292.385835
 20
249.561189
 30
0.0
 11
292.385835
 21
252.561189
 31
0.0
  0
LINE
  5
1c0
100
AcDbEntity
  8
Layer_1
 62
7
100
AcDbLine
 10
292.385835
 20
232.561229
 30
0.0
 11
298.385851
 21
232.561229
 31
0.0
  0
LINE
  5
1c1
100
AcDbEntity
  8
Layer_1
 62
7
100
AcDbLine
 10
298.385851
 20
232.561229
 30
0.0
 11
298.385851
 21
229.561229
 31
0.0
  0
LINE
  5
1c2
100
AcDbEntity
  8
Layer_1
 62
7
100
AcDbLine
 10
298.385851
 20
229.561229
 30
0.0
 11
292.385835
 21
229.561229
 31
0.0
  0
LINE
  5
1c3
100
AcDbEntity
  8
Layer_1
 62
7
100
AcDbLine
 10
292.385835
 20
229.561229
 30
0.0
 11
292.385835
 21
232.561229
 31
0.0
  0
LINE
  5
1c4
100
AcDbEntity
  8
Layer_1
 62
7
100
AcDbLine
 10
354.432870
 20
236.060096
 30
0.0
 11
357.484398
 21
236.060096
 31
0.0
  0
LINE
  5
1c5
100
AcDbEntity
  8
Layer_1
 62
7
100
AcDbLine
 10
357.484398
 20
236.060096
 30
0.0
 11
357.484398
 21
234.058082
 31
0.0
  0
LINE
  5
1c6
100
AcDbEntity
  8
Layer_1
 62
7
100
AcDbLine
 10
357.484398
 20
234.058082
 30
0.0
 11
377.486898
 21
234.058082
 31
0.0
  0
LINE
  5
1c7
100
AcDbEntity
  8
Layer_1
 62
7
100
AcDbLine
 10
377.486898
 20
234.058082
 30
0.0
 11
377.486898
 21
236.060096
 31
0.0
  0
LINE
  5
1c8
100
AcDbEntity
  8
Layer_1
 62
7
100
AcDbLine
 10
377.486898
 20
236.060096
 30
0.0
 11
380.529620
 21
236.060096
 31
0.0
  0
LINE
  5
1c9
100
AcDbEntity
  8
Layer_1
 62
7
100
AcDbLine
 10
380.529620
 20
236.060096
 30
0.0
 11
380.529620
 21
242.057318
 31
0.0
  0
LINE
  5
1ca
100
AcDbEntity
  8
Layer_1
 62
7
100
AcDbLine
 10
380.529620
 20
242.057318
 30
0.0
 11
377.486898
 21
242.057318
 31
0.0
  0
LINE
  5
1cb
100
AcDbEntity
  8
Layer_1
 62
7
100
AcDbLine
 10
377.486898
 20
242.057318
 30
0.0
 11
377.486898
 21
256.062596
 31
0.0
  0
LINE
  5
1cc
100
AcDbEntity
  8
Layer_1
 62
7
100
AcDbLine
 10
377.486898
 20
256.062596
 30
0.0
 11
380.529620
 21
256.062596
 31
0.0
  0
LINE
  5
1cd
100
AcDbEntity
  8
Layer_1
 62
7
100
AcDbLine
 10
380.529620
 20
256.062596
 30
0.0
 11
380.529620
 21
262.059818
 31
0.0
  0
LINE
  5
1ce
100
AcDbEntity
  8
Layer_1
 62
7
100
AcDbLine
 10
380.529620
 20
262.059818
 30
0.0
 11
377.486898
 21
262.059818
 31
0.0
  0
LINE
  5
1cf
100
AcDbEntity
  8
Layer_1
 62
7
100
AcDbLine
 10
377.486898
 20
262.059818
 30
0.0
 11
377.486898
 21
276.065096
 31
0.0
  0
LINE
  5
1d0
100
AcDbEntity
  8
Layer_1
 62
7
100
AcDbLine
 10
377.486898
 20
276.065096
 30
0.0
 11
380.529620
 21
276.065096
 31
0.0
  0
LINE
  5
1d1
100
AcDbEntity
  8
Layer_1
 62
7
100
AcDbLine
 10
380.529620
 20
276.065096
 30
0.0
 11
380.529620
 21
282.062318
 31
0.0
  0
LINE
  5
1d2
100
AcDbEntity
  8
Layer_1
 62
7
100
AcDbLine
 10
380.529620
 20
282.062318
 30
0.0
 11
377.486898
 21
282.062318
 31
0.0
  0
LINE
  5
1d3
100
AcDbEntity
  8
Layer_1
 62
7
100
AcDbLine
 10
377.486898
 20
282.062318
 30
0.0
 11
377.486898
 21
284.064332
 31
0.0
  0
LINE
  5
1d4
100
AcDbEntity
  8
Layer_1
 62
7
100
AcDbLine
 10
377.486898
 20
284.064332
 30
0.0
 11
357.484398
 21
284.064332
 31
0.0
  0
LINE
  5
1d5
100
AcDbEntity
  8
Layer_1
 62
7
100
AcDbLine
 10
357.484398
 20
284.064332
 30
0.0
 11
357.484398
 21
282.062318
 31
0.0
  0
LINE
  5
1d6
100
AcDbEntity
  8
Layer_1
 62
7
100
AcDbLine
 10
357.484398
 20
282.062318
 30
0.0
 11
354.432870
 21
282.062318
 31
0.0
  0
LINE
  5
1d7
100
AcDbEntity
  8
Layer_1
 62
7
100
AcDbLine
 10
354.432870
 20
282.062318
 30
0.0
 11
354.432870
 21
276.065096
 31
0.0
  0
LINE
  5
1d8
100
AcDbEntity
  8
Layer_1
 62
7
100
AcDbLine
 10
354.432870
 20
276.065096
 30
0.0
 11
357.484398
 21
276.065096
 31
0.0
  0
LINE
  5
1d9
100
AcDbEntity
  8
Layer_1
 62
7
100
AcDbLine
 10
357.484398
 20
276.065096
 30
0.0
 11
357.484398
 21
262.059818
 31
0.0
  0
LINE
  5
1da
100
AcDbEntity
  8
Layer_1
 62
7
100
AcDbLine
 10
357.484398
 20
262.059818
 30
0.0
 11
354.432870
 21
262.059818
 31
0.0
  0
LINE
  5
1db
100
AcDbEntity
  8
Layer_1
 62
7
100
AcDbLine
 10
354.432870
 20
262.059818
 30
0.0
 11
354.432870
 21
256.062596
 31
0.0
  0
LINE
  5
1dc
100
AcDbEntity
  8
Layer_1
 62
7
100
AcDbLine
 10
354.432870
 20
256.062596
 30
0.0
 11
357.484398
 21
256.062596
 31
0.0
  0
LINE
  5
1dd
100
AcDbEntity
  8
Layer_1
 62
7
100
AcDbLine
 10
357.484398
 20
256.062596
 30
0.0
 11
357.484398
 21
242.057318
 31
0.0
  0
LINE
  5
1de
100
AcDbEntity
  8
Layer_1
 62
7
100
AcDbLine
 10
357.484398
 20
242.057318
 30
0.0
 11
354.432870
 21
242.057318
 31
0.0
  0
LINE
  5
1df
100
AcDbEntity
  8
Layer_1
 62
7
100
AcDbLine
 10
354.432870
 20
242.057318
 30
0.0
 11
354.432870
 21
236.060096
 31
0.0
  0
LINE
  5
1e0
100
AcDbEntity
  8
Layer_1
 62
7
100
AcDbLine
 10
354.432870
 20
236.060096
 30
0.0
 11
354.432870
 21
236.060096
 31
0.0
  0
LINE
  5
1e1
100
AcDbEntity
  8
Layer_1
 62
7
100
AcDbLine
 10
324.432930
 20
236.060096
 30
0.0
 11
327.484458
 21
236.060096
 31
0.0
  0
LINE
  5
1e2
100
AcDbEntity
  8
Layer_1
 62
7
100
AcDbLine
 10
327.484458
 20
236.060096
 30
0.0
 11
327.484458
 21
234.058082
 31
0.0
  0
LINE
  5
1e3
100
AcDbEntity
  8
Layer_1
 62
7
100
AcDbLine
 10
327.484458
 20
234.058082
 30
0.0
 11
347.486958
 21
234.058082
 31
0.0
  0
LINE
  5
1e4
100
AcDbEntity
  8
Layer_1
 62
7
100
AcDbLine
 10
347.486958
 20
234.058082
 30
0.0
 11
347.486958
 21
236.060096
 31
0.0
  0
LINE
  5
1e5
100
AcDbEntity
  8
Layer_1
 62
7
100
AcDbLine
 10
347.486958
 20
236.060096
 30
0.0
 11
350.529680
 21
236.060096
 31
0.0
  0
LINE
  5
1e6
100
AcDbEntity
  8
Layer_1
 62
7
100
AcDbLine
 10
350.529680
 20
236.060096
 30
0.0
 11
350.529680
 21
242.057318
 31
0.0
  0
LINE
  5
1e7
100
AcDbEntity
  8
Layer_1
 62
7
100
AcDbLine
 10
350.529680
 20
242.057318
 30
0.0
 11
347.486958
 21
242.057318
 31
0.0
  0
LINE
  5
1e8
100
AcDbEntity
  8
Layer_1
 62
7
100
AcDbLine
 10
347.486958
 20
242.057318
 30
0.0
 11
347.486958
 21
256.062596
 31
0.0
  0
LINE
  5
1e9
100
AcDbEntity
  8
Layer_1
 62
7
100
AcDbLine
 10
347.486958
 20
256.062596
 30
0.0
 11
350.529680
 21
256.062596
 31
0.0
  0
LINE
  5
1ea
100
AcDbEntity
  8
Layer_1
 62
7
100
AcDbLine
 10
350.529680
 20
256.062596
 30
0.0
 11
350.529680
 21
262.059818
 31
0.0
  0
LINE
  5
1eb
100
AcDbEntity
  8
Layer_1
 62
7
100
AcDbLine
 10
350.529680
 20
262.059818
 30
0.0
 11
347.486958
 21
262.059818
 31
0.0
  0
LINE
  5
1ec
100
AcDbEntity
  8
Layer_1
 62
7
100
AcDbLine
 10
347.486958
 20
262.059818
 30
0.0
 11
347.486958
 21
276.065096
 31
0.0
  0
LINE
  5
1ed
100
AcDbEntity
  8
Layer_1
 62
7
100
AcDbLine
 10
347.486958
 20
276.065096
 30
0.0
 11
350.529680
 21
276.065096
 31
0.0
  0
LINE
  5
1ee
100
AcDbEntity
  8
Layer_1
 62
7
100
AcDbLine
 10
350.529680
 20
276.065096
 30
0.0
 11
350.529680
 21
282.062318
 31
0.0
  0
LINE
  5
1ef
100
AcDbEntity
  8
Layer_1
 62
7
100
AcDbLine
 10
350.529680
 20
282.062318
 30
0.0
 11
347.486958
 21
282.062318
 31
0.0
  0
LINE
  5
1f0
100
AcDbEntity
  8
Layer_1
 62
7
100
AcDbLine
 10
347.486958
 20
282.062318
 30
0.0
 11
347.486958
 21
284.064332
 31
0.0
  0
LINE
  5
1f1
100
AcDbEntity
  8
Layer_1
 62
7
100
AcDbLine
 10
347.486958
 20
284.064332
 30
0.0
 11
327.484458
 21
284.064332
 31
0.0
  0
LINE
  5
1f2
100
AcDbEntity
  8
Layer_1
 62
7
100
AcDbLine
 10
327.484458
 20
284.064332
 30
0.0
 11
327.484458
 21
282.062318
 31
0.0
  0
LINE
  5
1f3
100
AcDbEntity
  8
Layer_1
 62
7
100
AcDbLine
 10
327.484458
 20
282.062318
 30
0.0
 11
324.432930
 21
282.062318
 31
0.0
  0
LINE
  5
1f4
100
AcDbEntity
  8
Layer_1
 62
7
100
AcDbLine
 10
324.432930
 20
282.062318
 30
0.0
 11
324.432930
 21
276.065096
 31
0.0
  0
LINE
  5
1f5
100
AcDbEntity
  8
Layer_1
 62
7
100
AcDbLine
 10
324.432930
 20
276.065096
 30
0.0
 11
327.484458
 21
276.065096
 31
0.0
  0
LINE
  5
1f6
100
AcDbEntity
  8
Layer_1
 62
7
100
AcDbLine
 10
327.484458
 20
276.065096
 30
0.0
 11
327.484458
 21
262.059818
 31
0.0
  0
LINE
  5
1f7
100
AcDbEntity
  8
Layer_1
 62
7
100
AcDbLine
 10
327.484458
 20
262.059818
 30
0.0
 11
324.432930
 21
262.059818
 31
0.0
  0
LINE
  5
1f8
100
AcDbEntity
  8
Layer_1
 62
7
100
AcDbLine
 10
324.432930
 20
262.059818
 30
0.0
 11
324.432930
 21
256.062596
 31
0.0
  0
LINE
  5
1f9
100
AcDbEntity
  8
Layer_1
 62
7
100
AcDbLine
 10
324.432930
 20
256.062596
 30
0.0
 11
327.484458
 21
256.062596
 31
0.0
  0
LINE
  5
1fa
100
AcDbEntity
  8
Layer_1
 62
7
100
AcDbLine
 10
327.484458
 20
256.062596
 30
0.0
 11
327.484458
 21
242.057318
 31
0.0
  0
LINE
  5
1fb
100
AcDbEntity
  8
Layer_1
 62
7
100
AcDbLine
 10
327.484458
 20
242.057318
 30
0.0
 11
324.432930
 21
242.057318
 31
0.0
  0
LINE
  5
1fc
100
AcDbEntity
  8
Layer_1
 62
7
100
AcDbLine
 10
324.432930
 20
242.057318
 30
0.0
 11
324.432930
 21
236.060096
 31
0.0
  0
LINE
  5
1fd
100
AcDbEntity
  8
Layer_1
 62
7
100
AcDbLine
 10
324.432930
 20
236.060096
 30
0.0
 11
324.432930
 21
236.060096
 31
0.0
  0
LINE
  5
1fe
100
AcDbEntity
  8
Layer_1
 62
7
100
AcDbLine
 10
284.385766
 20
177.061424
 30
0.0
 11
386.385760
 21
177.061424
 31
0.0
  0
SPLINE
  5
1ff
100
AcDbEntity
  8
Layer_1
 62
7
100
AcDbSpline
 70
8
 71
3
 72
8
 73
4
 74
0
 40
0
 40
0
 40
0
 40
0
 40
1
 40
1
 40
1
 40
1
 10
386.385760
 20
177.061424
 30
0.0
 10
389.155771
 20
177.061424
 30
0.0
 10
391.385750
 20
174.831423
 30
0.0
 10
391.385750
 20
172.061423
 30
0.0
  0
LINE
  5
200
100
AcDbEntity
  8
Layer_1
 62
7
100
AcDbLine
 10
391.385750
 20
172.061423
 30
0.0
 11
391.385750
 21
90.061423
 31
0.0
  0
SPLINE
  5
201
100
AcDbEntity
  8
Layer_1
 62
7
100
AcDbSpline
 70
8
 71
3
 72
8
 73
4
 74
0
 40
0
 40
0
 40
0
 40
0
 40
1
 40
1
 40
1
 40
1
 10
391.385750
 20
90.061423
 30
0.0
 10
391.385750
 20
87.291424
 30
0.0
 10
389.155771
 20
85.061422
 30
0.0
 10
386.385760
 20
85.061422
 30
0.0
  0
LINE
  5
202
100
AcDbEntity
  8
Layer_1
 62
7
100
AcDbLine
 10
386.385760
 20
85.061422
 30
0.0
 11
284.385766
 21
85.061422
 31
0.0
  0
SPLINE
  5
203
100
AcDbEntity
  8
Layer_1
 62
7
100
AcDbSpline
 70
8
 71
3
 72
8
 73
4
 74
0
 40
0
 40
0
 40
0
 40
0
 40
1
 40
1
 40
1
 40
1
 10
284.385766
 20
85.061422
 30
0.0
 10
281.615755
 20
85.061422
 30
0.0
 10
279.385753
 20
87.291424
 30
0.0
 10
279.385753
 20
90.061423
 30
0.0
  0
LINE
  5
204
100
AcDbEntity
  8
Layer_1
 62
7
100
AcDbLine
 10
279.385753
 20
90.061423
 30
0.0
 11
279.385753
 21
172.061423
 31
0.0
  0
SPLINE
  5
205
100
AcDbEntity
  8
Layer_1
 62
7
100
AcDbSpline
 70
8
 71
3
 72
8
 73
4
 74
0
 40
0
 40
0
 40
0
 40
0
 40
1
 40
1
 40
1
 40
1
 10
279.385753
 20
172.061423
 30
0.0
 10
279.385753
 20
174.831423
 30
0.0
 10
281.615755
 20
177.061424
 30
0.0
 10
284.385766
 20
177.061424
 30
0.0
  0
LINE
  5
206
100
AcDbEntity
  8
Layer_1
 62
7
100
AcDbLine
 10
284.385766
 20
177.061424
 30
0.0
 11
284.385766
 21
177.061424
 31
0.0
  0
SPLINE
  5
207
100
AcDbEntity
  8
Layer_1
 62
7
100
AcDbSpline
 70
8
 71
3
 72
8
 73
4
 74
0
 40
0
 40
0
 40
0
 40
0
 40
1
 40
1
 40
1
 40
1
 10
288.374136
 20
171.061342
 30
0.0
 10
288.374136
 20
169.410960
 30
0.0
 10
287.036238
 20
168.073062
 30
0.0
 10
285.385855
 20
168.073062
 30
0.0
  0
SPLINE
  5
208
100
AcDbEntity
  8
Layer_1
 62
7
100
AcDbSpline
 70
8
 71
3
 72
8
 73
4
 74
0
 40
0
 40
0
 40
0
 40
0
 40
1
 40
1
 40
1
 40
1
 10
285.385855
 20
168.073062
 30
0.0
 10
283.735474
 20
168.073062
 30
0.0
 10
282.397575
 20
169.410960
 30
0.0
 10
282.397575
 20
171.061342
 30
0.0
  0
SPLINE
  5
209
100
AcDbEntity
  8
Layer_1
 62
7
100
AcDbSpline
 70
8
 71
3
 72
8
 73
4
 74
0
 40
0
 40
0
 40
0
 40
0
 40
1
 40
1
 40
1
 40
1
 10
282.397575
 20
171.061342
 30
0.0
 10
282.397575
 20
172.711725
 30
0.0
 10
283.735474
 20
174.049623
 30
0.0
 10
285.385855
 20
174.049623
 30
0.0
  0
SPLINE
  5
20a
100
AcDbEntity
  8
Layer_1
 62
7
100
AcDbSpline
 70
8
 71
3
 72
8
 73
4
 74
0
 40
0
 40
0
 40
0
 40
0
 40
1
 40
1
 40
1
 40
1
 10
285.385855
 20
174.049623
 30
0.0
 10
287.036238
 20
174.049623
 30
0.0
 10
288.374136
 20
172.711725
 30
0.0
 10
288.374136
 20
171.061342
 30
0.0
  0
LINE
  5
20b
100
AcDbEntity
  8
Layer_1
 62
7
100
AcDbLine
 10
288.374136
 20
171.061342
 30
0.0
 11
288.374136
 21
171.061342
 31
0.0
  0
SPLINE
  5
20c
100
AcDbEntity
  8
Layer_1
 62
7
100
AcDbSpline
 70
8
 71
3
 72
8
 73
4
 74
0
 40
0
 40
0
 40
0
 40
0
 40
1
 40
1
 40
1
 40
1
 10
308.374096
 20
171.061342
 30
0.0
 10
308.374096
 20
169.410960
 30
0.0
 10
307.036198
 20
168.073062
 30
0.0
 10
305.385815
 20
168.073062
 30
0.0
  0
SPLINE
  5
20d
100
AcDbEntity
  8
Layer_1
 62
7
100
AcDbSpline
 70
8
 71
3
 72
8
 73
4
 74
0
 40
0
 40
0
 40
0
 40
0
 40
1
 40
1
 40
1
 40
1
 10
305.385815
 20
168.073062
 30
0.0
 10
303.735434
 20
168.073062
 30
0.0
 10
302.397535
 20
169.410960
 30
0.0
 10
302.397535
 20
171.061342
 30
0.0
  0
SPLINE
  5
20e
100
AcDbEntity
  8
Layer_1
 62
7
100
AcDbSpline
 70
8
 71
3
 72
8
 73
4
 74
0
 40
0
 40
0
 40
0
 40
0
 40
1
 40
1
 40
1
 40
1
 10
302.397535
 20
171.061342
 30
0.0
 10
302.397535
 20
172.711725
 30
0.0
 10
303.735434
 20
174.049623
 30
0.0
 10
305.385815
 20
174.049623
 30
0.0
  0
SPLINE
  5
20f
100
AcDbEntity
  8
Layer_1
 62
7
100
AcDbSpline
 70
8
 71
3
 72
8
 73
4
 74
0
 40
0
 40
0
 40
0
 40
0
 40
1
 40
1
 40
1
 40
1
 10
305.385815
 20
174.049623
 30
0.0
 10
307.036198
 20
174.049623
 30
0.0
 10
308.374096
 20
172.711725
 30
0.0
 10
308.374096
 20
171.061342
 30
0.0
  0
LINE
  5
210
100
AcDbEntity
  8
Layer_1
 62
7
100
AcDbLine
 10
308.374096
 20
171.061342
 30
0.0
 11
308.374096
 21
171.061342
 31
0.0
  0
SPLINE
  5
211
100
AcDbEntity
  8
Layer_1
 62
7
100
AcDbSpline
 70
8
 71
3
 72
8
 73
4
 74
0
 40
0
 40
0
 40
0
 40
0
 40
1
 40
1
 40
1
 40
1
 10
328.374056
 20
171.061342
 30
0.0
 10
328.374056
 20
169.410960
 30
0.0
 10
327.036158
 20
168.073062
 30
0.0
 10
325.385775
 20
168.073062
 30
0.0
  0
SPLINE
  5
212
100
AcDbEntity
  8
Layer_1
 62
7
100
AcDbSpline
 70
8
 71
3
 72
8
 73
4
 74
0
 40
0
 40
0
 40
0
 40
0
 40
1
 40
1
 40
1
 40
1
 10
325.385775
 20
168.073062
 30
0.0
 10
323.735394
 20
168.073062
 30
0.0
 10
322.397495
 20
169.410960
 30
0.0
 10
322.397495
 20
171.061342
 30
0.0
  0
SPLINE
  5
213
100
AcDbEntity
  8
Layer_1
 62
7
100
AcDbSpline
 70
8
 71
3
 72
8
 73
4
 74
0
 40
0
 40
0
 40
0
 40
0
 40
1
 40
1
 40
1
 40
1
 10
322.397495
 20
171.061342
 30
0.0
 10
322.397495
 20
172.711725
 30
0.0
 10
323.735394
 20
174.049623
 30
0.0
 10
325.385775
 20
174.049623
 30
0.0
  0
SPLINE
  5
214
100
AcDbEntity
  8
Layer_1
 62
7
100
AcDbSpline
 70
8
 71
3
 72
8
 73
4
 74
0
 40
0
 40
0
 40
0
 40
0
 40
1
 40
1
 40
1
 40
1
 10
325.385775
 20
174.049623
 30
0.0
 10
327.036158
 20
174.049623
 30
0.0
 10
328.374056
 20
172.711725
 30
0.0
 10
328.374056
 20
171.061342
 30
0.0
  0
LINE
  5
215
100
AcDbEntity
  8
Layer_1
 62
7
100
AcDbLine
 10
328.374056
 20
171.061342
 30
0.0
 11
328.374056
 21
171.061342
 31
0.0
  0
SPLINE
  5
216
100
AcDbEntity
  8
Layer_1
 62
7
100
AcDbSpline
 70
8
 71
3
 72
8
 73
4
 74
0
 40
0
 40
0
 40
0
 40
0
 40
1
 40
1
 40
1
 40
1
 10
348.374016
 20
171.061342
 30
0.0
 10
348.374016
 20
169.410960
 30
0.0
 10
347.036118
 20
168.073062
 30
0.0
 10
345.385735
 20
168.073062
 30
0.0
  0
SPLINE
  5
217
100
AcDbEntity
  8
Layer_1
 62
7
100
AcDbSpline
 70
8
 71
3
 72
8
 73
4
 74
0
 40
0
 40
0
 40
0
 40
0
 40
1
 40
1
 40
1
 40
1
 10
345.385735
 20
168.073062
 30
0.0
 10
343.735354
 20
168.073062
 30
0.0
 10
342.397455
 20
169.410960
 30
0.0
 10
342.397455
 20
171.061342
 30
0.0
  0
SPLINE
  5
218
100
AcDbEntity
  8
Layer_1
 62
7
100
AcDbSpline
 70
8
 71
3
 72
8
 73
4
 74
0
 40
0
 40
0
 40
0
 40
0
 40
1
 40
1
 40
1
 40
1
 10
342.397455
 20
171.061342
 30
0.0
 10
342.397455
 20
172.711725
 30
0.0
 10
343.735354
 20
174.049623
 30
0.0
 10
345.385735
 20
174.049623
 30
0.0
  0
SPLINE
  5
219
100
AcDbEntity
  8
Layer_1
 62
7
100
AcDbSpline
 70
8
 71
3
 72
8
 73
4
 74
0
 40
0
 40
0
 40
0
 40
0
 40
1
 40
1
 40
1
 40
1
 10
345.385735
 20
174.049623
 30
0.0
 10
347.036118
 20
174.049623
 30
0.0
 10
348.374016
 20
172.711725
 30
0.0
 10
348.374016
 20
171.061342
 30
0.0
  0
LINE
  5
21a
100
AcDbEntity
  8
Layer_1
 62
7
100
AcDbLine
 10
348.374016
 20
171.061342
 30
0.0
 11
348.374016
 21
171.061342
 31
0.0
  0
SPLINE
  5
21b
100
AcDbEntity
  8
Layer_1
 62
7
100
AcDbSpline
 70
8
 71
3
 72
8
 73
4
 74
0
 40
0
 40
0
 40
0
 40
0
 40
1
 40
1
 40
1
 40
1
 10
368.373976
 20
171.061342
 30
0.0
 10
368.373976
 20
169.410960
 30
0.0
 10
367.036078
 20
168.073062
 30
0.0
 10
365.385695
 20
168.073062
 30
0.0
  0
SPLINE
  5
21c
100
AcDbEntity
  8
Layer_1
 62
7
100
AcDbSpline
 70
8
 71
3
 72
8
 73
4
 74
0
 40
0
 40
0
 40
0
 40
0
 40
1
 40
1
 40
1
 40
1
 10
365.385695
 20
168.073062
 30
0.0
 10
363.735314
 20
168.073062
 30
0.0
 10
362.397415
 20
169.410960
 30
0.0
 10
362.397415
 20
171.061342
 30
0.0
  0
SPLINE
  5
21d
100
AcDbEntity
  8
Layer_1
 62
7
100
AcDbSpline
 70
8
 71
3
 72
8
 73
4
 74
0
 40
0
 40
0
 40
0
 40
0
 40
1
 40
1
 40
1
 40
1
 10
362.397415
 20
171.061342
 30
0.0
 10
362.397415
 20
172.711725
 30
0.0
 10
363.735314
 20
174.049623
 30
0.0
 10
365.385695
 20
174.049623
 30
0.0
  0
SPLINE
  5
21e
100
AcDbEntity
  8
Layer_1
 62
7
100
AcDbSpline
 70
8
 71
3
 72
8
 73
4
 74
0
 40
0
 40
0
 40
0
 40
0
 40
1
 40
1
 40
1
 40
1
 10
365.385695
 20
174.049623
 30
0.0
 10
367.036078
 20
174.049623
 30
0.0
 10
368.373976
 20
172.711725
 30
0.0
 10
368.373976
 20
171.061342
 30
0.0
  0
LINE
  5
21f
100
AcDbEntity
  8
Layer_1
 62
7
100
AcDbLine
 10
368.373976
 20
171.061342
 30
0.0
 11
368.373976
 21
171.061342
 31
0.0
  0
SPLINE
  5
220
100
AcDbEntity
  8
Layer_1
 62
7
100
AcDbSpline
 70
8
 71
3
 72
8
 73
4
 74
0
 40
0
 40
0
 40
0
 40
0
 40
1
 40
1
 40
1
 40
1
 10
388.373936
 20
171.061342
 30
0.0
 10
388.373936
 20
169.410960
 30
0.0
 10
387.036038
 20
168.073062
 30
0.0
 10
385.385655
 20
168.073062
 30
0.0
  0
SPLINE
  5
221
100
AcDbEntity
  8
Layer_1
 62
7
100
AcDbSpline
 70
8
 71
3
 72
8
 73
4
 74
0
 40
0
 40
0
 40
0
 40
0
 40
1
 40
1
 40
1
 40
1
 10
385.385655
 20
168.073062
 30
0.0
 10
383.735274
 20
168.073062
 30
0.0
 10
382.397375
 20
169.410960
 30
0.0
 10
382.397375
 20
171.061342
 30
0.0
  0
SPLINE
  5
222
100
AcDbEntity
  8
Layer_1
 62
7
100
AcDbSpline
 70
8
 71
3
 72
8
 73
4
 74
0
 40
0
 40
0
 40
0
 40
0
 40
1
 40
1
 40
1
 40
1
 10
382.397375
 20
171.061342
 30
0.0
 10
382.397375
 20
172.711725
 30
0.0
 10
383.735274
 20
174.049623
 30
0.0
 10
385.385655
 20
174.049623
 30
0.0
  0
SPLINE
  5
223
100
AcDbEntity
  8
Layer_1
 62
7
100
AcDbSpline
 70
8
 71
3
 72
8
 73
4
 74
0
 40
0
 40
0
 40
0
 40
0
 40
1
 40
1
 40
1
 40
1
 10
385.385655
 20
174.049623
 30
0.0
 10
387.036038
 20
174.049623
 30
0.0
 10
388.373936
 20
172.711725
 30
0.0
 10
388.373936
 20
171.061342
 30
0.0
  0
LINE
  5
224
100
AcDbEntity
  8
Layer_1
 62
7
100
AcDbLine
 10
388.373936
 20
171.061342
 30
0.0
 11
388.373936
 21
171.061342
 31
0.0
  0
SPLINE
  5
225
100
AcDbEntity
  8
Layer_1
 62
7
100
AcDbSpline
 70
8
 71
3
 72
8
 73
4
 74
0
 40
0
 40
0
 40
0
 40
0
 40
1
 40
1
 40
1
 40
1
 10
288.374130
 20
91.061503
 30
0.0
 10
288.374130
 20
89.411119
 30
0.0
 10
287.036228
 20
88.073222
 30
0.0
 10
285.385849
 20
88.073222
 30
0.0
  0
SPLINE
  5
226
100
AcDbEntity
  8
Layer_1
 62
7
100
AcDbSpline
 70
8
 71
3
 72
8
 73
4
 74
0
 40
0
 40
0
 40
0
 40
0
 40
1
 40
1
 40
1
 40
1
 10
285.385849
 20
88.073222
 30
0.0
 10
283.735470
 20
88.073222
 30
0.0
 10
282.397567
 20
89.411119
 30
0.0
 10
282.397567
 20
91.061503
 30
0.0
  0
SPLINE
  5
227
100
AcDbEntity
  8
Layer_1
 62
7
100
AcDbSpline
 70
8
 71
3
 72
8
 73
4
 74
0
 40
0
 40
0
 40
0
 40
0
 40
1
 40
1
 40
1
 40
1
 10
282.397567
 20
91.061503
 30
0.0
 10
282.397567
 20
92.711885
 30
0.0
 10
283.735470
 20
94.049782
 30
0.0
 10
285.385849
 20
94.049782
 30
0.0
  0
SPLINE
  5
228
100
AcDbEntity
  8
Layer_1
 62
7
100
AcDbSpline
 70
8
 71
3
 72
8
 73
4
 74
0
 40
0
 40
0
 40
0
 40
0
 40
1
 40
1
 40
1
 40
1
 10
285.385849
 20
94.049782
 30
0.0
 10
287.036228
 20
94.049782
 30
0.0
 10
288.374130
 20
92.711885
 30
0.0
 10
288.374130
 20
91.061503
 30
0.0
  0
LINE
  5
229
100
AcDbEntity
  8
Layer_1
 62
7
100
AcDbLine
 10
288.374130
 20
91.061503
 30
0.0
 11
288.374130
 21
91.061503
 31
0.0
  0
SPLINE
  5
22a
100
AcDbEntity
  8
Layer_1
 62
7
100
AcDbSpline
 70
8
 71
3
 72
8
 73
4
 74
0
 40
0
 40
0
 40
0
 40
0
 40
1
 40
1
 40
1
 40
1
 10
308.374090
 20
91.061503
 30
0.0
 10
308.374090
 20
89.411119
 30
0.0
 10
307.036188
 20
88.073222
 30
0.0
 10
305.385809
 20
88.073222
 30
0.0
  0
SPLINE
  5
22b
100
AcDbEntity
  8
Layer_1
 62
7
100
AcDbSpline
 70
8
 71
3
 72
8
 73
4
 74
0
 40
0
 40
0
 40
0
 40
0
 40
1
 40
1
 40
1
 40
1
 10
305.385809
 20
88.073222
 30
0.0
 10
303.735430
 20
88.073222
 30
0.0
 10
302.397527
 20
89.411119
 30
0.0
 10
302.397527
 20
91.061503
 30
0.0
  0
SPLINE
  5
22c
100
AcDbEntity
  8
Layer_1
 62
7
100
AcDbSpline
 70
8
 71
3
 72
8
 73
4
 74
0
 40
0
 40
0
 40
0
 40
0
 40
1
 40
1
 40
1
 40
1
 10
302.397527
 20
91.061503
 30
0.0
 10
302.397527
 20
92.711885
 30
0.0
 10
303.735430
 20
94.049782
 30
0.0
 10
305.385809
 20
94.049782
 30
0.0
  0
SPLINE
  5
22d
100
AcDbEntity
  8
Layer_1
 62
7
100
AcDbSpline
 70
8
 71
3
 72
8
 73
4
 74
0
 40
0
 40
0
 40
0
 40
0
 40
1
 40
1
 40
1
 40
1
 10
305.385809
 20
94.049782
 30
0.0
 10
307.036188
 20
94.049782
 30
0.0
 10
308.374090
 20
92.711885
 30
0.0
 10
308.374090
 20
91.061503
 30
0.0
  0
LINE
  5
22e
100
AcDbEntity
  8
Layer_1
 62
7
100
AcDbLine
 10
308.374090
 20
91.061503
 30
0.0
 11
308.374090
 21
91.061503
 31
0.0
  0
SPLINE
  5
22f
100
AcDbEntity
  8
Layer_1
 62
7
100
AcDbSpline
 70
8
 71
3
 72
8
 73
4
 74
0
 40
0
 40
0
 40
0
 40
0
 40
1
 40
1
 40
1
 40
1
 10
328.374050
 20
91.061503
 30
0.0
 10
328.374050
 20
89.411119
 30
0.0
 10
327.036148
 20
88.073222
 30
0.0
 10
325.385769
 20
88.073222
 30
0.0
  0
SPLINE
  5
230
100
AcDbEntity
  8
Layer_1
 62
7
100
AcDbSpline
 70
8
 71
3
 72
8
 73
4
 74
0
 40
0
 40
0
 40
0
 40
0
 40
1
 40
1
 40
1
 40
1
 10
325.385769
 20
88.073222
 30
0.0
 10
323.735390
 20
88.073222
 30
0.0
 10
322.397487
 20
89.411119
 30
0.0
 10
322.397487
 20
91.061503
 30
0.0
  0
SPLINE
  5
231
100
AcDbEntity
  8
Layer_1
 62
7
100
AcDbSpline
 70
8
 71
3
 72
8
 73
4
 74
0
 40
0
 40
0
 40
0
 40
0
 40
1
 40
1
 40
1
 40
1
 10
322.397487
 20
91.061503
 30
0.0
 10
322.397487
 20
92.711885
 30
0.0
 10
323.735390
 20
94.049782
 30
0.0
 10
325.385769
 20
94.049782
 30
0.0
  0
SPLINE
  5
232
100
AcDbEntity
  8
Layer_1
 62
7
100
AcDbSpline
 70
8
 71
3
 72
8
 73
4
 74
0
 40
0
 40
0
 40
0
 40
0
 40
1
 40
1
 40
1
 40
1
 10
325.385769
 20
94.049782
 30
0.0
 10
327.036148
 20
94.049782
 30
0.0
 10
328.374050
 20
92.711885
 30
0.0
 10
328.374050
 20
91.061503
 30
0.0
  0
LINE
  5
233
100
AcDbEntity
  8
Layer_1
 62
7
100
AcDbLine
 10
328.374050
 20
91.061503
 30
0.0
 11
328.374050
 21
91.061503
 31
0.0
  0
SPLINE
  5
234
100
AcDbEntity
  8
Layer_1
 62
7
100
AcDbSpline
 70
8
 71
3
 72
8
 73
4
 74
0
 40
0
 40
0
 40
0
 40
0
 40
1
 40
1
 40
1
 40
1
 10
348.374010
 20
91.061503
 30
0.0
 10
348.374010
 20
89.411119
 30
0.0
 10
347.036108
 20
88.073222
 30
0.0
 10
345.385729
 20
88.073222
 30
0.0
  0
SPLINE
  5
235
100
AcDbEntity
  8
Layer_1
 62
7
100
AcDbSpline
 70
8
 71
3
 72
8
 73
4
 74
0
 40
0
 40
0
 40
0
 40
0
 40
1
 40
1
 40
1
 40
1
 10
345.385729
 20
88.073222
 30
0.0
 10
343.735350
 20
88.073222
 30
0.0
 10
342.397447
 20
89.411119
 30
0.0
 10
342.397447
 20
91.061503
 30
0.0
  0
SPLINE
  5
236
100
AcDbEntity
  8
Layer_1
 62
7
100
AcDbSpline
 70
8
 71
3
 72
8
 73
4
 74
0
 40
0
 40
0
 40
0
 40
0
 40
1
 40
1
 40
1
 40
1
 10
342.397447
 20
91.061503
 30
0.0
 10
342.397447
 20
92.711885
 30
0.0
 10
343.735350
 20
94.049782
 30
0.0
 10
345.385729
 20
94.049782
 30
0.0
  0
SPLINE
  5
237
100
AcDbEntity
  8
Layer_1
 62
7
100
AcDbSpline
 70
8
 71
3
 72
8
 73
4
 74
0
 40
0
 40
0
 40
0
 40
0
 40
1
 40
1
 40
1
 40
1
 10
345.385729
 20
94.049782
 30
0.0
 10
347.036108
 20
94.049782
 30
0.0
 10
348.374010
 20
92.711885
 30
0.0
 10
348.374010
 20
91.061503
 30
0.0
  0
LINE
  5
238
100
AcDbEntity
  8
Layer_1
 62
7
100
AcDbLine
 10
348.374010
 20
91.061503
 30
0.0
 11
348.374010
 21
91.061503
 31
0.0
  0
SPLINE
  5
239
100
AcDbEntity
  8
Layer_1
 62
7
100
AcDbSpline
 70
8
 71
3
 72
8
 73
4
 74
0
 40
0
 40
0
 40
0
 40
0
 40
1
 40
1
 40
1
 40
1
 10
368.373970
 20
91.061503
 30
0.0
 10
368.373970
 20
89.411119
 30
0.0
 10
367.036068
 20
88.073222
 30
0.0
 10
365.385689
 20
88.073222
 30
0.0
  0
SPLINE
  5
23a
100
AcDbEntity
  8
Layer_1
 62
7
100
AcDbSpline
 70
8
 71
3
 72
8
 73
4
 74
0
 40
0
 40
0
 40
0
 40
0
 40
1
 40
1
 40
1
 40
1
 10
365.385689
 20
88.073222
 30
0.0
 10
363.735310
 20
88.073222
 30
0.0
 10
362.397407
 20
89.411119
 30
0.0
 10
362.397407
 20
91.061503
 30
0.0
  0
SPLINE
  5
23b
100
AcDbEntity
  8
Layer_1
 62
7
100
AcDbSpline
 70
8
 71
3
 72
8
 73
4
 74
0
 40
0
 40
0
 40
0
 40
0
 40
1
 40
1
 40
1
 40
1
 10
362.397407
 20
91.061503
 30
0.0
 10
362.397407
 20
92.711885
 30
0.0
 10
363.735310
 20
94.049782
 30
0.0
 10
365.385689
 20
94.049782
 30
0.0
  0
SPLINE
  5
23c
100
AcDbEntity
  8
Layer_1
 62
7
100
AcDbSpline
 70
8
 71
3
 72
8
 73
4
 74
0
 40
0
 40
0
 40
0
 40
0
 40
1
 40
1
 40
1
 40
1
 10
365.385689
 20
94.049782
 30
0.0
 10
367.036068
 20
94.049782
 30
0.0
 10
368.373970
 20
92.711885
 30
0.0
 10
368.373970
 20
91.061503
 30
0.0
  0
LINE
  5
23d
100
AcDbEntity
  8
Layer_1
 62
7
100
AcDbLine
 10
368.373970
 20
91.061503
 30
0.0
 11
368.373970
 21
91.061503
 31
0.0
  0
SPLINE
  5
23e
100
AcDbEntity
  8
Layer_1
 62
7
100
AcDbSpline
 70
8
 71
3
 72
8
 73
4
 74
0
 40
0
 40
0
 40
0
 40
0
 40
1
 40
1
 40
1
 40
1
 10
388.373930
 20
91.061503
 30
0.0
 10
388.373930
 20
89.411119
 30
0.0
 10
387.036028
 20
88.073222
 30
0.0
 10
385.385649
 20
88.073222
 30
0.0
  0
SPLINE
  5
23f
100
AcDbEntity
  8
Layer_1
 62
7
100
AcDbSpline
 70
8
 71
3
 72
8
 73
4
 74
0
 40
0
 40
0
 40
0
 40
0
 40
1
 40
1
 40
1
 40
1
 10
385.385649
 20
88.073222
 30
0.0
 10
383.735270
 20
88.073222
 30
0.0
 10
382.397367
 20
89.411119
 30
0.0
 10
382.397367
 20
91.061503
 30
0.0
  0
SPLINE
  5
240
100
AcDbEntity
  8
Layer_1
 62
7
100
AcDbSpline
 70
8
 71
3
 72
8
 73
4
 74
0
 40
0
 40
0
 40
0
 40
0
 40
1
 40
1
 40
1
 40
1
 10
382.397367
 20
91.061503
 30
0.0
 10
382.397367
 20
92.711885
 30
0.0
 10
383.735270
 20
94.049782
 30
0.0
 10
385.385649
 20
94.049782
 30
0.0
  0
SPLINE
  5
241
100
AcDbEntity
  8
Layer_1
 62
7
100
AcDbSpline
 70
8
 71
3
 72
8
 73
4
 74
0
 40
0
 40
0
 40
0
 40
0
 40
1
 40
1
 40
1
 40
1
 10
385.385649
 20
94.049782
 30
0.0
 10
387.036028
 20
94.049782
 30
0.0
 10
388.373930
 20
92.711885
 30
0.0
 10
388.373930
 20
91.061503
 30
0.0
  0
LINE
  5
242
100
AcDbEntity
  8
Layer_1
 62
7
100
AcDbLine
 10
388.373930
 20
91.061503
 30
0.0
 11
388.373930
 21
91.061503
 31
0.0
  0
SPLINE
  5
243
100
AcDbEntity
  8
Layer_1
 62
7
100
AcDbSpline
 70
8
 71
3
 72
8
 73
4
 74
0
 40
0
 40
0
 40
0
 40
0
 40
1
 40
1
 40
1
 40
1
 10
288.374130
 20
111.061463
 30
0.0
 10
288.374130
 20
109.411079
 30
0.0
 10
287.036228
 20
108.073182
 30
0.0
 10
285.385849
 20
108.073182
 30
0.0
  0
SPLINE
  5
244
100
AcDbEntity
  8
Layer_1
 62
7
100
AcDbSpline
 70
8
 71
3
 72
8
 73
4
 74
0
 40
0
 40
0
 40
0
 40
0
 40
1
 40
1
 40
1
 40
1
 10
285.385849
 20
108.073182
 30
0.0
 10
283.735470
 20
108.073182
 30
0.0
 10
282.397567
 20
109.411079
 30
0.0
 10
282.397567
 20
111.061463
 30
0.0
  0
SPLINE
  5
245
100
AcDbEntity
  8
Layer_1
 62
7
100
AcDbSpline
 70
8
 71
3
 72
8
 73
4
 74
0
 40
0
 40
0
 40
0
 40
0
 40
1
 40
1
 40
1
 40
1
 10
282.397567
 20
111.061463
 30
0.0
 10
282.397567
 20
112.711845
 30
0.0
 10
283.735470
 20
114.049742
 30
0.0
 10
285.385849
 20
114.049742
 30
0.0
  0
SPLINE
  5
246
100
AcDbEntity
  8
Layer_1
 62
7
100
AcDbSpline
 70
8
 71
3
 72
8
 73
4
 74
0
 40
0
 40
0
 40
0
 40
0
 40
1
 40
1
 40
1
 40
1
 10
285.385849
 20
114.049742
 30
0.0
 10
287.036228
 20
114.049742
 30
0.0
 10
288.374130
 20
112.711845
 30
0.0
 10
288.374130
 20
111.061463
 30
0.0
  0
LINE
  5
247
100
AcDbEntity
  8
Layer_1
 62
7
100
AcDbLine
 10
288.374130
 20
111.061463
 30
0.0
 11
288.374130
 21
111.061463
 31
0.0
  0
SPLINE
  5
248
100
AcDbEntity
  8
Layer_1
 62
7
100
AcDbSpline
 70
8
 71
3
 72
8
 73
4
 74
0
 40
0
 40
0
 40
0
 40
0
 40
1
 40
1
 40
1
 40
1
 10
288.374130
 20
131.061423
 30
0.0
 10
288.374130
 20
129.411039
 30
0.0
 10
287.036228
 20
128.073142
 30
0.0
 10
285.385849
 20
128.073142
 30
0.0
  0
SPLINE
  5
249
100
AcDbEntity
  8
Layer_1
 62
7
100
AcDbSpline
 70
8
 71
3
 72
8
 73
4
 74
0
 40
0
 40
0
 40
0
 40
0
 40
1
 40
1
 40
1
 40
1
 10
285.385849
 20
128.073142
 30
0.0
 10
283.735470
 20
128.073142
 30
0.0
 10
282.397567
 20
129.411039
 30
0.0
 10
282.397567
 20
131.061423
 30
0.0
  0
SPLINE
  5
24a
100
AcDbEntity
  8
Layer_1
 62
7
100
AcDbSpline
 70
8
 71
3
 72
8
 73
4
 74
0
 40
0
 40
0
 40
0
 40
0
 40
1
 40
1
 40
1
 40
1
 10
282.397567
 20
131.061423
 30
0.0
 10
282.397567
 20
132.711805
 30
0.0
 10
283.735470
 20
134.049702
 30
0.0
 10
285.385849
 20
134.049702
 30
0.0
  0
SPLINE
  5
24b
100
AcDbEntity
  8
Layer_1
 62
7
100
AcDbSpline
 70
8
 71
3
 72
8
 73
4
 74
0
 40
0
 40
0
 40
0
 40
0
 40
1
 40
1
 40
1
 40
1
 10
285.385849
 20
134.049702
 30
0.0
 10
287.036228
 20
134.049702
 30
0.0
 10
288.374130
 20
132.711805
 30
0.0
 10
288.374130
 20
131.061423
 30
0.0
  0
LINE
  5
24c
100
AcDbEntity
  8
Layer_1
 62
7
100
AcDbLine
 10
288.374130
 20
131.061423
 30
0.0
 11
288.374130
 21
131.061423
 31
0.0
  0
SPLINE
  5
24d
100
AcDbEntity
  8
Layer_1
 62
7
100
AcDbSpline
 70
8
 71
3
 72
8
 73
4
 74
0
 40
0
 40
0
 40
0
 40
0
 40
1
 40
1
 40
1
 40
1
 10
288.374130
 20
151.061383
 30
0.0
 10
288.374130
 20
149.410999
 30
0.0
 10
287.036228
 20
148.073102
 30
0.0
 10
285.385849
 20
148.073102
 30
0.0
  0
SPLINE
  5
24e
100
AcDbEntity
  8
Layer_1
 62
7
100
AcDbSpline
 70
8
 71
3
 72
8
 73
4
 74
0
 40
0
 40
0
 40
0
 40
0
 40
1
 40
1
 40
1
 40
1
 10
285.385849
 20
148.073102
 30
0.0
 10
283.735470
 20
148.073102
 30
0.0
 10
282.397567
 20
149.410999
 30
0.0
 10
282.397567
 20
151.061383
 30
0.0
  0
SPLINE
  5
24f
100
AcDbEntity
  8
Layer_1
 62
7
100
AcDbSpline
 70
8
 71
3
 72
8
 73
4
 74
0
 40
0
 40
0
 40
0
 40
0
 40
1
 40
1
 40
1
 40
1
 10
282.397567
 20
151.061383
 30
0.0
 10
282.397567
 20
152.711765
 30
0.0
 10
283.735470
 20
154.049662
 30
0.0
 10
285.385849
 20
154.049662
 30
0.0
  0
SPLINE
  5
250
100
AcDbEntity
  8
Layer_1
 62
7
100
AcDbSpline
 70
8
 71
3
 72
8
 73
4
 74
0
 40
0
 40
0
 40
0
 40
0
 40
1
 40
1
 40
1
 40
1
 10
285.385849
 20
154.049662
 30
0.0
 10
287.036228
 20
154.049662
 30
0.0
 10
288.374130
 20
152.711765
 30
0.0
 10
288.374130
 20
151.061383
 30
0.0
  0
LINE
  5
251
100
AcDbEntity
  8
Layer_1
 62
7
100
AcDbLine
 10
288.374130
 20
151.061383
 30
0.0
 11
288.374130
 21
151.061383
 31
0.0
  0
LINE
  5
252
100
AcDbEntity
  8
Layer_1
 62
7
100
AcDbLine
 10
292.385835
 20
92.561506
 30
0.0
 11
298.385851
 21
92.561506
 31
0.0
  0
LINE
  5
253
100
AcDbEntity
  8
Layer_1
 62
7
100
AcDbLine
 10
298.385851
 20
92.561506
 30
0.0
 11
298.385851
 21
89.561506
 31
0.0
  0
LINE
  5
254
100
AcDbEntity
  8
Layer_1
 62
7
100
AcDbLine
 10
298.385851
 20
89.561506
 30
0.0
 11
292.385835
 21
89.561506
 31
0.0
  0
LINE
  5
255
100
AcDbEntity
  8
Layer_1
 62
7
100
AcDbLine
 10
292.385835
 20
89.561506
 30
0.0
 11
292.385835
 21
92.561506
 31
0.0
  0
LINE
  5
256
100
AcDbEntity
  8
Layer_1
 62
7
100
AcDbLine
 10
312.385795
 20
92.561506
 30
0.0
 11
318.385783
 21
92.561506
 31
0.0
  0
LINE
  5
257
100
AcDbEntity
  8
Layer_1
 62
7
100
AcDbLine
 10
318.385783
 20
92.561506
 30
0.0
 11
318.385783
 21
89.561506
 31
0.0
  0
LINE
  5
258
100
AcDbEntity
  8
Layer_1
 62
7
100
AcDbLine
 10
318.385783
 20
89.561506
 30
0.0
 11
312.385795
 21
89.561506
 31
0.0
  0
LINE
  5
259
100
AcDbEntity
  8
Layer_1
 62
7
100
AcDbLine
 10
312.385795
 20
89.561506
 30
0.0
 11
312.385795
 21
92.561506
 31
0.0
  0
LINE
  5
25a
100
AcDbEntity
  8
Layer_1
 62
7
100
AcDbLine
 10
332.385755
 20
92.561506
 30
0.0
 11
338.385743
 21
92.561506
 31
0.0
  0
LINE
  5
25b
100
AcDbEntity
  8
Layer_1
 62
7
100
AcDbLine
 10
338.385743
 20
92.561506
 30
0.0
 11
338.385743
 21
89.561506
 31
0.0
  0
LINE
  5
25c
100
AcDbEntity
  8
Layer_1
 62
7
100
AcDbLine
 10
338.385743
 20
89.561506
 30
0.0
 11
332.385755
 21
89.561506
 31
0.0
  0
LINE
  5
25d
100
AcDbEntity
  8
Layer_1
 62
7
100
AcDbLine
 10
332.385755
 20
89.561506
 30
0.0
 11
332.385755
 21
92.561506
 31
0.0
  0
LINE
  5
25e
100
AcDbEntity
  8
Layer_1
 62
7
100
AcDbLine
 10
352.385686
 20
92.561506
 30
0.0
 11
358.385703
 21
92.561506
 31
0.0
  0
LINE
  5
25f
100
AcDbEntity
  8
Layer_1
 62
7
100
AcDbLine
 10
358.385703
 20
92.561506
 30
0.0
 11
358.385703
 21
89.561506
 31
0.0
  0
LINE
  5
260
100
AcDbEntity
  8
Layer_1
 62
7
100
AcDbLine
 10
358.385703
 20
89.561506
 30
0.0
 11
352.385686
 21
89.561506
 31
0.0
  0
LINE
  5
261
100
AcDbEntity
  8
Layer_1
 62
7
100
AcDbLine
 10
352.385686
 20
89.561506
 30
0.0
 11
352.385686
 21
92.561506
 31
0.0
  0
LINE
  5
262
100
AcDbEntity
  8
Layer_1
 62
7
100
AcDbLine
 10
372.385646
 20
92.561506
 30
0.0
 11
378.385634
 21
92.561506
 31
0.0
  0
LINE
  5
263
100
AcDbEntity
  8
Layer_1
 62
7
100
AcDbLine
 10
378.385634
 20
92.561506
 30
0.0
 11
378.385634
 21
89.561506
 31
0.0
  0
LINE
  5
264
100
AcDbEntity
  8
Layer_1
 62
7
100
AcDbLine
 10
378.385634
 20
89.561506
 30
0.0
 11
372.385646
 21
89.561506
 31
0.0
  0
LINE
  5
265
100
AcDbEntity
  8
Layer_1
 62
7
100
AcDbLine
 10
372.385646
 20
89.561506
 30
0.0
 11
372.385646
 21
92.561506
 31
0.0
  0
LINE
  5
266
100
AcDbEntity
  8
Layer_1
 62
7
100
AcDbLine
 10
292.385835
 20
172.561346
 30
0.0
 11
298.385851
 21
172.561346
 31
0.0
  0
LINE
  5
267
100
AcDbEntity
  8
Layer_1
 62
7
100
AcDbLine
 10
298.385851
 20
172.561346
 30
0.0
 11
298.385851
 21
169.561346
 31
0.0
  0
LINE
  5
268
100
AcDbEntity
  8
Layer_1
 62
7
100
AcDbLine
 10
298.385851
 20
169.561346
 30
0.0
 11
292.385835
 21
169.561346
 31
0.0
  0
LINE
  5
269
100
AcDbEntity
  8
Layer_1
 62
7
100
AcDbLine
 10
292.385835
 20
169.561346
 30
0.0
 11
292.385835
 21
172.561346
 31
0.0
  0
LINE
  5
26a
100
AcDbEntity
  8
Layer_1
 62
7
100
AcDbLine
 10
312.385795
 20
172.561346
 30
0.0
 11
318.385783
 21
172.561346
 31
0.0
  0
LINE
  5
26b
100
AcDbEntity
  8
Layer_1
 62
7
100
AcDbLine
 10
318.385783
 20
172.561346
 30
0.0
 11
318.385783
 21
169.561346
 31
0.0
  0
LINE
  5
26c
100
AcDbEntity
  8
Layer_1
 62
7
100
AcDbLine
 10
318.385783
 20
169.561346
 30
0.0
 11
312.385795
 21
169.561346
 31
0.0
  0
LINE
  5
26d
100
AcDbEntity
  8
Layer_1
 62
7
100
AcDbLine
 10
312.385795
 20
169.561346
 30
0.0
 11
312.385795
 21
172.561346
 31
0.0
  0
LINE
  5
26e
100
AcDbEntity
  8
Layer_1
 62
7
100
AcDbLine
 10
332.385755
 20
172.561346
 30
0.0
 11
338.385743
 21
172.561346
 31
0.0
  0
LINE
  5
26f
100
AcDbEntity
  8
Layer_1
 62
7
100
AcDbLine
 10
338.385743
 20
172.561346
 30
0.0
 11
338.385743
 21
169.561346
 31
0.0
  0
LINE
  5
270
100
AcDbEntity
  8
Layer_1
 62
7
100
AcDbLine
 10
338.385743
 20
169.561346
 30
0.0
 11
332.385755
 21
169.561346
 31
0.0
  0
LINE
  5
271
100
AcDbEntity
  8
Layer_1
 62
7
100
AcDbLine
 10
332.385755
 20
169.561346
 30
0.0
 11
332.385755
 21
172.561346
 31
0.0
  0
LINE
  5
272
100
AcDbEntity
  8
Layer_1
 62
7
100
AcDbLine
 10
352.385686
 20
172.561346
 30
0.0
 11
358.385703
 21
172.561346
 31
0.0
  0
LINE
  5
273
100
AcDbEntity
  8
Layer_1
 62
7
100
AcDbLine
 10
358.385703
 20
172.561346
 30
0.0
 11
358.385703
 21
169.561346
 31
0.0
  0
LINE
  5
274
100
AcDbEntity
  8
Layer_1
 62
7
100
AcDbLine
 10
358.385703
 20
169.561346
 30
0.0
 11
352.385686
 21
169.561346
 31
0.0
  0
LINE
  5
275
100
AcDbEntity
  8
Layer_1
 62
7
100
AcDbLine
 10
352.385686
 20
169.561346
 30
0.0
 11
352.385686
 21
172.561346
 31
0.0
  0
LINE
  5
276
100
AcDbEntity
  8
Layer_1
 62
7
100
AcDbLine
 10
372.385646
 20
172.561346
 30
0.0
 11
378.385634
 21
172.561346
 31
0.0
  0
LINE
  5
277
100
AcDbEntity
  8
Layer_1
 62
7
100
AcDbLine
 10
378.385634
 20
172.561346
 30
0.0
 11
378.385634
 21
169.561346
 31
0.0
  0
LINE
  5
278
100
AcDbEntity
  8
Layer_1
 62
7
100
AcDbLine
 10
378.385634
 20
169.561346
 30
0.0
 11
372.385646
 21
169.561346
 31
0.0
  0
LINE
  5
279
100
AcDbEntity
  8
Layer_1
 62
7
100
AcDbLine
 10
372.385646
 20
169.561346
 30
0.0
 11
372.385646
 21
172.561346
 31
0.0
  0
LINE
  5
27a
100
AcDbEntity
  8
Layer_1
 62
7
100
AcDbLine
 10
383.885609
 20
98.061489
 30
0.0
 11
383.885609
 21
104.061489
 31
0.0
  0
LINE
  5
27b
100
AcDbEntity
  8
Layer_1
 62
7
100
AcDbLine
 10
383.885609
 20
104.061489
 30
0.0
 11
386.885603
 21
104.061489
 31
0.0
  0
LINE
  5
27c
100
AcDbEntity
  8
Layer_1
 62
7
100
AcDbLine
 10
386.885603
 20
104.061489
 30
0.0
 11
386.885603
 21
98.061489
 31
0.0
  0
LINE
  5
27d
100
AcDbEntity
  8
Layer_1
 62
7
100
AcDbLine
 10
386.885603
 20
98.061489
 30
0.0
 11
383.885609
 21
98.061489
 31
0.0
  0
LINE
  5
27e
100
AcDbEntity
  8
Layer_1
 62
7
100
AcDbLine
 10
283.885866
 20
158.061366
 30
0.0
 11
283.885866
 21
164.061366
 31
0.0
  0
LINE
  5
27f
100
AcDbEntity
  8
Layer_1
 62
7
100
AcDbLine
 10
283.885866
 20
164.061366
 30
0.0
 11
286.885860
 21
164.061366
 31
0.0
  0
LINE
  5
280
100
AcDbEntity
  8
Layer_1
 62
7
100
AcDbLine
 10
286.885860
 20
164.061366
 30
0.0
 11
286.885860
 21
158.061366
 31
0.0
  0
LINE
  5
281
100
AcDbEntity
  8
Layer_1
 62
7
100
AcDbLine
 10
286.885860
 20
158.061366
 30
0.0
 11
283.885866
 21
158.061366
 31
0.0
  0
LINE
  5
282
100
AcDbEntity
  8
Layer_1
 62
7
100
AcDbLine
 10
283.885866
 20
138.061406
 30
0.0
 11
283.885866
 21
144.061406
 31
0.0
  0
LINE
  5
283
100
AcDbEntity
  8
Layer_1
 62
7
100
AcDbLine
 10
283.885866
 20
144.061406
 30
0.0
 11
286.885860
 21
144.061406
 31
0.0
  0
LINE
  5
284
100
AcDbEntity
  8
Layer_1
 62
7
100
AcDbLine
 10
286.885860
 20
144.061406
 30
0.0
 11
286.885860
 21
138.061406
 31
0.0
  0
LINE
  5
285
100
AcDbEntity
  8
Layer_1
 62
7
100
AcDbLine
 10
286.885860
 20
138.061406
 30
0.0
 11
283.885866
 21
138.061406
 31
0.0
  0
LINE
  5
286
100
AcDbEntity
  8
Layer_1
 62
7
100
AcDbLine
 10
283.885866
 20
118.061446
 30
0.0
 11
283.885866
 21
124.061449
 31
0.0
  0
LINE
  5
287
100
AcDbEntity
  8
Layer_1
 62
7
100
AcDbLine
 10
283.885866
 20
124.061449
 30
0.0
 11
286.885860
 21
124.061449
 31
0.0
  0
LINE
  5
288
100
AcDbEntity
  8
Layer_1
 62
7
100
AcDbLine
 10
286.885860
 20
124.061449
 30
0.0
 11
286.885860
 21
118.061446
 31
0.0
  0
LINE
  5
289
100
AcDbEntity
  8
Layer_1
 62
7
100
AcDbLine
 10
286.885860
 20
118.061446
 30
0.0
 11
283.885866
 21
118.061446
 31
0.0
  0
LINE
  5
28a
100
AcDbEntity
  8
Layer_1
 62
7
100
AcDbLine
 10
283.885866
 20
98.061489
 30
0.0
 11
283.885866
 21
104.061489
 31
0.0
  0
LINE
  5
28b
100
AcDbEntity
  8
Layer_1
 62
7
100
AcDbLine
 10
283.885866
 20
104.061489
 30
0.0
 11
286.885860
 21
104.061489
 31
0.0
  0
LINE
  5
28c
100
AcDbEntity
  8
Layer_1
 62
7
100
AcDbLine
 10
286.885860
 20
104.061489
 30
0.0
 11
286.885860
 21
98.061489
 31
0.0
  0
LINE
  5
28d
100
AcDbEntity
  8
Layer_1
 62
7
100
AcDbLine
 10
286.885860
 20
98.061489
 30
0.0
 11
283.885866
 21
98.061489
 31
0.0
  0
SPLINE
  5
28e
100
AcDbEntity
  8
Layer_1
 62
7
100
AcDbSpline
 70
8
 71
3
 72
8
 73
4
 74
0
 40
0
 40
0
 40
0
 40
0
 40
1
 40
1
 40
1
 40
1
 10
308.374090
 20
111.061463
 30
0.0
 10
308.374090
 20
109.411079
 30
0.0
 10
307.036188
 20
108.073182
 30
0.0
 10
305.385809
 20
108.073182
 30
0.0
  0
SPLINE
  5
28f
100
AcDbEntity
  8
Layer_1
 62
7
100
AcDbSpline
 70
8
 71
3
 72
8
 73
4
 74
0
 40
0
 40
0
 40
0
 40
0
 40
1
 40
1
 40
1
 40
1
 10
305.385809
 20
108.073182
 30
0.0
 10
303.735430
 20
108.073182
 30
0.0
 10
302.397527
 20
109.411079
 30
0.0
 10
302.397527
 20
111.061463
 30
0.0
  0
SPLINE
  5
290
100
AcDbEntity
  8
Layer_1
 62
7
100
AcDbSpline
 70
8
 71
3
 72
8
 73
4
 74
0
 40
0
 40
0
 40
0
 40
0
 40
1
 40
1
 40
1
 40
1
 10
302.397527
 20
111.061463
 30
0.0
 10
302.397527
 20
112.711845
 30
0.0
 10
303.735430
 20
114.049742
 30
0.0
 10
305.385809
 20
114.049742
 30
0.0
  0
SPLINE
  5
291
100
AcDbEntity
  8
Layer_1
 62
7
100
AcDbSpline
 70
8
 71
3
 72
8
 73
4
 74
0
 40
0
 40
0
 40
0
 40
0
 40
1
 40
1
 40
1
 40
1
 10
305.385809
 20
114.049742
 30
0.0
 10
307.036188
 20
114.049742
 30
0.0
 10
308.374090
 20
112.711845
 30
0.0
 10
308.374090
 20
111.061463
 30
0.0
  0
LINE
  5
292
100
AcDbEntity
  8
Layer_1
 62
7
100
AcDbLine
 10
308.374090
 20
111.061463
 30
0.0
 11
308.374090
 21
111.061463
 31
0.0
  0
SPLINE
  5
293
100
AcDbEntity
  8
Layer_1
 62
7
100
AcDbSpline
 70
8
 71
3
 72
8
 73
4
 74
0
 40
0
 40
0
 40
0
 40
0
 40
1
 40
1
 40
1
 40
1
 10
308.374090
 20
131.061423
 30
0.0
 10
308.374090
 20
129.411039
 30
0.0
 10
307.036188
 20
128.073142
 30
0.0
 10
305.385809
 20
128.073142
 30
0.0
  0
SPLINE
  5
294
100
AcDbEntity
  8
Layer_1
 62
7
100
AcDbSpline
 70
8
 71
3
 72
8
 73
4
 74
0
 40
0
 40
0
 40
0
 40
0
 40
1
 40
1
 40
1
 40
1
 10
305.385809
 20
128.073142
 30
0.0
 10
303.735430
 20
128.073142
 30
0.0
 10
302.397527
 20
129.411039
 30
0.0
 10
302.397527
 20
131.061423
 30
0.0
  0
SPLINE
  5
295
100
AcDbEntity
  8
Layer_1
 62
7
100
AcDbSpline
 70
8
 71
3
 72
8
 73
4
 74
0
 40
0
 40
0
 40
0
 40
0
 40
1
 40
1
 40
1
 40
1
 10
302.397527
 20
131.061423
 30
0.0
 10
302.397527
 20
132.711805
 30
0.0
 10
303.735430
 20
134.049702
 30
0.0
 10
305.385809
 20
134.049702
 30
0.0
  0
SPLINE
  5
296
100
AcDbEntity
  8
Layer_1
 62
7
100
AcDbSpline
 70
8
 71
3
 72
8
 73
4
 74
0
 40
0
 40
0
 40
0
 40
0
 40
1
 40
1
 40
1
 40
1
 10
305.385809
 20
134.049702
 30
0.0
 10
307.036188
 20
134.049702
 30
0.0
 10
308.374090
 20
132.711805
 30
0.0
 10
308.374090
 20
131.061423
 30
0.0
  0
LINE
  5
297
100
AcDbEntity
  8
Layer_1
 62
7
100
AcDbLine
 10
308.374090
 20
131.061423
 30
0.0
 11
308.374090
 21
131.061423
 31
0.0
  0
SPLINE
  5
298
100
AcDbEntity
  8
Layer_1
 62
7
100
AcDbSpline
 70
8
 71
3
 72
8
 73
4
 74
0
 40
0
 40
0
 40
0
 40
0
 40
1
 40
1
 40
1
 40
1
 10
308.374090
 20
151.061383
 30
0.0
 10
308.374090
 20
149.410999
 30
0.0
 10
307.036188
 20
148.073102
 30
0.0
 10
305.385809
 20
148.073102
 30
0.0
  0
SPLINE
  5
299
100
AcDbEntity
  8
Layer_1
 62
7
100
AcDbSpline
 70
8
 71
3
 72
8
 73
4
 74
0
 40
0
 40
0
 40
0
 40
0
 40
1
 40
1
 40
1
 40
1
 10
305.385809
 20
148.073102
 30
0.0
 10
303.735430
 20
148.073102
 30
0.0
 10
302.397527
 20
149.410999
 30
0.0
 10
302.397527
 20
151.061383
 30
0.0
  0
SPLINE
  5
29a
100
AcDbEntity
  8
Layer_1
 62
7
100
AcDbSpline
 70
8
 71
3
 72
8
 73
4
 74
0
 40
0
 40
0
 40
0
 40
0
 40
1
 40
1
 40
1
 40
1
 10
302.397527
 20
151.061383
 30
0.0
 10
302.397527
 20
152.711765
 30
0.0
 10
303.735430
 20
154.049662
 30
0.0
 10
305.385809
 20
154.049662
 30
0.0
  0
SPLINE
  5
29b
100
AcDbEntity
  8
Layer_1
 62
7
100
AcDbSpline
 70
8
 71
3
 72
8
 73
4
 74
0
 40
0
 40
0
 40
0
 40
0
 40
1
 40
1
 40
1
 40
1
 10
305.385809
 20
154.049662
 30
0.0
 10
307.036188
 20
154.049662
 30
0.0
 10
308.374090
 20
152.711765
 30
0.0
 10
308.374090
 20
151.061383
 30
0.0
  0
LINE
  5
29c
100
AcDbEntity
  8
Layer_1
 62
7
100
AcDbLine
 10
308.374090
 20
151.061383
 30
0.0
 11
308.374090
 21
151.061383
 31
0.0
  0
LINE
  5
29d
100
AcDbEntity
  8
Layer_1
 62
7
100
AcDbLine
 10
303.885798
 20
158.061366
 30
0.0
 11
303.885798
 21
164.061366
 31
0.0
  0
LINE
  5
29e
100
AcDbEntity
  8
Layer_1
 62
7
100
AcDbLine
 10
303.885798
 20
164.061366
 30
0.0
 11
306.885820
 21
164.061366
 31
0.0
  0
LINE
  5
29f
100
AcDbEntity
  8
Layer_1
 62
7
100
AcDbLine
 10
306.885820
 20
164.061366
 30
0.0
 11
306.885820
 21
158.061366
 31
0.0
  0
LINE
  5
2a0
100
AcDbEntity
  8
Layer_1
 62
7
100
AcDbLine
 10
306.885820
 20
158.061366
 30
0.0
 11
303.885798
 21
158.061366
 31
0.0
  0
LINE
  5
2a1
100
AcDbEntity
  8
Layer_1
 62
7
100
AcDbLine
 10
303.885798
 20
138.061406
 30
0.0
 11
303.885798
 21
144.061406
 31
0.0
  0
LINE
  5
2a2
100
AcDbEntity
  8
Layer_1
 62
7
100
AcDbLine
 10
303.885798
 20
144.061406
 30
0.0
 11
306.885820
 21
144.061406
 31
0.0
  0
LINE
  5
2a3
100
AcDbEntity
  8
Layer_1
 62
7
100
AcDbLine
 10
306.885820
 20
144.061406
 30
0.0
 11
306.885820
 21
138.061406
 31
0.0
  0
LINE
  5
2a4
100
AcDbEntity
  8
Layer_1
 62
7
100
AcDbLine
 10
306.885820
 20
138.061406
 30
0.0
 11
303.885798
 21
138.061406
 31
0.0
  0
LINE
  5
2a5
100
AcDbEntity
  8
Layer_1
 62
7
100
AcDbLine
 10
303.885798
 20
118.061446
 30
0.0
 11
303.885798
 21
124.061449
 31
0.0
  0
LINE
  5
2a6
100
AcDbEntity
  8
Layer_1
 62
7
100
AcDbLine
 10
303.885798
 20
124.061449
 30
0.0
 11
306.885820
 21
124.061449
 31
0.0
  0
LINE
  5
2a7
100
AcDbEntity
  8
Layer_1
 62
7
100
AcDbLine
 10
306.885820
 20
124.061449
 30
0.0
 11
306.885820
 21
118.061446
 31
0.0
  0
LINE
  5
2a8
100
AcDbEntity
  8
Layer_1
 62
7
100
AcDbLine
 10
306.885820
 20
118.061446
 30
0.0
 11
303.885798
 21
118.061446
 31
0.0
  0
LINE
  5
2a9
100
AcDbEntity
  8
Layer_1
 62
7
100
AcDbLine
 10
303.885798
 20
98.061489
 30
0.0
 11
303.885798
 21
104.061489
 31
0.0
  0
LINE
  5
2aa
100
AcDbEntity
  8
Layer_1
 62
7
100
AcDbLine
 10
303.885798
 20
104.061489
 30
0.0
 11
306.885820
 21
104.061489
 31
0.0
  0
LINE
  5
2ab
100
AcDbEntity
  8
Layer_1
 62
7
100
AcDbLine
 10
306.885820
 20
104.061489
 30
0.0
 11
306.885820
 21
98.061489
 31
0.0
  0
LINE
  5
2ac
100
AcDbEntity
  8
Layer_1
 62
7
100
AcDbLine
 10
306.885820
 20
98.061489
 30
0.0
 11
303.885798
 21
98.061489
 31
0.0
  0
LINE
  5
2ad
100
AcDbEntity
  8
Layer_1
 62
7
100
AcDbLine
 10
292.385835
 20
152.561389
 30
0.0
 11
298.385851
 21
152.561389
 31
0.0
  0
LINE
  5
2ae
100
AcDbEntity
  8
Layer_1
 62
7
100
AcDbLine
 10
298.385851
 20
152.561389
 30
0.0
 11
298.385851
 21
149.561386
 31
0.0
  0
LINE
  5
2af
100
AcDbEntity
  8
Layer_1
 62
7
100
AcDbLine
 10
298.385851
 20
149.561386
 30
0.0
 11
292.385835
 21
149.561386
 31
0.0
  0
LINE
  5
2b0
100
AcDbEntity
  8
Layer_1
 62
7
100
AcDbLine
 10
292.385835
 20
149.561386
 30
0.0
 11
292.385835
 21
152.561389
 31
0.0
  0
LINE
  5
2b1
100
AcDbEntity
  8
Layer_1
 62
7
100
AcDbLine
 10
292.385835
 20
132.561429
 30
0.0
 11
298.385851
 21
132.561429
 31
0.0
  0
LINE
  5
2b2
100
AcDbEntity
  8
Layer_1
 62
7
100
AcDbLine
 10
298.385851
 20
132.561429
 30
0.0
 11
298.385851
 21
129.561429
 31
0.0
  0
LINE
  5
2b3
100
AcDbEntity
  8
Layer_1
 62
7
100
AcDbLine
 10
298.385851
 20
129.561429
 30
0.0
 11
292.385835
 21
129.561429
 31
0.0
  0
LINE
  5
2b4
100
AcDbEntity
  8
Layer_1
 62
7
100
AcDbLine
 10
292.385835
 20
129.561429
 30
0.0
 11
292.385835
 21
132.561429
 31
0.0
  0
LINE
  5
2b5
100
AcDbEntity
  8
Layer_1
 62
7
100
AcDbLine
 10
292.385835
 20
112.561469
 30
0.0
 11
298.385851
 21
112.561469
 31
0.0
  0
LINE
  5
2b6
100
AcDbEntity
  8
Layer_1
 62
7
100
AcDbLine
 10
298.385851
 20
112.561469
 30
0.0
 11
298.385851
 21
109.561469
 31
0.0
  0
LINE
  5
2b7
100
AcDbEntity
  8
Layer_1
 62
7
100
AcDbLine
 10
298.385851
 20
109.561469
 30
0.0
 11
292.385835
 21
109.561469
 31
0.0
  0
LINE
  5
2b8
100
AcDbEntity
  8
Layer_1
 62
7
100
AcDbLine
 10
292.385835
 20
109.561469
 30
0.0
 11
292.385835
 21
112.561469
 31
0.0
  0
LINE
  5
2b9
100
AcDbEntity
  8
Layer_1
 62
7
100
AcDbLine
 10
34.445857
 20
168.300995
 30
0.0
 11
44.445857
 21
168.300995
 31
0.0
  0
LINE
  5
2ba
100
AcDbEntity
  8
Layer_1
 62
7
100
AcDbLine
 10
44.445857
 20
168.300995
 30
0.0
 11
44.445857
 21
158.300995
 31
0.0
  0
LINE
  5
2bb
100
AcDbEntity
  8
Layer_1
 62
7
100
AcDbLine
 10
44.445857
 20
158.300995
 30
0.0
 11
34.445857
 21
158.300995
 31
0.0
  0
LINE
  5
2bc
100
AcDbEntity
  8
Layer_1
 62
7
100
AcDbLine
 10
34.445857
 20
158.300995
 30
0.0
 11
34.445857
 21
168.300995
 31
0.0
  0
SPLINE
  5
2bd
100
AcDbEntity
  8
Layer_1
 62
7
100
AcDbSpline
 70
8
 71
3
 72
8
 73
4
 74
0
 40
0
 40
0
 40
0
 40
0
 40
1
 40
1
 40
1
 40
1
 10
164.960986
 20
290.833363
 30
0.0
 10
164.960986
 20
289.181661
 30
0.0
 10
163.622253
 20
287.842928
 30
0.0
 10
161.970551
 20
287.842928
 30
0.0
  0
SPLINE
  5
2be
100
AcDbEntity
  8
Layer_1
 62
7
100
AcDbSpline
 70
8
 71
3
 72
8
 73
4
 74
0
 40
0
 40
0
 40
0
 40
0
 40
1
 40
1
 40
1
 40
1
 10
161.970551
 20
287.842928
 30
0.0
 10
160.319201
 20
287.842928
 30
0.0
 10
158.980116
 20
289.181661
 30
0.0
 10
158.980116
 20
290.833363
 30
0.0
  0
SPLINE
  5
2bf
100
AcDbEntity
  8
Layer_1
 62
7
100
AcDbSpline
 70
8
 71
3
 72
8
 73
4
 74
0
 40
0
 40
0
 40
0
 40
0
 40
1
 40
1
 40
1
 40
1
 10
158.980116
 20
290.833363
 30
0.0
 10
158.980116
 20
292.485065
 30
0.0
 10
160.319201
 20
293.823798
 30
0.0
 10
161.970551
 20
293.823798
 30
0.0
  0
SPLINE
  5
2c0
100
AcDbEntity
  8
Layer_1
 62
7
100
AcDbSpline
 70
8
 71
3
 72
8
 73
4
 74
0
 40
0
 40
0
 40
0
 40
0
 40
1
 40
1
 40
1
 40
1
 10
161.970551
 20
293.823798
 30
0.0
 10
163.622253
 20
293.823798
 30
0.0
 10
164.960986
 20
292.485065
 30
0.0
 10
164.960986
 20
290.833363
 30
0.0
  0
LINE
  5
2c1
100
AcDbEntity
  8
Layer_1
 62
7
100
AcDbLine
 10
164.960986
 20
290.833363
 30
0.0
 11
164.960986
 21
290.833363
 31
0.0
  0
SPLINE
  5
2c2
100
AcDbEntity
  8
Layer_1
 62
7
100
AcDbSpline
 70
8
 71
3
 72
8
 73
4
 74
0
 40
0
 40
0
 40
0
 40
0
 40
1
 40
1
 40
1
 40
1
 10
164.960986
 20
270.897115
 30
0.0
 10
164.960986
 20
269.245413
 30
0.0
 10
163.622253
 20
267.906680
 30
0.0
 10
161.970551
 20
267.906680
 30
0.0
  0
SPLINE
  5
2c3
100
AcDbEntity
  8
Layer_1
 62
7
100
AcDbSpline
 70
8
 71
3
 72
8
 73
4
 74
0
 40
0
 40
0
 40
0
 40
0
 40
1
 40
1
 40
1
 40
1
 10
161.970551
 20
267.906680
 30
0.0
 10
160.319201
 20
267.906680
 30
0.0
 10
158.980116
 20
269.245413
 30
0.0
 10
158.980116
 20
270.897115
 30
0.0
  0
SPLINE
  5
2c4
100
AcDbEntity
  8
Layer_1
 62
7
100
AcDbSpline
 70
8
 71
3
 72
8
 73
4
 74
0
 40
0
 40
0
 40
0
 40
0
 40
1
 40
1
 40
1
 40
1
 10
158.980116
 20
270.897115
 30
0.0
 10
158.980116
 20
272.548817
 30
0.0
 10
160.319201
 20
273.887550
 30
0.0
 10
161.970551
 20
273.887550
 30
0.0
  0
SPLINE
  5
2c5
100
AcDbEntity
  8
Layer_1
 62
7
100
AcDbSpline
 70
8
 71
3
 72
8
 73
4
 74
0
 40
0
 40
0
 40
0
 40
0
 40
1
 40
1
 40
1
 40
1
 10
161.970551
 20
273.887550
 30
0.0
 10
163.622253
 20
273.887550
 30
0.0
 10
164.960986
 20
272.548817
 30
0.0
 10
164.960986
 20
270.897115
 30
0.0
  0
LINE
  5
2c6
100
AcDbEntity
  8
Layer_1
 62
7
100
AcDbLine
 10
164.960986
 20
270.897115
 30
0.0
 11
164.960986
 21
270.897115
 31
0.0
  0
SPLINE
  5
2c7
100
AcDbEntity
  8
Layer_1
 62
7
100
AcDbSpline
 70
8
 71
3
 72
8
 73
4
 74
0
 40
0
 40
0
 40
0
 40
0
 40
1
 40
1
 40
1
 40
1
 10
264.640466
 20
290.833363
 30
0.0
 10
264.640466
 20
289.181661
 30
0.0
 10
263.301733
 20
287.842928
 30
0.0
 10
261.650032
 20
287.842928
 30
0.0
  0
SPLINE
  5
2c8
100
AcDbEntity
  8
Layer_1
 62
7
100
AcDbSpline
 70
8
 71
3
 72
8
 73
4
 74
0
 40
0
 40
0
 40
0
 40
0
 40
1
 40
1
 40
1
 40
1
 10
261.650032
 20
287.842928
 30
0.0
 10
259.998681
 20
287.842928
 30
0.0
 10
258.659597
 20
289.181661
 30
0.0
 10
258.659597
 20
290.833363
 30
0.0
  0
SPLINE
  5
2c9
100
AcDbEntity
  8
Layer_1
 62
7
100
AcDbSpline
 70
8
 71
3
 72
8
 73
4
 74
0
 40
0
 40
0
 40
0
 40
0
 40
1
 40
1
 40
1
 40
1
 10
258.659597
 20
290.833363
 30
0.0
 10
258.659597
 20
292.485065
 30
0.0
 10
259.998681
 20
293.823798
 30
0.0
 10
261.650032
 20
293.823798
 30
0.0
  0
SPLINE
  5
2ca
100
AcDbEntity
  8
Layer_1
 62
7
100
AcDbSpline
 70
8
 71
3
 72
8
 73
4
 74
0
 40
0
 40
0
 40
0
 40
0
 40
1
 40
1
 40
1
 40
1
 10
261.650032
 20
293.823798
 30
0.0
 10
263.301733
 20
293.823798
 30
0.0
 10
264.640466
 20
292.485065
 30
0.0
 10
264.640466
 20
290.833363
 30
0.0
  0
LINE
  5
2cb
100
AcDbEntity
  8
Layer_1
 62
7
100
AcDbLine
 10
264.640466
 20
290.833363
 30
0.0
 11
264.640466
 21
290.833363
 31
0.0
  0
SPLINE
  5
2cc
100
AcDbEntity
  8
Layer_1
 62
7
100
AcDbSpline
 70
8
 71
3
 72
8
 73
4
 74
0
 40
0
 40
0
 40
0
 40
0
 40
1
 40
1
 40
1
 40
1
 10
164.960986
 20
211.087713
 30
0.0
 10
164.960986
 20
209.436011
 30
0.0
 10
163.622253
 20
208.097278
 30
0.0
 10
161.970551
 20
208.097278
 30
0.0
  0
SPLINE
  5
2cd
100
AcDbEntity
  8
Layer_1
 62
7
100
AcDbSpline
 70
8
 71
3
 72
8
 73
4
 74
0
 40
0
 40
0
 40
0
 40
0
 40
1
 40
1
 40
1
 40
1
 10
161.970551
 20
208.097278
 30
0.0
 10
160.319201
 20
208.097278
 30
0.0
 10
158.980116
 20
209.436011
 30
0.0
 10
158.980116
 20
211.087713
 30
0.0
  0
SPLINE
  5
2ce
100
AcDbEntity
  8
Layer_1
 62
7
100
AcDbSpline
 70
8
 71
3
 72
8
 73
4
 74
0
 40
0
 40
0
 40
0
 40
0
 40
1
 40
1
 40
1
 40
1
 10
158.980116
 20
211.087713
 30
0.0
 10
158.980116
 20
212.739415
 30
0.0
 10
160.319201
 20
214.078148
 30
0.0
 10
161.970551
 20
214.078148
 30
0.0
  0
SPLINE
  5
2cf
100
AcDbEntity
  8
Layer_1
 62
7
100
AcDbSpline
 70
8
 71
3
 72
8
 73
4
 74
0
 40
0
 40
0
 40
0
 40
0
 40
1
 40
1
 40
1
 40
1
 10
161.970551
 20
214.078148
 30
0.0
 10
163.622253
 20
214.078148
 30
0.0
 10
164.960986
 20
212.739415
 30
0.0
 10
164.960986
 20
211.087713
 30
0.0
  0
LINE
  5
2d0
100
AcDbEntity
  8
Layer_1
 62
7
100
AcDbLine
 10
164.960986
 20
211.087713
 30
0.0
 11
164.960986
 21
211.087713
 31
0.0
  0
SPLINE
  5
2d1
100
AcDbEntity
  8
Layer_1
 62
7
100
AcDbSpline
 70
8
 71
3
 72
8
 73
4
 74
0
 40
0
 40
0
 40
0
 40
0
 40
1
 40
1
 40
1
 40
1
 10
264.640466
 20
211.087713
 30
0.0
 10
264.640466
 20
209.436011
 30
0.0
 10
263.301733
 20
208.097278
 30
0.0
 10
261.650032
 20
208.097278
 30
0.0
  0
SPLINE
  5
2d2
100
AcDbEntity
  8
Layer_1
 62
7
100
AcDbSpline
 70
8
 71
3
 72
8
 73
4
 74
0
 40
0
 40
0
 40
0
 40
0
 40
1
 40
1
 40
1
 40
1
 10
261.650032
 20
208.097278
 30
0.0
 10
259.998681
 20
208.097278
 30
0.0
 10
258.659597
 20
209.436011
 30
0.0
 10
258.659597
 20
211.087713
 30
0.0
  0
SPLINE
  5
2d3
100
AcDbEntity
  8
Layer_1
 62
7
100
AcDbSpline
 70
8
 71
3
 72
8
 73
4
 74
0
 40
0
 40
0
 40
0
 40
0
 40
1
 40
1
 40
1
 40
1
 10
258.659597
 20
211.087713
 30
0.0
 10
258.659597
 20
212.739415
 30
0.0
 10
259.998681
 20
214.078148
 30
0.0
 10
261.650032
 20
214.078148
 30
0.0
  0
SPLINE
  5
2d4
100
AcDbEntity
  8
Layer_1
 62
7
100
AcDbSpline
 70
8
 71
3
 72
8
 73
4
 74
0
 40
0
 40
0
 40
0
 40
0
 40
1
 40
1
 40
1
 40
1
 10
261.650032
 20
214.078148
 30
0.0
 10
263.301733
 20
214.078148
 30
0.0
 10
264.640466
 20
212.739415
 30
0.0
 10
264.640466
 20
211.087713
 30
0.0
  0
LINE
  5
2d5
100
AcDbEntity
  8
Layer_1
 62
7
100
AcDbLine
 10
264.640466
 20
211.087713
 30
0.0
 11
264.640466
 21
211.087713
 31
0.0
  0
SPLINE
  5
2d6
100
AcDbEntity
  8
Layer_1
 62
7
100
AcDbSpline
 70
8
 71
3
 72
8
 73
4
 74
0
 40
0
 40
0
 40
0
 40
0
 40
1
 40
1
 40
1
 40
1
 10
244.704252
 20
211.087713
 30
0.0
 10
244.704252
 20
209.436011
 30
0.0
 10
243.365871
 20
208.097278
 30
0.0
 10
241.714520
 20
208.097278
 30
0.0
  0
SPLINE
  5
2d7
100
AcDbEntity
  8
Layer_1
 62
7
100
AcDbSpline
 70
8
 71
3
 72
8
 73
4
 74
0
 40
0
 40
0
 40
0
 40
0
 40
1
 40
1
 40
1
 40
1
 10
241.714520
 20
208.097278
 30
0.0
 10
240.063170
 20
208.097278
 30
0.0
 10
238.724437
 20
209.436011
 30
0.0
 10
238.724437
 20
211.087713
 30
0.0
  0
SPLINE
  5
2d8
100
AcDbEntity
  8
Layer_1
 62
7
100
AcDbSpline
 70
8
 71
3
 72
8
 73
4
 74
0
 40
0
 40
0
 40
0
 40
0
 40
1
 40
1
 40
1
 40
1
 10
238.724437
 20
211.087713
 30
0.0
 10
238.724437
 20
212.739415
 30
0.0
 10
240.063170
 20
214.078148
 30
0.0
 10
241.714520
 20
214.078148
 30
0.0
  0
SPLINE
  5
2d9
100
AcDbEntity
  8
Layer_1
 62
7
100
AcDbSpline
 70
8
 71
3
 72
8
 73
4
 74
0
 40
0
 40
0
 40
0
 40
0
 40
1
 40
1
 40
1
 40
1
 10
241.714520
 20
214.078148
 30
0.0
 10
243.365871
 20
214.078148
 30
0.0
 10
244.704252
 20
212.739415
 30
0.0
 10
244.704252
 20
211.087713
 30
0.0
  0
LINE
  5
2da
100
AcDbEntity
  8
Layer_1
 62
7
100
AcDbLine
 10
244.704252
 20
211.087713
 30
0.0
 11
244.704252
 21
211.087713
 31
0.0
  0
SPLINE
  5
2db
100
AcDbEntity
  8
Layer_1
 62
7
100
AcDbSpline
 70
8
 71
3
 72
8
 73
4
 74
0
 40
0
 40
0
 40
0
 40
0
 40
1
 40
1
 40
1
 40
1
 10
224.769051
 20
211.087713
 30
0.0
 10
224.769051
 20
209.436011
 30
0.0
 10
223.430318
 20
208.097278
 30
0.0
 10
221.778616
 20
208.097278
 30
0.0
  0
SPLINE
  5
2dc
100
AcDbEntity
  8
Layer_1
 62
7
100
AcDbSpline
 70
8
 71
3
 72
8
 73
4
 74
0
 40
0
 40
0
 40
0
 40
0
 40
1
 40
1
 40
1
 40
1
 10
221.778616
 20
208.097278
 30
0.0
 10
220.127266
 20
208.097278
 30
0.0
 10
218.788181
 20
209.436011
 30
0.0
 10
218.788181
 20
211.087713
 30
0.0
  0
SPLINE
  5
2dd
100
AcDbEntity
  8
Layer_1
 62
7
100
AcDbSpline
 70
8
 71
3
 72
8
 73
4
 74
0
 40
0
 40
0
 40
0
 40
0
 40
1
 40
1
 40
1
 40
1
 10
218.788181
 20
211.087713
 30
0.0
 10
218.788181
 20
212.739415
 30
0.0
 10
220.127266
 20
214.078148
 30
0.0
 10
221.778616
 20
214.078148
 30
0.0
  0
SPLINE
  5
2de
100
AcDbEntity
  8
Layer_1
 62
7
100
AcDbSpline
 70
8
 71
3
 72
8
 73
4
 74
0
 40
0
 40
0
 40
0
 40
0
 40
1
 40
1
 40
1
 40
1
 10
221.778616
 20
214.078148
 30
0.0
 10
223.430318
 20
214.078148
 30
0.0
 10
224.769051
 20
212.739415
 30
0.0
 10
224.769051
 20
211.087713
 30
0.0
  0
LINE
  5
2df
100
AcDbEntity
  8
Layer_1
 62
7
100
AcDbLine
 10
224.769051
 20
211.087713
 30
0.0
 11
224.769051
 21
211.087713
 31
0.0
  0
SPLINE
  5
2e0
100
AcDbEntity
  8
Layer_1
 62
7
100
AcDbSpline
 70
8
 71
3
 72
8
 73
4
 74
0
 40
0
 40
0
 40
0
 40
0
 40
1
 40
1
 40
1
 40
1
 10
204.832797
 20
211.087713
 30
0.0
 10
204.832797
 20
209.436011
 30
0.0
 10
203.494064
 20
208.097278
 30
0.0
 10
201.842362
 20
208.097278
 30
0.0
  0
SPLINE
  5
2e1
100
AcDbEntity
  8
Layer_1
 62
7
100
AcDbSpline
 70
8
 71
3
 72
8
 73
4
 74
0
 40
0
 40
0
 40
0
 40
0
 40
1
 40
1
 40
1
 40
1
 10
201.842362
 20
208.097278
 30
0.0
 10
200.191012
 20
208.097278
 30
0.0
 10
198.851927
 20
209.436011
 30
0.0
 10
198.851927
 20
211.087713
 30
0.0
  0
SPLINE
  5
2e2
100
AcDbEntity
  8
Layer_1
 62
7
100
AcDbSpline
 70
8
 71
3
 72
8
 73
4
 74
0
 40
0
 40
0
 40
0
 40
0
 40
1
 40
1
 40
1
 40
1
 10
198.851927
 20
211.087713
 30
0.0
 10
198.851927
 20
212.739415
 30
0.0
 10
200.191012
 20
214.078148
 30
0.0
 10
201.842362
 20
214.078148
 30
0.0
  0
SPLINE
  5
2e3
100
AcDbEntity
  8
Layer_1
 62
7
100
AcDbSpline
 70
8
 71
3
 72
8
 73
4
 74
0
 40
0
 40
0
 40
0
 40
0
 40
1
 40
1
 40
1
 40
1
 10
201.842362
 20
214.078148
 30
0.0
 10
203.494064
 20
214.078148
 30
0.0
 10
204.832797
 20
212.739415
 30
0.0
 10
204.832797
 20
211.087713
 30
0.0
  0
LINE
  5
2e4
100
AcDbEntity
  8
Layer_1
 62
7
100
AcDbLine
 10
204.832797
 20
211.087713
 30
0.0
 11
204.832797
 21
211.087713
 31
0.0
  0
SPLINE
  5
2e5
100
AcDbEntity
  8
Layer_1
 62
7
100
AcDbSpline
 70
8
 71
3
 72
8
 73
4
 74
0
 40
0
 40
0
 40
0
 40
0
 40
1
 40
1
 40
1
 40
1
 10
184.896540
 20
211.087713
 30
0.0
 10
184.896540
 20
209.436011
 30
0.0
 10
183.557807
 20
208.097278
 30
0.0
 10
181.906105
 20
208.097278
 30
0.0
  0
SPLINE
  5
2e6
100
AcDbEntity
  8
Layer_1
 62
7
100
AcDbSpline
 70
8
 71
3
 72
8
 73
4
 74
0
 40
0
 40
0
 40
0
 40
0
 40
1
 40
1
 40
1
 40
1
 10
181.906105
 20
208.097278
 30
0.0
 10
180.254755
 20
208.097278
 30
0.0
 10
178.915670
 20
209.436011
 30
0.0
 10
178.915670
 20
211.087713
 30
0.0
  0
SPLINE
  5
2e7
100
AcDbEntity
  8
Layer_1
 62
7
100
AcDbSpline
 70
8
 71
3
 72
8
 73
4
 74
0
 40
0
 40
0
 40
0
 40
0
 40
1
 40
1
 40
1
 40
1
 10
178.915670
 20
211.087713
 30
0.0
 10
178.915670
 20
212.739415
 30
0.0
 10
180.254755
 20
214.078148
 30
0.0
 10
181.906105
 20
214.078148
 30
0.0
  0
SPLINE
  5
2e8
100
AcDbEntity
  8
Layer_1
 62
7
100
AcDbSpline
 70
8
 71
3
 72
8
 73
4
 74
0
 40
0
 40
0
 40
0
 40
0
 40
1
 40
1
 40
1
 40
1
 10
181.906105
 20
214.078148
 30
0.0
 10
183.557807
 20
214.078148
 30
0.0
 10
184.896540
 20
212.739415
 30
0.0
 10
184.896540
 20
211.087713
 30
0.0
  0
LINE
  5
2e9
100
AcDbEntity
  8
Layer_1
 62
7
100
AcDbLine
 10
184.896540
 20
211.087713
 30
0.0
 11
184.896540
 21
211.087713
 31
0.0
  0
SPLINE
  5
2ea
100
AcDbEntity
  8
Layer_1
 62
7
100
AcDbSpline
 70
8
 71
3
 72
8
 73
4
 74
0
 40
0
 40
0
 40
0
 40
0
 40
1
 40
1
 40
1
 40
1
 10
264.640466
 20
231.023956
 30
0.0
 10
264.640466
 20
229.372254
 30
0.0
 10
263.301733
 20
228.033521
 30
0.0
 10
261.650032
 20
228.033521
 30
0.0
  0
SPLINE
  5
2eb
100
AcDbEntity
  8
Layer_1
 62
7
100
AcDbSpline
 70
8
 71
3
 72
8
 73
4
 74
0
 40
0
 40
0
 40
0
 40
0
 40
1
 40
1
 40
1
 40
1
 10
261.650032
 20
228.033521
 30
0.0
 10
259.998681
 20
228.033521
 30
0.0
 10
258.659597
 20
229.372254
 30
0.0
 10
258.659597
 20
231.023956
 30
0.0
  0
SPLINE
  5
2ec
100
AcDbEntity
  8
Layer_1
 62
7
100
AcDbSpline
 70
8
 71
3
 72
8
 73
4
 74
0
 40
0
 40
0
 40
0
 40
0
 40
1
 40
1
 40
1
 40
1
 10
258.659597
 20
231.023956
 30
0.0
 10
258.659597
 20
232.675658
 30
0.0
 10
259.998681
 20
234.014391
 30
0.0
 10
261.650032
 20
234.014391
 30
0.0
  0
SPLINE
  5
2ed
100
AcDbEntity
  8
Layer_1
 62
7
100
AcDbSpline
 70
8
 71
3
 72
8
 73
4
 74
0
 40
0
 40
0
 40
0
 40
0
 40
1
 40
1
 40
1
 40
1
 10
261.650032
 20
234.014391
 30
0.0
 10
263.301733
 20
234.014391
 30
0.0
 10
264.640466
 20
232.675658
 30
0.0
 10
264.640466
 20
231.023956
 30
0.0
  0
LINE
  5
2ee
100
AcDbEntity
  8
Layer_1
 62
7
100
AcDbLine
 10
264.640466
 20
231.023956
 30
0.0
 11
264.640466
 21
231.023956
 31
0.0
  0
SPLINE
  5
2ef
100
AcDbEntity
  8
Layer_1
 62
7
100
AcDbSpline
 70
8
 71
3
 72
8
 73
4
 74
0
 40
0
 40
0
 40
0
 40
0
 40
1
 40
1
 40
1
 40
1
 10
264.640466
 20
250.960170
 30
0.0
 10
264.640466
 20
249.308468
 30
0.0
 10
263.301733
 20
247.969735
 30
0.0
 10
261.650032
 20
247.969735
 30
0.0
  0
SPLINE
  5
2f0
100
AcDbEntity
  8
Layer_1
 62
7
100
AcDbSpline
 70
8
 71
3
 72
8
 73
4
 74
0
 40
0
 40
0
 40
0
 40
0
 40
1
 40
1
 40
1
 40
1
 10
261.650032
 20
247.969735
 30
0.0
 10
259.998681
 20
247.969735
 30
0.0
 10
258.659597
 20
249.308468
 30
0.0
 10
258.659597
 20
250.960170
 30
0.0
  0
SPLINE
  5
2f1
100
AcDbEntity
  8
Layer_1
 62
7
100
AcDbSpline
 70
8
 71
3
 72
8
 73
4
 74
0
 40
0
 40
0
 40
0
 40
0
 40
1
 40
1
 40
1
 40
1
 10
258.659597
 20
250.960170
 30
0.0
 10
258.659597
 20
252.611872
 30
0.0
 10
259.998681
 20
253.950605
 30
0.0
 10
261.650032
 20
253.950605
 30
0.0
  0
SPLINE
  5
2f2
100
AcDbEntity
  8
Layer_1
 62
7
100
AcDbSpline
 70
8
 71
3
 72
8
 73
4
 74
0
 40
0
 40
0
 40
0
 40
0
 40
1
 40
1
 40
1
 40
1
 10
261.650032
 20
253.950605
 30
0.0
 10
263.301733
 20
253.950605
 30
0.0
 10
264.640466
 20
252.611872
 30
0.0
 10
264.640466
 20
250.960170
 30
0.0
  0
LINE
  5
2f3
100
AcDbEntity
  8
Layer_1
 62
7
100
AcDbLine
 10
264.640466
 20
250.960170
 30
0.0
 11
264.640466
 21
250.960170
 31
0.0
  0
SPLINE
  5
2f4
100
AcDbEntity
  8
Layer_1
 62
7
100
AcDbSpline
 70
8
 71
3
 72
8
 73
4
 74
0
 40
0
 40
0
 40
0
 40
0
 40
1
 40
1
 40
1
 40
1
 10
264.640466
 20
270.896440
 30
0.0
 10
264.640466
 20
269.244738
 30
0.0
 10
263.301733
 20
267.906005
 30
0.0
 10
261.650032
 20
267.906005
 30
0.0
  0
SPLINE
  5
2f5
100
AcDbEntity
  8
Layer_1
 62
7
100
AcDbSpline
 70
8
 71
3
 72
8
 73
4
 74
0
 40
0
 40
0
 40
0
 40
0
 40
1
 40
1
 40
1
 40
1
 10
261.650032
 20
267.906005
 30
0.0
 10
259.998681
 20
267.906005
 30
0.0
 10
258.659597
 20
269.244738
 30
0.0
 10
258.659597
 20
270.896440
 30
0.0
  0
SPLINE
  5
2f6
100
AcDbEntity
  8
Layer_1
 62
7
100
AcDbSpline
 70
8
 71
3
 72
8
 73
4
 74
0
 40
0
 40
0
 40
0
 40
0
 40
1
 40
1
 40
1
 40
1
 10
258.659597
 20
270.896440
 30
0.0
 10
258.659597
 20
272.548141
 30
0.0
 10
259.998681
 20
273.886874
 30
0.0
 10
261.650032
 20
273.886874
 30
0.0
  0
SPLINE
  5
2f7
100
AcDbEntity
  8
Layer_1
 62
7
100
AcDbSpline
 70
8
 71
3
 72
8
 73
4
 74
0
 40
0
 40
0
 40
0
 40
0
 40
1
 40
1
 40
1
 40
1
 10
261.650032
 20
273.886874
 30
0.0
 10
263.301733
 20
273.886874
 30
0.0
 10
264.640466
 20
272.548141
 30
0.0
 10
264.640466
 20
270.896440
 30
0.0
  0
LINE
  5
2f8
100
AcDbEntity
  8
Layer_1
 62
7
100
AcDbLine
 10
264.640466
 20
270.896440
 30
0.0
 11
264.640466
 21
270.896440
 31
0.0
  0
SPLINE
  5
2f9
100
AcDbEntity
  8
Layer_1
 62
7
100
AcDbSpline
 70
8
 71
3
 72
8
 73
4
 74
0
 40
0
 40
0
 40
0
 40
0
 40
1
 40
1
 40
1
 40
1
 10
250.667204
 20
261.795418
 30
0.0
 10
250.667204
 20
260.969743
 30
0.0
 10
249.998013
 20
260.300201
 30
0.0
 10
249.171986
 20
260.300201
 30
0.0
  0
SPLINE
  5
2fa
100
AcDbEntity
  8
Layer_1
 62
7
100
AcDbSpline
 70
8
 71
3
 72
8
 73
4
 74
0
 40
0
 40
0
 40
0
 40
0
 40
1
 40
1
 40
1
 40
1
 10
249.171986
 20
260.300201
 30
0.0
 10
248.345960
 20
260.300201
 30
0.0
 10
247.676769
 20
260.969743
 30
0.0
 10
247.676769
 20
261.795418
 30
0.0
  0
SPLINE
  5
2fb
100
AcDbEntity
  8
Layer_1
 62
7
100
AcDbSpline
 70
8
 71
3
 72
8
 73
4
 74
0
 40
0
 40
0
 40
0
 40
0
 40
1
 40
1
 40
1
 40
1
 10
247.676769
 20
261.795418
 30
0.0
 10
247.676769
 20
262.621093
 30
0.0
 10
248.345960
 20
263.290635
 30
0.0
 10
249.171986
 20
263.290635
 30
0.0
  0
SPLINE
  5
2fc
100
AcDbEntity
  8
Layer_1
 62
7
100
AcDbSpline
 70
8
 71
3
 72
8
 73
4
 74
0
 40
0
 40
0
 40
0
 40
0
 40
1
 40
1
 40
1
 40
1
 10
249.171986
 20
263.290635
 30
0.0
 10
249.998013
 20
263.290635
 30
0.0
 10
250.667204
 20
262.621093
 30
0.0
 10
250.667204
 20
261.795418
 30
0.0
  0
LINE
  5
2fd
100
AcDbEntity
  8
Layer_1
 62
7
100
AcDbLine
 10
250.667204
 20
261.795418
 30
0.0
 11
250.667204
 21
261.795418
 31
0.0
  0
SPLINE
  5
2fe
100
AcDbEntity
  8
Layer_1
 62
7
100
AcDbSpline
 70
8
 71
3
 72
8
 73
4
 74
0
 40
0
 40
0
 40
0
 40
0
 40
1
 40
1
 40
1
 40
1
 10
196.337908
 20
236.475916
 30
0.0
 10
196.337908
 20
235.649890
 30
0.0
 10
195.668365
 20
234.980699
 30
0.0
 10
194.842690
 20
234.980699
 30
0.0
  0
SPLINE
  5
2ff
100
AcDbEntity
  8
Layer_1
 62
7
100
AcDbSpline
 70
8
 71
3
 72
8
 73
4
 74
0
 40
0
 40
0
 40
0
 40
0
 40
1
 40
1
 40
1
 40
1
 10
194.842690
 20
234.980699
 30
0.0
 10
194.017015
 20
234.980699
 30
0.0
 10
193.347473
 20
235.649890
 30
0.0
 10
193.347473
 20
236.475916
 30
0.0
  0
SPLINE
  5
300
100
AcDbEntity
  8
Layer_1
 62
7
100
AcDbSpline
 70
8
 71
3
 72
8
 73
4
 74
0
 40
0
 40
0
 40
0
 40
0
 40
1
 40
1
 40
1
 40
1
 10
193.347473
 20
236.475916
 30
0.0
 10
193.347473
 20
237.301591
 30
0.0
 10
194.017015
 20
237.971134
 30
0.0
 10
194.842690
 20
237.971134
 30
0.0
  0
SPLINE
  5
301
100
AcDbEntity
  8
Layer_1
 62
7
100
AcDbSpline
 70
8
 71
3
 72
8
 73
4
 74
0
 40
0
 40
0
 40
0
 40
0
 40
1
 40
1
 40
1
 40
1
 10
194.842690
 20
237.971134
 30
0.0
 10
195.668365
 20
237.971134
 30
0.0
 10
196.337908
 20
237.301591
 30
0.0
 10
196.337908
 20
236.475916
 30
0.0
  0
LINE
  5
302
100
AcDbEntity
  8
Layer_1
 62
7
100
AcDbLine
 10
196.337908
 20
236.475916
 30
0.0
 11
196.337908
 21
236.475916
 31
0.0
  0
LINE
  5
303
100
AcDbEntity
  8
Layer_1
 62
1
100
AcDbLine
 10
254.098803
 20
218.893255
 30
0.0
 11
169.439677
 21
218.893255
 31
0.0
  0
LINE
  5
304
100
AcDbEntity
  8
Layer_1
 62
1
100
AcDbLine
 10
169.439677
 20
218.893255
 30
0.0
 11
169.439677
 21
274.329180
 31
0.0
  0
LINE
  5
305
100
AcDbEntity
  8
Layer_1
 62
1
100
AcDbLine
 10
169.439677
 20
274.329180
 30
0.0
 11
254.098803
 21
274.329180
 31
0.0
  0
LINE
  5
306
100
AcDbEntity
  8
Layer_1
 62
1
100
AcDbLine
 10
254.098803
 20
274.329180
 30
0.0
 11
254.098803
 21
218.893255
 31
0.0
  0
LINE
  5
307
100
AcDbEntity
  8
Layer_1
 62
1
100
AcDbLine
 10
254.098803
 20
218.893255
 30
0.0
 11
254.098803
 21
218.893255
 31
0.0
  0
LINE
  5
308
100
AcDbEntity
  8
Layer_1
 62
1
100
AcDbLine
 10
212.950961
 20
233.882142
 30
0.0
 11
211.609767
 21
233.882142
 31
0.0
  0
LINE
  5
309
100
AcDbEntity
  8
Layer_1
 62
1
100
AcDbLine
 10
211.609767
 20
233.882142
 30
0.0
 11
211.609767
 21
234.345617
 31
0.0
  0
SPLINE
  5
30a
100
AcDbEntity
  8
Layer_1
 62
1
100
AcDbSpline
 70
8
 71
3
 72
8
 73
4
 74
0
 40
0
 40
0
 40
0
 40
0
 40
1
 40
1
 40
1
 40
1
 10
211.609767
 20
234.345617
 30
0.0
 10
211.609767
 20
234.448650
 30
0.0
 10
211.614338
 20
234.522849
 30
0.0
 10
211.624184
 20
234.568212
 30
0.0
  0
SPLINE
  5
30b
100
AcDbEntity
  8
Layer_1
 62
1
100
AcDbSpline
 70
8
 71
3
 72
8
 73
4
 74
0
 40
0
 40
0
 40
0
 40
0
 40
1
 40
1
 40
1
 40
1
 10
211.624184
 20
234.568212
 30
0.0
 10
211.639305
 20
234.630102
 30
0.0
 10
211.666031
 20
234.690938
 30
0.0
 10
211.704361
 20
234.750718
 30
0.0
  0
SPLINE
  5
30c
100
AcDbEntity
  8
Layer_1
 62
1
100
AcDbSpline
 70
8
 71
3
 72
8
 73
4
 74
0
 40
0
 40
0
 40
0
 40
0
 40
1
 40
1
 40
1
 40
1
 10
211.704361
 20
234.750718
 30
0.0
 10
211.742691
 20
234.810499
 30
0.0
 10
211.810207
 20
234.878016
 30
0.0
 10
211.906208
 20
234.953620
 30
0.0
  0
SPLINE
  5
30d
100
AcDbEntity
  8
Layer_1
 62
1
100
AcDbSpline
 70
8
 71
3
 72
8
 73
4
 74
0
 40
0
 40
0
 40
0
 40
0
 40
1
 40
1
 40
1
 40
1
 10
211.906208
 20
234.953620
 30
0.0
 10
212.002560
 20
235.029225
 30
0.0
 10
212.141110
 20
235.125226
 30
0.0
 10
212.322562
 20
235.241974
 30
0.0
  0
LINE
  5
30e
100
AcDbEntity
  8
Layer_1
 62
1
100
AcDbLine
 10
212.322562
 20
235.241974
 30
0.0
 11
212.950961
 21
235.641800
 31
0.0
  0
LINE
  5
30f
100
AcDbEntity
  8
Layer_1
 62
1
100
AcDbLine
 10
212.950961
 20
235.641800
 30
0.0
 11
212.950961
 21
236.144660
 31
0.0
  0
LINE
  5
310
100
AcDbEntity
  8
Layer_1
 62
1
100
AcDbLine
 10
212.950961
 20
236.144660
 30
0.0
 11
212.128803
 21
235.618943
 31
0.0
  0
SPLINE
  5
311
100
AcDbEntity
  8
Layer_1
 62
1
100
AcDbSpline
 70
8
 71
3
 72
8
 73
4
 74
0
 40
0
 40
0
 40
0
 40
0
 40
1
 40
1
 40
1
 40
1
 10
212.128803
 20
235.618943
 30
0.0
 10
211.968098
 20
235.514854
 30
0.0
 10
211.834120
 20
235.404085
 30
0.0
 10
211.727218
 20
235.287337
 30
0.0
  0
SPLINE
  5
312
100
AcDbEntity
  8
Layer_1
 62
1
100
AcDbSpline
 70
8
 71
3
 72
8
 73
4
 74
0
 40
0
 40
0
 40
0
 40
0
 40
1
 40
1
 40
1
 40
1
 10
211.727218
 20
235.287337
 30
0.0
 10
211.677635
 20
235.232479
 30
0.0
 10
211.627349
 20
235.151951
 30
0.0
 10
211.576712
 20
235.046456
 30
0.0
  0
SPLINE
  5
313
100
AcDbEntity
  8
Layer_1
 62
1
100
AcDbSpline
 70
8
 71
3
 72
8
 73
4
 74
0
 40
0
 40
0
 40
0
 40
0
 40
1
 40
1
 40
1
 40
1
 10
211.576712
 20
235.046456
 30
0.0
 10
211.536975
 20
235.336216
 30
0.0
 10
211.443436
 20
235.550371
 30
0.0
 10
211.296446
 20
235.689273
 30
0.0
  0
SPLINE
  5
314
100
AcDbEntity
  8
Layer_1
 62
1
100
AcDbSpline
 70
8
 71
3
 72
8
 73
4
 74
0
 40
0
 40
0
 40
0
 40
0
 40
1
 40
1
 40
1
 40
1
 10
211.296446
 20
235.689273
 30
0.0
 10
211.149456
 20
235.827823
 30
0.0
 10
210.968708
 20
235.897098
 30
0.0
 10
210.754553
 20
235.897098
 30
0.0
  0
SPLINE
  5
315
100
AcDbEntity
  8
Layer_1
 62
1
100
AcDbSpline
 70
8
 71
3
 72
8
 73
4
 74
0
 40
0
 40
0
 40
0
 40
0
 40
1
 40
1
 40
1
 40
1
 10
210.754553
 20
235.897098
 30
0.0
 10
210.588222
 20
235.897098
 30
0.0
 10
210.436661
 20
235.855252
 30
0.0
 10
210.299166
 20
235.771559
 30
0.0
  0
SPLINE
  5
316
100
AcDbEntity
  8
Layer_1
 62
1
100
AcDbSpline
 70
8
 71
3
 72
8
 73
4
 74
0
 40
0
 40
0
 40
0
 40
0
 40
1
 40
1
 40
1
 40
1
 10
210.299166
 20
235.771559
 30
0.0
 10
210.161670
 20
235.687866
 30
0.0
 10
210.066021
 20
235.575690
 30
0.0
 10
210.011867
 20
235.435733
 30
0.0
  0
SPLINE
  5
317
100
AcDbEntity
  8
Layer_1
 62
1
100
AcDbSpline
 70
8
 71
3
 72
8
 73
4
 74
0
 40
0
 40
0
 40
0
 40
0
 40
1
 40
1
 40
1
 40
1
 10
210.011867
 20
235.435733
 30
0.0
 10
209.957361
 20
235.295776
 30
0.0
 10
209.930284
 20
235.091116
 30
0.0
 10
209.930284
 20
234.821751
 30
0.0
  0
LINE
  5
318
100
AcDbEntity
  8
Layer_1
 62
1
100
AcDbLine
 10
209.930284
 20
234.821751
 30
0.0
 11
209.930284
 21
233.482315
 31
0.0
  0
LINE
  5
319
100
AcDbEntity
  8
Layer_1
 62
1
100
AcDbLine
 10
209.930284
 20
233.482315
 30
0.0
 11
212.950961
 21
233.482315
 31
0.0
  0
LINE
  5
31a
100
AcDbEntity
  8
Layer_1
 62
1
100
AcDbLine
 10
212.950961
 20
233.482315
 30
0.0
 11
212.950961
 21
233.882142
 31
0.0
  0
LINE
  5
31b
100
AcDbEntity
  8
Layer_1
 62
1
100
AcDbLine
 10
212.950961
 20
233.882142
 30
0.0
 11
212.950961
 21
233.882142
 31
0.0
  0
LINE
  5
31c
100
AcDbEntity
  8
Layer_1
 62
1
100
AcDbLine
 10
210.264001
 20
233.882142
 30
0.0
 11
210.264001
 21
234.838279
 31
0.0
  0
SPLINE
  5
31d
100
AcDbEntity
  8
Layer_1
 62
1
100
AcDbSpline
 70
8
 71
3
 72
8
 73
4
 74
0
 40
0
 40
0
 40
0
 40
0
 40
1
 40
1
 40
1
 40
1
 10
210.264001
 20
234.838279
 30
0.0
 10
210.264001
 20
235.061929
 30
0.0
 10
210.310067
 20
235.225798
 30
0.0
 10
210.402199
 20
235.329535
 30
0.0
  0
SPLINE
  5
31e
100
AcDbEntity
  8
Layer_1
 62
1
100
AcDbSpline
 70
8
 71
3
 72
8
 73
4
 74
0
 40
0
 40
0
 40
0
 40
0
 40
1
 40
1
 40
1
 40
1
 10
210.402199
 20
235.329535
 30
0.0
 10
210.494332
 20
235.433272
 30
0.0
 10
210.611783
 20
235.485316
 30
0.0
 10
210.754553
 20
235.485316
 30
0.0
  0
SPLINE
  5
31f
100
AcDbEntity
  8
Layer_1
 62
1
100
AcDbSpline
 70
8
 71
3
 72
8
 73
4
 74
0
 40
0
 40
0
 40
0
 40
0
 40
1
 40
1
 40
1
 40
1
 10
210.754553
 20
235.485316
 30
0.0
 10
210.851960
 20
235.485316
 30
0.0
 10
210.942334
 20
235.458239
 30
0.0
 10
211.025324
 20
235.404788
 30
0.0
  0
SPLINE
  5
320
100
AcDbEntity
  8
Layer_1
 62
1
100
AcDbSpline
 70
8
 71
3
 72
8
 73
4
 74
0
 40
0
 40
0
 40
0
 40
0
 40
1
 40
1
 40
1
 40
1
 10
211.025324
 20
235.404788
 30
0.0
 10
211.108665
 20
235.351337
 30
0.0
 10
211.169149
 20
235.272919
 30
0.0
 10
211.206775
 20
235.169885
 30
0.0
  0
SPLINE
  5
321
100
AcDbEntity
  8
Layer_1
 62
1
100
AcDbSpline
 70
8
 71
3
 72
8
 73
4
 74
0
 40
0
 40
0
 40
0
 40
0
 40
1
 40
1
 40
1
 40
1
 10
211.206775
 20
235.169885
 30
0.0
 10
211.244402
 20
235.066852
 30
0.0
 10
211.263391
 20
234.924082
 30
0.0
 10
211.263391
 20
234.741224
 30
0.0
  0
LINE
  5
322
100
AcDbEntity
  8
Layer_1
 62
1
100
AcDbLine
 10
211.263391
 20
234.741224
 30
0.0
 11
211.263391
 21
233.882142
 31
0.0
  0
LINE
  5
323
100
AcDbEntity
  8
Layer_1
 62
1
100
AcDbLine
 10
211.263391
 20
233.882142
 30
0.0
 11
210.264001
 21
233.882142
 31
0.0
  0
LINE
  5
324
100
AcDbEntity
  8
Layer_1
 62
1
100
AcDbLine
 10
210.264001
 20
233.882142
 30
0.0
 11
210.264001
 21
233.882142
 31
0.0
  0
LINE
  5
325
100
AcDbEntity
  8
Layer_1
 62
1
100
AcDbLine
 10
212.950961
 20
238.189324
 30
0.0
 11
212.950961
 21
238.576843
 31
0.0
  0
SPLINE
  5
326
100
AcDbEntity
  8
Layer_1
 62
1
100
AcDbSpline
 70
8
 71
3
 72
8
 73
4
 74
0
 40
0
 40
0
 40
0
 40
0
 40
1
 40
1
 40
1
 40
1
 10
212.950961
 20
238.576843
 30
0.0
 10
212.867268
 20
238.530073
 30
0.0
 10
212.779707
 20
238.498776
 30
0.0
 10
212.688278
 20
238.482952
 30
0.0
  0
SPLINE
  5
327
100
AcDbEntity
  8
Layer_1
 62
1
100
AcDbSpline
 70
8
 71
3
 72
8
 73
4
 74
0
 40
0
 40
0
 40
0
 40
0
 40
1
 40
1
 40
1
 40
1
 10
212.688278
 20
238.482952
 30
0.0
 10
212.596849
 20
238.467128
 30
0.0
 10
212.378826
 20
238.459392
 30
0.0
 10
212.034209
 20
238.459392
 30
0.0
  0
LINE
  5
328
100
AcDbEntity
  8
Layer_1
 62
1
100
AcDbLine
 10
212.034209
 20
238.459392
 30
0.0
 11
211.539437
 21
238.459392
 31
0.0
  0
SPLINE
  5
329
100
AcDbEntity
  8
Layer_1
 62
1
100
AcDbSpline
 70
8
 71
3
 72
8
 73
4
 74
0
 40
0
 40
0
 40
0
 40
0
 40
1
 40
1
 40
1
 40
1
 10
211.539437
 20
238.459392
 30
0.0
 10
211.374864
 20
238.459392
 30
0.0
 10
211.260578
 20
238.453062
 30
0.0
 10
211.197632
 20
238.440754
 30
0.0
  0
SPLINE
  5
32a
100
AcDbEntity
  8
Layer_1
 62
1
100
AcDbSpline
 70
8
 71
3
 72
8
 73
4
 74
0
 40
0
 40
0
 40
0
 40
0
 40
1
 40
1
 40
1
 40
1
 10
211.197632
 20
238.440754
 30
0.0
 10
211.096005
 20
238.418600
 30
0.0
 10
211.011609
 20
238.380270
 30
0.0
 10
210.945147
 20
238.325413
 30
0.0
  0
SPLINE
  5
32b
100
AcDbEntity
  8
Layer_1
 62
1
100
AcDbSpline
 70
8
 71
3
 72
8
 73
4
 74
0
 40
0
 40
0
 40
0
 40
0
 40
1
 40
1
 40
1
 40
1
 10
210.945147
 20
238.325413
 30
0.0
 10
210.878334
 20
238.270204
 30
0.0
 10
210.823125
 20
238.184401
 30
0.0
 10
210.779168
 20
238.067653
 30
0.0
  0
SPLINE
  5
32c
100
AcDbEntity
  8
Layer_1
 62
1
100
AcDbSpline
 70
8
 71
3
 72
8
 73
4
 74
0
 40
0
 40
0
 40
0
 40
0
 40
1
 40
1
 40
1
 40
1
 10
210.779168
 20
238.067653
 30
0.0
 10
210.735212
 20
237.950905
 30
0.0
 10
210.713410
 20
237.799344
 30
0.0
 10
210.713410
 20
237.612266
 30
0.0
  0
SPLINE
  5
32d
100
AcDbEntity
  8
Layer_1
 62
1
100
AcDbSpline
 70
8
 71
3
 72
8
 73
4
 74
0
 40
0
 40
0
 40
0
 40
0
 40
1
 40
1
 40
1
 40
1
 10
210.713410
 20
237.612266
 30
0.0
 10
210.713410
 20
237.424133
 30
0.0
 10
210.739080
 20
237.258857
 30
0.0
 10
210.790421
 20
237.115735
 30
0.0
  0
SPLINE
  5
32e
100
AcDbEntity
  8
Layer_1
 62
1
100
AcDbSpline
 70
8
 71
3
 72
8
 73
4
 74
0
 40
0
 40
0
 40
0
 40
0
 40
1
 40
1
 40
1
 40
1
 10
210.790421
 20
237.115735
 30
0.0
 10
210.842114
 20
236.972965
 30
0.0
 10
210.915609
 20
236.863602
 30
0.0
 10
211.010906
 20
236.788349
 30
0.0
  0
SPLINE
  5
32f
100
AcDbEntity
  8
Layer_1
 62
1
100
AcDbSpline
 70
8
 71
3
 72
8
 73
4
 74
0
 40
0
 40
0
 40
0
 40
0
 40
1
 40
1
 40
1
 40
1
 10
211.010906
 20
236.788349
 30
0.0
 10
211.106555
 20
236.712744
 30
0.0
 10
211.231742
 20
236.658238
 30
0.0
 10
211.387172
 20
236.625535
 30
0.0
  0
LINE
  5
330
100
AcDbEntity
  8
Layer_1
 62
1
100
AcDbLine
 10
211.387172
 20
236.625535
 30
0.0
 11
211.436403
 21
236.988086
 31
0.0
  0
SPLINE
  5
331
100
AcDbEntity
  8
Layer_1
 62
1
100
AcDbSpline
 70
8
 71
3
 72
8
 73
4
 74
0
 40
0
 40
0
 40
0
 40
0
 40
1
 40
1
 40
1
 40
1
 10
211.436403
 20
236.988086
 30
0.0
 10
211.281325
 20
237.027823
 30
0.0
 10
211.173017
 20
237.089362
 30
0.0
 10
211.112181
 20
237.172351
 30
0.0
  0
SPLINE
  5
332
100
AcDbEntity
  8
Layer_1
 62
1
100
AcDbSpline
 70
8
 71
3
 72
8
 73
4
 74
0
 40
0
 40
0
 40
0
 40
0
 40
1
 40
1
 40
1
 40
1
 10
211.112181
 20
237.172351
 30
0.0
 10
211.050994
 20
237.255692
 30
0.0
 10
211.020401
 20
237.384396
 30
0.0
 10
211.020401
 20
237.558815
 30
0.0
  0
SPLINE
  5
333
100
AcDbEntity
  8
Layer_1
 62
1
100
AcDbSpline
 70
8
 71
3
 72
8
 73
4
 74
0
 40
0
 40
0
 40
0
 40
0
 40
1
 40
1
 40
1
 40
1
 10
211.020401
 20
237.558815
 30
0.0
 10
211.020401
 20
237.745541
 30
0.0
 10
211.062247
 20
237.886553
 30
0.0
 10
211.145940
 20
237.981147
 30
0.0
  0
SPLINE
  5
334
100
AcDbEntity
  8
Layer_1
 62
1
100
AcDbSpline
 70
8
 71
3
 72
8
 73
4
 74
0
 40
0
 40
0
 40
0
 40
0
 40
1
 40
1
 40
1
 40
1
 10
211.145940
 20
237.981147
 30
0.0
 10
211.207830
 20
238.051125
 30
0.0
 10
211.314380
 20
238.086291
 30
0.0
 10
211.465238
 20
238.086291
 30
0.0
  0
SPLINE
  5
335
100
AcDbEntity
  8
Layer_1
 62
1
100
AcDbSpline
 70
8
 71
3
 72
8
 73
4
 74
0
 40
0
 40
0
 40
0
 40
0
 40
1
 40
1
 40
1
 40
1
 10
211.465238
 20
238.086291
 30
0.0
 10
211.478953
 20
238.086291
 30
0.0
 10
211.511305
 20
238.085587
 30
0.0
 10
211.562294
 20
238.084181
 30
0.0
  0
SPLINE
  5
336
100
AcDbEntity
  8
Layer_1
 62
1
100
AcDbSpline
 70
8
 71
3
 72
8
 73
4
 74
0
 40
0
 40
0
 40
0
 40
0
 40
1
 40
1
 40
1
 40
1
 10
211.562294
 20
238.084181
 30
0.0
 10
211.611525
 20
237.942817
 30
0.0
 10
211.654075
 20
237.722332
 30
0.0
 10
211.689943
 20
237.422726
 30
0.0
  0
SPLINE
  5
337
100
AcDbEntity
  8
Layer_1
 62
1
100
AcDbSpline
 70
8
 71
3
 72
8
 73
4
 74
0
 40
0
 40
0
 40
0
 40
0
 40
1
 40
1
 40
1
 40
1
 10
211.689943
 20
237.422726
 30
0.0
 10
211.707877
 20
237.275736
 30
0.0
 10
211.726515
 20
237.166021
 30
0.0
 10
211.745504
 20
237.093230
 30
0.0
  0
SPLINE
  5
338
100
AcDbEntity
  8
Layer_1
 62
1
100
AcDbSpline
 70
8
 71
3
 72
8
 73
4
 74
0
 40
0
 40
0
 40
0
 40
0
 40
1
 40
1
 40
1
 40
1
 10
211.745504
 20
237.093230
 30
0.0
 10
211.772932
 20
236.994416
 30
0.0
 10
211.813724
 20
236.905449
 30
0.0
 10
211.867175
 20
236.826327
 30
0.0
  0
SPLINE
  5
339
100
AcDbEntity
  8
Layer_1
 62
1
100
AcDbSpline
 70
8
 71
3
 72
8
 73
4
 74
0
 40
0
 40
0
 40
0
 40
0
 40
1
 40
1
 40
1
 40
1
 10
211.867175
 20
236.826327
 30
0.0
 10
211.920626
 20
236.747206
 30
0.0
 10
211.991659
 20
236.683557
 30
0.0
 10
212.080275
 20
236.634678
 30
0.0
  0
SPLINE
  5
33a
100
AcDbEntity
  8
Layer_1
 62
1
100
AcDbSpline
 70
8
 71
3
 72
8
 73
4
 74
0
 40
0
 40
0
 40
0
 40
0
 40
1
 40
1
 40
1
 40
1
 10
212.080275
 20
236.634678
 30
0.0
 10
212.168891
 20
236.585798
 30
0.0
 10
212.267001
 20
236.561534
 30
0.0
 10
212.373903
 20
236.561534
 30
0.0
  0
SPLINE
  5
33b
100
AcDbEntity
  8
Layer_1
 62
1
100
AcDbSpline
 70
8
 71
3
 72
8
 73
4
 74
0
 40
0
 40
0
 40
0
 40
0
 40
1
 40
1
 40
1
 40
1
 10
212.373903
 20
236.561534
 30
0.0
 10
212.556761
 20
236.561534
 30
0.0
 10
212.706916
 20
236.626238
 30
0.0
 10
212.824367
 20
236.755294
 30
0.0
  0
SPLINE
  5
33c
100
AcDbEntity
  8
Layer_1
 62
1
100
AcDbSpline
 70
8
 71
3
 72
8
 73
4
 74
0
 40
0
 40
0
 40
0
 40
0
 40
1
 40
1
 40
1
 40
1
 10
212.824367
 20
236.755294
 30
0.0
 10
212.941818
 20
236.884350
 30
0.0
 10
213.000544
 20
237.068966
 30
0.0
 10
213.000544
 20
237.309495
 30
0.0
  0
SPLINE
  5
33d
100
AcDbEntity
  8
Layer_1
 62
1
100
AcDbSpline
 70
8
 71
3
 72
8
 73
4
 74
0
 40
0
 40
0
 40
0
 40
0
 40
1
 40
1
 40
1
 40
1
 10
213.000544
 20
237.309495
 30
0.0
 10
213.000544
 20
237.455078
 30
0.0
 10
212.976280
 20
237.591518
 30
0.0
 10
212.928456
 20
237.718464
 30
0.0
  0
SPLINE
  5
33e
100
AcDbEntity
  8
Layer_1
 62
1
100
AcDbSpline
 70
8
 71
3
 72
8
 73
4
 74
0
 40
0
 40
0
 40
0
 40
0
 40
1
 40
1
 40
1
 40
1
 10
212.928456
 20
237.718464
 30
0.0
 10
212.880279
 20
237.845410
 30
0.0
 10
212.797642
 20
237.977631
 30
0.0
 10
212.680894
 20
238.115126
 30
0.0
  0
SPLINE
  5
33f
100
AcDbEntity
  8
Layer_1
 62
1
100
AcDbSpline
 70
8
 71
3
 72
8
 73
4
 74
0
 40
0
 40
0
 40
0
 40
0
 40
1
 40
1
 40
1
 40
1
 10
212.680894
 20
238.115126
 30
0.0
 10
212.783927
 20
238.126027
 30
0.0
 10
212.873950
 20
238.150994
 30
0.0
 10
212.950961
 20
238.189324
 30
0.0
  0
LINE
  5
340
100
AcDbEntity
  8
Layer_1
 62
1
100
AcDbLine
 10
212.950961
 20
238.189324
 30
0.0
 11
212.950961
 21
238.189324
 31
0.0
  0
SPLINE
  5
341
100
AcDbEntity
  8
Layer_1
 62
1
100
AcDbSpline
 70
8
 71
3
 72
8
 73
4
 74
0
 40
0
 40
0
 40
0
 40
0
 40
1
 40
1
 40
1
 40
1
 10
211.988846
 20
238.084181
 30
0.0
 10
212.152363
 20
238.084181
 30
0.0
 10
212.275792
 20
238.064488
 30
0.0
 10
212.359485
 20
238.024400
 30
0.0
  0
SPLINE
  5
342
100
AcDbEntity
  8
Layer_1
 62
1
100
AcDbSpline
 70
8
 71
3
 72
8
 73
4
 74
0
 40
0
 40
0
 40
0
 40
0
 40
1
 40
1
 40
1
 40
1
 10
212.359485
 20
238.024400
 30
0.0
 10
212.468145
 20
237.972356
 30
0.0
 10
212.553596
 20
237.890421
 30
0.0
 10
212.616190
 20
237.779300
 30
0.0
  0
SPLINE
  5
343
100
AcDbEntity
  8
Layer_1
 62
1
100
AcDbSpline
 70
8
 71
3
 72
8
 73
4
 74
0
 40
0
 40
0
 40
0
 40
0
 40
1
 40
1
 40
1
 40
1
 10
212.616190
 20
237.779300
 30
0.0
 10
212.678784
 20
237.668178
 30
0.0
 10
212.709729
 20
237.540881
 30
0.0
 10
212.709729
 20
237.398111
 30
0.0
  0
SPLINE
  5
344
100
AcDbEntity
  8
Layer_1
 62
1
100
AcDbSpline
 70
8
 71
3
 72
8
 73
4
 74
0
 40
0
 40
0
 40
0
 40
0
 40
1
 40
1
 40
1
 40
1
 10
212.709729
 20
237.398111
 30
0.0
 10
212.709729
 20
237.253934
 30
0.0
 10
212.677026
 20
237.144219
 30
0.0
 10
212.610915
 20
237.069318
 30
0.0
  0
SPLINE
  5
345
100
AcDbEntity
  8
Layer_1
 62
1
100
AcDbSpline
 70
8
 71
3
 72
8
 73
4
 74
0
 40
0
 40
0
 40
0
 40
0
 40
1
 40
1
 40
1
 40
1
 10
212.610915
 20
237.069318
 30
0.0
 10
212.545157
 20
236.994768
 30
0.0
 10
212.462519
 20
236.957141
 30
0.0
 10
212.363705
 20
236.957141
 30
0.0
  0
SPLINE
  5
346
100
AcDbEntity
  8
Layer_1
 62
1
100
AcDbSpline
 70
8
 71
3
 72
8
 73
4
 74
0
 40
0
 40
0
 40
0
 40
0
 40
1
 40
1
 40
1
 40
1
 10
212.363705
 20
236.957141
 30
0.0
 10
212.299001
 20
236.957141
 30
0.0
 10
212.240276
 20
236.974372
 30
0.0
 10
212.187528
 20
237.008834
 30
0.0
  0
SPLINE
  5
347
100
AcDbEntity
  8
Layer_1
 62
1
100
AcDbSpline
 70
8
 71
3
 72
8
 73
4
 74
0
 40
0
 40
0
 40
0
 40
0
 40
1
 40
1
 40
1
 40
1
 10
212.187528
 20
237.008834
 30
0.0
 10
212.134781
 20
237.042944
 30
0.0
 10
212.094341
 20
237.091823
 30
0.0
 10
212.066912
 20
237.155120
 30
0.0
  0
SPLINE
  5
348
100
AcDbEntity
  8
Layer_1
 62
1
100
AcDbSpline
 70
8
 71
3
 72
8
 73
4
 74
0
 40
0
 40
0
 40
0
 40
0
 40
1
 40
1
 40
1
 40
1
 10
212.066912
 20
237.155120
 30
0.0
 10
212.039483
 20
237.218066
 30
0.0
 10
212.014868
 20
237.326022
 30
0.0
 10
211.992714
 20
237.478639
 30
0.0
  0
SPLINE
  5
349
100
AcDbEntity
  8
Layer_1
 62
1
100
AcDbSpline
 70
8
 71
3
 72
8
 73
4
 74
0
 40
0
 40
0
 40
0
 40
0
 40
1
 40
1
 40
1
 40
1
 10
211.992714
 20
237.478639
 30
0.0
 10
211.954384
 20
237.747651
 30
0.0
 10
211.907615
 20
237.949499
 30
0.0
 10
211.852757
 20
238.084181
 30
0.0
  0
LINE
  5
34a
100
AcDbEntity
  8
Layer_1
 62
1
100
AcDbLine
 10
211.852757
 20
238.084181
 30
0.0
 11
211.988846
 21
238.084181
 31
0.0
  0
LINE
  5
34b
100
AcDbEntity
  8
Layer_1
 62
1
100
AcDbLine
 10
211.988846
 20
238.084181
 30
0.0
 11
211.988846
 21
238.084181
 31
0.0
  0
SPLINE
  5
34c
100
AcDbEntity
  8
Layer_1
 62
1
100
AcDbSpline
 70
8
 71
3
 72
8
 73
4
 74
0
 40
0
 40
0
 40
0
 40
0
 40
1
 40
1
 40
1
 40
1
 10
212.823244
 20
239.382150
 30
0.0
 10
212.941399
 20
239.531250
 30
0.0
 10
213.000476
 20
239.747867
 30
0.0
 10
213.000476
 20
240.032352
 30
0.0
  0
SPLINE
  5
34d
100
AcDbEntity
  8
Layer_1
 62
1
100
AcDbSpline
 70
8
 71
3
 72
8
 73
4
 74
0
 40
0
 40
0
 40
0
 40
0
 40
1
 40
1
 40
1
 40
1
 10
213.000476
 20
240.032352
 30
0.0
 10
213.000476
 20
240.203957
 30
0.0
 10
212.970586
 20
240.357629
 30
0.0
 10
212.910805
 20
240.493717
 30
0.0
  0
SPLINE
  5
34e
100
AcDbEntity
  8
Layer_1
 62
1
100
AcDbSpline
 70
8
 71
3
 72
8
 73
4
 74
0
 40
0
 40
0
 40
0
 40
0
 40
1
 40
1
 40
1
 40
1
 10
212.910805
 20
240.493717
 30
0.0
 10
212.851025
 20
240.629806
 30
0.0
 10
212.766629
 20
240.733895
 30
0.0
 10
212.657265
 20
240.805983
 30
0.0
  0
SPLINE
  5
34f
100
AcDbEntity
  8
Layer_1
 62
1
100
AcDbSpline
 70
8
 71
3
 72
8
 73
4
 74
0
 40
0
 40
0
 40
0
 40
0
 40
1
 40
1
 40
1
 40
1
 10
212.657265
 20
240.805983
 30
0.0
 10
212.548254
 20
240.878071
 30
0.0
 10
212.431857
 20
240.913939
 30
0.0
 10
212.308077
 20
240.913939
 30
0.0
  0
SPLINE
  5
350
100
AcDbEntity
  8
Layer_1
 62
1
100
AcDbSpline
 70
8
 71
3
 72
8
 73
4
 74
0
 40
0
 40
0
 40
0
 40
0
 40
1
 40
1
 40
1
 40
1
 10
212.308077
 20
240.913939
 30
0.0
 10
212.181834
 20
240.913939
 30
0.0
 10
212.075987
 20
240.884401
 30
0.0
 10
211.990888
 20
240.825324
 30
0.0
  0
SPLINE
  5
351
100
AcDbEntity
  8
Layer_1
 62
1
100
AcDbSpline
 70
8
 71
3
 72
8
 73
4
 74
0
 40
0
 40
0
 40
0
 40
0
 40
1
 40
1
 40
1
 40
1
 10
211.990888
 20
240.825324
 30
0.0
 10
211.905789
 20
240.766598
 30
0.0
 10
211.840733
 20
240.685015
 30
0.0
 10
211.796074
 20
240.581278
 30
0.0
  0
SPLINE
  5
352
100
AcDbEntity
  8
Layer_1
 62
1
100
AcDbSpline
 70
8
 71
3
 72
8
 73
4
 74
0
 40
0
 40
0
 40
0
 40
0
 40
1
 40
1
 40
1
 40
1
 10
211.796074
 20
240.581278
 30
0.0
 10
211.751414
 20
240.477541
 30
0.0
 10
211.694095
 20
240.294683
 30
0.0
 10
211.624117
 20
240.032352
 30
0.0
  0
SPLINE
  5
353
100
AcDbEntity
  8
Layer_1
 62
1
100
AcDbSpline
 70
8
 71
3
 72
8
 73
4
 74
0
 40
0
 40
0
 40
0
 40
0
 40
1
 40
1
 40
1
 40
1
 10
211.624117
 20
240.032352
 30
0.0
 10
211.574534
 20
239.850900
 30
0.0
 10
211.542885
 20
239.741537
 30
0.0
 10
211.529171
 20
239.704614
 30
0.0
  0
SPLINE
  5
354
100
AcDbEntity
  8
Layer_1
 62
1
100
AcDbSpline
 70
8
 71
3
 72
8
 73
4
 74
0
 40
0
 40
0
 40
0
 40
0
 40
1
 40
1
 40
1
 40
1
 10
211.529171
 20
239.704614
 30
0.0
 10
211.503149
 20
239.639910
 30
0.0
 10
211.470094
 20
239.592789
 30
0.0
 10
211.430357
 20
239.562547
 30
0.0
  0
SPLINE
  5
355
100
AcDbEntity
  8
Layer_1
 62
1
100
AcDbSpline
 70
8
 71
3
 72
8
 73
4
 74
0
 40
0
 40
0
 40
0
 40
0
 40
1
 40
1
 40
1
 40
1
 10
211.430357
 20
239.562547
 30
0.0
 10
211.392027
 20
239.532305
 30
0.0
 10
211.348774
 20
239.517184
 30
0.0
 10
211.300598
 20
239.517184
 30
0.0
  0
SPLINE
  5
356
100
AcDbEntity
  8
Layer_1
 62
1
100
AcDbSpline
 70
8
 71
3
 72
8
 73
4
 74
0
 40
0
 40
0
 40
0
 40
0
 40
1
 40
1
 40
1
 40
1
 10
211.300598
 20
239.517184
 30
0.0
 10
211.224993
 20
239.517184
 30
0.0
 10
211.159235
 20
239.553404
 30
0.0
 10
211.102619
 20
239.626196
 30
0.0
  0
SPLINE
  5
357
100
AcDbEntity
  8
Layer_1
 62
1
100
AcDbSpline
 70
8
 71
3
 72
8
 73
4
 74
0
 40
0
 40
0
 40
0
 40
0
 40
1
 40
1
 40
1
 40
1
 10
211.102619
 20
239.626196
 30
0.0
 10
211.046355
 20
239.698987
 30
0.0
 10
211.018223
 20
239.820658
 30
0.0
 10
211.018223
 20
239.990857
 30
0.0
  0
SPLINE
  5
358
100
AcDbEntity
  8
Layer_1
 62
1
100
AcDbSpline
 70
8
 71
3
 72
8
 73
4
 74
0
 40
0
 40
0
 40
0
 40
0
 40
1
 40
1
 40
1
 40
1
 10
211.018223
 20
239.990857
 30
0.0
 10
211.018223
 20
240.135386
 30
0.0
 10
211.049871
 20
240.246859
 30
0.0
 10
211.113169
 20
240.325980
 30
0.0
  0
SPLINE
  5
359
100
AcDbEntity
  8
Layer_1
 62
1
100
AcDbSpline
 70
8
 71
3
 72
8
 73
4
 74
0
 40
0
 40
0
 40
0
 40
0
 40
1
 40
1
 40
1
 40
1
 10
211.113169
 20
240.325980
 30
0.0
 10
211.176114
 20
240.404750
 30
0.0
 10
211.264027
 20
240.452574
 30
0.0
 10
211.376906
 20
240.469102
 30
0.0
  0
LINE
  5
35a
100
AcDbEntity
  8
Layer_1
 62
1
100
AcDbLine
 10
211.376906
 20
240.469102
 30
0.0
 11
211.327324
 21
240.831653
 31
0.0
  0
SPLINE
  5
35b
100
AcDbEntity
  8
Layer_1
 62
1
100
AcDbSpline
 70
8
 71
3
 72
8
 73
4
 74
0
 40
0
 40
0
 40
0
 40
0
 40
1
 40
1
 40
1
 40
1
 10
211.327324
 20
240.831653
 30
0.0
 10
211.185960
 20
240.808444
 30
0.0
 10
211.072729
 20
240.765895
 30
0.0
 10
210.988333
 20
240.704004
 30
0.0
  0
SPLINE
  5
35c
100
AcDbEntity
  8
Layer_1
 62
1
100
AcDbSpline
 70
8
 71
3
 72
8
 73
4
 74
0
 40
0
 40
0
 40
0
 40
0
 40
1
 40
1
 40
1
 40
1
 10
210.988333
 20
240.704004
 30
0.0
 10
210.903937
 20
240.642114
 30
0.0
 10
210.837123
 20
240.546465
 30
0.0
 10
210.787540
 20
240.416354
 30
0.0
  0
SPLINE
  5
35d
100
AcDbEntity
  8
Layer_1
 62
1
100
AcDbSpline
 70
8
 71
3
 72
8
 73
4
 74
0
 40
0
 40
0
 40
0
 40
0
 40
1
 40
1
 40
1
 40
1
 10
210.787540
 20
240.416354
 30
0.0
 10
210.737958
 20
240.286595
 30
0.0
 10
210.713342
 20
240.136089
 30
0.0
 10
210.713342
 20
239.964132
 30
0.0
  0
SPLINE
  5
35e
100
AcDbEntity
  8
Layer_1
 62
1
100
AcDbSpline
 70
8
 71
3
 72
8
 73
4
 74
0
 40
0
 40
0
 40
0
 40
0
 40
1
 40
1
 40
1
 40
1
 10
210.713342
 20
239.964132
 30
0.0
 10
210.713342
 20
239.850197
 30
0.0
 10
210.728111
 20
239.743295
 30
0.0
 10
210.757650
 20
239.643778
 30
0.0
  0
SPLINE
  5
35f
100
AcDbEntity
  8
Layer_1
 62
1
100
AcDbSpline
 70
8
 71
3
 72
8
 73
4
 74
0
 40
0
 40
0
 40
0
 40
0
 40
1
 40
1
 40
1
 40
1
 10
210.757650
 20
239.643778
 30
0.0
 10
210.787189
 20
239.544261
 30
0.0
 10
210.823057
 20
239.465492
 30
0.0
 10
210.865958
 20
239.407821
 30
0.0
  0
SPLINE
  5
360
100
AcDbEntity
  8
Layer_1
 62
1
100
AcDbSpline
 70
8
 71
3
 72
8
 73
4
 74
0
 40
0
 40
0
 40
0
 40
0
 40
1
 40
1
 40
1
 40
1
 10
210.865958
 20
239.407821
 30
0.0
 10
210.920816
 20
239.330809
 30
0.0
 10
210.989739
 20
239.270326
 30
0.0
 10
211.072729
 20
239.225666
 30
0.0
  0
SPLINE
  5
361
100
AcDbEntity
  8
Layer_1
 62
1
100
AcDbSpline
 70
8
 71
3
 72
8
 73
4
 74
0
 40
0
 40
0
 40
0
 40
0
 40
1
 40
1
 40
1
 40
1
 10
211.072729
 20
239.225666
 30
0.0
 10
211.156070
 20
239.181006
 30
0.0
 10
211.246444
 20
239.158501
 30
0.0
 10
211.343851
 20
239.158501
 30
0.0
  0
SPLINE
  5
362
100
AcDbEntity
  8
Layer_1
 62
1
100
AcDbSpline
 70
8
 71
3
 72
8
 73
4
 74
0
 40
0
 40
0
 40
0
 40
0
 40
1
 40
1
 40
1
 40
1
 10
211.343851
 20
239.158501
 30
0.0
 10
211.451105
 20
239.158501
 30
0.0
 10
211.548863
 20
239.185578
 30
0.0
 10
211.637479
 20
239.240084
 30
0.0
  0
SPLINE
  5
363
100
AcDbEntity
  8
Layer_1
 62
1
100
AcDbSpline
 70
8
 71
3
 72
8
 73
4
 74
0
 40
0
 40
0
 40
0
 40
0
 40
1
 40
1
 40
1
 40
1
 10
211.637479
 20
239.240084
 30
0.0
 10
211.726095
 20
239.294238
 30
0.0
 10
211.795370
 20
239.374062
 30
0.0
 10
211.845656
 20
239.478854
 30
0.0
  0
SPLINE
  5
364
100
AcDbEntity
  8
Layer_1
 62
1
100
AcDbSpline
 70
8
 71
3
 72
8
 73
4
 74
0
 40
0
 40
0
 40
0
 40
0
 40
1
 40
1
 40
1
 40
1
 10
211.845656
 20
239.478854
 30
0.0
 10
211.895591
 20
239.583998
 30
0.0
 10
211.955020
 20
239.772482
 30
0.0
 10
212.023943
 20
240.044660
 30
0.0
  0
SPLINE
  5
365
100
AcDbEntity
  8
Layer_1
 62
1
100
AcDbSpline
 70
8
 71
3
 72
8
 73
4
 74
0
 40
0
 40
0
 40
0
 40
0
 40
1
 40
1
 40
1
 40
1
 10
212.023943
 20
240.044660
 30
0.0
 10
212.074581
 20
240.246507
 30
0.0
 10
212.116427
 20
240.372750
 30
0.0
 10
212.149482
 20
240.423739
 30
0.0
  0
SPLINE
  5
366
100
AcDbEntity
  8
Layer_1
 62
1
100
AcDbSpline
 70
8
 71
3
 72
8
 73
4
 74
0
 40
0
 40
0
 40
0
 40
0
 40
1
 40
1
 40
1
 40
1
 10
212.149482
 20
240.423739
 30
0.0
 10
212.197658
 20
240.496530
 30
0.0
 10
212.263417
 20
240.532750
 30
0.0
 10
212.347110
 20
240.532750
 30
0.0
  0
SPLINE
  5
367
100
AcDbEntity
  8
Layer_1
 62
1
100
AcDbSpline
 70
8
 71
3
 72
8
 73
4
 74
0
 40
0
 40
0
 40
0
 40
0
 40
1
 40
1
 40
1
 40
1
 10
212.347110
 20
240.532750
 30
0.0
 10
212.440649
 20
240.532750
 30
0.0
 10
212.522232
 20
240.491607
 30
0.0
 10
212.591507
 20
240.409321
 30
0.0
  0
SPLINE
  5
368
100
AcDbEntity
  8
Layer_1
 62
1
100
AcDbSpline
 70
8
 71
3
 72
8
 73
4
 74
0
 40
0
 40
0
 40
0
 40
0
 40
1
 40
1
 40
1
 40
1
 10
212.591507
 20
240.409321
 30
0.0
 10
212.660782
 20
240.327035
 30
0.0
 10
212.695595
 20
240.200441
 30
0.0
 10
212.695595
 20
240.030242
 30
0.0
  0
SPLINE
  5
369
100
AcDbEntity
  8
Layer_1
 62
1
100
AcDbSpline
 70
8
 71
3
 72
8
 73
4
 74
0
 40
0
 40
0
 40
0
 40
0
 40
1
 40
1
 40
1
 40
1
 10
212.695595
 20
240.030242
 30
0.0
 10
212.695595
 20
239.861098
 30
0.0
 10
212.656210
 20
239.729581
 30
0.0
 10
212.578144
 20
239.635690
 30
0.0
  0
SPLINE
  5
36a
100
AcDbEntity
  8
Layer_1
 62
1
100
AcDbSpline
 70
8
 71
3
 72
8
 73
4
 74
0
 40
0
 40
0
 40
0
 40
0
 40
1
 40
1
 40
1
 40
1
 10
212.578144
 20
239.635690
 30
0.0
 10
212.499726
 20
239.541448
 30
0.0
 10
212.387198
 20
239.484129
 30
0.0
 10
212.240208
 20
239.463382
 30
0.0
  0
LINE
  5
36b
100
AcDbEntity
  8
Layer_1
 62
1
100
AcDbLine
 10
212.240208
 20
239.463382
 30
0.0
 11
212.297879
 21
239.096610
 31
0.0
  0
SPLINE
  5
36c
100
AcDbEntity
  8
Layer_1
 62
1
100
AcDbSpline
 70
8
 71
3
 72
8
 73
4
 74
0
 40
0
 40
0
 40
0
 40
0
 40
1
 40
1
 40
1
 40
1
 10
212.297879
 20
239.096610
 30
0.0
 10
212.529968
 20
239.138105
 30
0.0
 10
212.705090
 20
239.233051
 30
0.0
 10
212.823244
 20
239.382150
 30
0.0
  0
LINE
  5
36d
100
AcDbEntity
  8
Layer_1
 62
1
100
AcDbLine
 10
212.823244
 20
239.382150
 30
0.0
 11
212.823244
 21
239.382150
 31
0.0
  0
LINE
  5
36e
100
AcDbEntity
  8
Layer_1
 62
1
100
AcDbLine
 10
213.789579
 20
241.936792
 30
0.0
 11
212.724430
 21
241.936792
 31
0.0
  0
SPLINE
  5
36f
100
AcDbEntity
  8
Layer_1
 62
1
100
AcDbSpline
 70
8
 71
3
 72
8
 73
4
 74
0
 40
0
 40
0
 40
0
 40
0
 40
1
 40
1
 40
1
 40
1
 10
212.724430
 20
241.936792
 30
0.0
 10
212.803903
 20
242.000089
 30
0.0
 10
212.870013
 20
242.080617
 30
0.0
 10
212.922057
 20
242.178728
 30
0.0
  0
SPLINE
  5
370
100
AcDbEntity
  8
Layer_1
 62
1
100
AcDbSpline
 70
8
 71
3
 72
8
 73
4
 74
0
 40
0
 40
0
 40
0
 40
0
 40
1
 40
1
 40
1
 40
1
 10
212.922057
 20
242.178728
 30
0.0
 10
212.974453
 20
242.277190
 30
0.0
 10
213.000475
 20
242.387960
 30
0.0
 10
213.000475
 20
242.511740
 30
0.0
  0
SPLINE
  5
371
100
AcDbEntity
  8
Layer_1
 62
1
100
AcDbSpline
 70
8
 71
3
 72
8
 73
4
 74
0
 40
0
 40
0
 40
0
 40
0
 40
1
 40
1
 40
1
 40
1
 10
213.000475
 20
242.511740
 30
0.0
 10
213.000475
 20
242.680533
 30
0.0
 10
212.952651
 20
242.841589
 30
0.0
 10
212.857354
 20
242.994908
 30
0.0
  0
SPLINE
  5
372
100
AcDbEntity
  8
Layer_1
 62
1
100
AcDbSpline
 70
8
 71
3
 72
8
 73
4
 74
0
 40
0
 40
0
 40
0
 40
0
 40
1
 40
1
 40
1
 40
1
 10
212.857354
 20
242.994908
 30
0.0
 10
212.761705
 20
243.147876
 30
0.0
 10
212.624561
 20
243.264624
 30
0.0
 10
212.445219
 20
243.345152
 30
0.0
  0
SPLINE
  5
373
100
AcDbEntity
  8
Layer_1
 62
1
100
AcDbSpline
 70
8
 71
3
 72
8
 73
4
 74
0
 40
0
 40
0
 40
0
 40
0
 40
1
 40
1
 40
1
 40
1
 10
212.445219
 20
243.345152
 30
0.0
 10
212.265878
 20
243.425328
 30
0.0
 10
212.064382
 20
243.465768
 30
0.0
 10
211.840381
 20
243.465768
 30
0.0
  0
SPLINE
  5
374
100
AcDbEntity
  8
Layer_1
 62
1
100
AcDbSpline
 70
8
 71
3
 72
8
 73
4
 74
0
 40
0
 40
0
 40
0
 40
0
 40
1
 40
1
 40
1
 40
1
 10
211.840381
 20
243.465768
 30
0.0
 10
211.631501
 20
243.465768
 30
0.0
 10
211.439499
 20
243.429196
 30
0.0
 10
211.264377
 20
243.356405
 30
0.0
  0
SPLINE
  5
375
100
AcDbEntity
  8
Layer_1
 62
1
100
AcDbSpline
 70
8
 71
3
 72
8
 73
4
 74
0
 40
0
 40
0
 40
0
 40
0
 40
1
 40
1
 40
1
 40
1
 10
211.264377
 20
243.356405
 30
0.0
 10
211.089256
 20
243.283613
 30
0.0
 10
210.953870
 20
243.175656
 30
0.0
 10
210.857518
 20
243.032886
 30
0.0
  0
SPLINE
  5
376
100
AcDbEntity
  8
Layer_1
 62
1
100
AcDbSpline
 70
8
 71
3
 72
8
 73
4
 74
0
 40
0
 40
0
 40
0
 40
0
 40
1
 40
1
 40
1
 40
1
 10
210.857518
 20
243.032886
 30
0.0
 10
210.761517
 20
242.890116
 30
0.0
 10
210.713341
 20
242.725192
 30
0.0
 10
210.713341
 20
242.538466
 30
0.0
  0
SPLINE
  5
377
100
AcDbEntity
  8
Layer_1
 62
1
100
AcDbSpline
 70
8
 71
3
 72
8
 73
4
 74
0
 40
0
 40
0
 40
0
 40
0
 40
1
 40
1
 40
1
 40
1
 10
210.713341
 20
242.538466
 30
0.0
 10
210.713341
 20
242.395696
 30
0.0
 10
210.741122
 20
242.274025
 30
0.0
 10
210.796682
 20
242.173804
 30
0.0
  0
SPLINE
  5
378
100
AcDbEntity
  8
Layer_1
 62
1
100
AcDbSpline
 70
8
 71
3
 72
8
 73
4
 74
0
 40
0
 40
0
 40
0
 40
0
 40
1
 40
1
 40
1
 40
1
 10
210.796682
 20
242.173804
 30
0.0
 10
210.852243
 20
242.073584
 30
0.0
 10
210.935936
 20
241.983562
 30
0.0
 10
211.047058
 20
241.903737
 30
0.0
  0
LINE
  5
379
100
AcDbEntity
  8
Layer_1
 62
1
100
AcDbLine
 10
211.047058
 20
241.903737
 30
0.0
 11
210.762924
 21
241.903737
 31
0.0
  0
LINE
  5
37a
100
AcDbEntity
  8
Layer_1
 62
1
100
AcDbLine
 10
210.762924
 20
241.903737
 30
0.0
 11
210.762924
 21
241.565801
 31
0.0
  0
LINE
  5
37b
100
AcDbEntity
  8
Layer_1
 62
1
100
AcDbLine
 10
210.762924
 20
241.565801
 30
0.0
 11
213.789579
 21
241.565801
 31
0.0
  0
LINE
  5
37c
100
AcDbEntity
  8
Layer_1
 62
1
100
AcDbLine
 10
213.789579
 20
241.565801
 30
0.0
 11
213.789579
 21
241.936792
 31
0.0
  0
LINE
  5
37d
100
AcDbEntity
  8
Layer_1
 62
1
100
AcDbLine
 10
213.789579
 20
241.936792
 30
0.0
 11
213.789579
 21
241.936792
 31
0.0
  0
SPLINE
  5
37e
100
AcDbEntity
  8
Layer_1
 62
1
100
AcDbSpline
 70
8
 71
3
 72
8
 73
4
 74
0
 40
0
 40
0
 40
0
 40
0
 40
1
 40
1
 40
1
 40
1
 10
211.225344
 20
242.084134
 30
0.0
 10
211.077651
 20
242.205805
 30
0.0
 10
211.003805
 20
242.345410
 30
0.0
 10
211.003805
 20
242.503301
 30
0.0
  0
SPLINE
  5
37f
100
AcDbEntity
  8
Layer_1
 62
1
100
AcDbSpline
 70
8
 71
3
 72
8
 73
4
 74
0
 40
0
 40
0
 40
0
 40
0
 40
1
 40
1
 40
1
 40
1
 10
211.003805
 20
242.503301
 30
0.0
 10
211.003805
 20
242.662599
 30
0.0
 10
211.073080
 20
242.799742
 30
0.0
 10
211.211982
 20
242.914380
 30
0.0
  0
SPLINE
  5
380
100
AcDbEntity
  8
Layer_1
 62
1
100
AcDbSpline
 70
8
 71
3
 72
8
 73
4
 74
0
 40
0
 40
0
 40
0
 40
0
 40
1
 40
1
 40
1
 40
1
 10
211.211982
 20
242.914380
 30
0.0
 10
211.350532
 20
243.029018
 30
0.0
 10
211.559412
 20
243.086689
 30
0.0
 10
211.838271
 20
243.086689
 30
0.0
  0
SPLINE
  5
381
100
AcDbEntity
  8
Layer_1
 62
1
100
AcDbSpline
 70
8
 71
3
 72
8
 73
4
 74
0
 40
0
 40
0
 40
0
 40
0
 40
1
 40
1
 40
1
 40
1
 10
211.838271
 20
243.086689
 30
0.0
 10
212.130844
 20
243.086689
 30
0.0
 10
212.346757
 20
243.027963
 30
0.0
 10
212.486363
 20
242.910512
 30
0.0
  0
SPLINE
  5
382
100
AcDbEntity
  8
Layer_1
 62
1
100
AcDbSpline
 70
8
 71
3
 72
8
 73
4
 74
0
 40
0
 40
0
 40
0
 40
0
 40
1
 40
1
 40
1
 40
1
 10
212.486363
 20
242.910512
 30
0.0
 10
212.625616
 20
242.793061
 30
0.0
 10
212.695595
 20
242.651697
 30
0.0
 10
212.695595
 20
242.486773
 30
0.0
  0
SPLINE
  5
383
100
AcDbEntity
  8
Layer_1
 62
1
100
AcDbSpline
 70
8
 71
3
 72
8
 73
4
 74
0
 40
0
 40
0
 40
0
 40
0
 40
1
 40
1
 40
1
 40
1
 10
212.695595
 20
242.486773
 30
0.0
 10
212.695595
 20
242.325014
 30
0.0
 10
212.628078
 20
242.186816
 30
0.0
 10
212.493396
 20
242.072881
 30
0.0
  0
SPLINE
  5
384
100
AcDbEntity
  8
Layer_1
 62
1
100
AcDbSpline
 70
8
 71
3
 72
8
 73
4
 74
0
 40
0
 40
0
 40
0
 40
0
 40
1
 40
1
 40
1
 40
1
 10
212.493396
 20
242.072881
 30
0.0
 10
212.359065
 20
241.958946
 30
0.0
 10
212.150888
 20
241.901627
 30
0.0
 10
211.869216
 20
241.901627
 30
0.0
  0
SPLINE
  5
385
100
AcDbEntity
  8
Layer_1
 62
1
100
AcDbSpline
 70
8
 71
3
 72
8
 73
4
 74
0
 40
0
 40
0
 40
0
 40
0
 40
1
 40
1
 40
1
 40
1
 10
211.869216
 20
241.901627
 30
0.0
 10
211.587544
 20
241.901627
 30
0.0
 10
211.373037
 20
241.962463
 30
0.0
 10
211.225344
 20
242.084134
 30
0.0
  0
LINE
  5
386
100
AcDbEntity
  8
Layer_1
 62
1
100
AcDbLine
 10
211.225344
 20
242.084134
 30
0.0
 11
211.225344
 21
242.084134
 31
0.0
  0
SPLINE
  5
387
100
AcDbEntity
  8
Layer_1
 62
1
100
AcDbSpline
 70
8
 71
3
 72
8
 73
4
 74
0
 40
0
 40
0
 40
0
 40
0
 40
1
 40
1
 40
1
 40
1
 10
212.676921
 20
244.465833
 30
0.0
 10
212.892482
 20
244.612823
 30
0.0
 10
213.000439
 20
244.815374
 30
0.0
 10
213.000439
 20
245.073837
 30
0.0
  0
SPLINE
  5
388
100
AcDbEntity
  8
Layer_1
 62
1
100
AcDbSpline
 70
8
 71
3
 72
8
 73
4
 74
0
 40
0
 40
0
 40
0
 40
0
 40
1
 40
1
 40
1
 40
1
 10
213.000439
 20
245.073837
 30
0.0
 10
213.000439
 20
245.333355
 30
0.0
 10
212.898109
 20
245.555950
 30
0.0
 10
212.693448
 20
245.741269
 30
0.0
  0
SPLINE
  5
389
100
AcDbEntity
  8
Layer_1
 62
1
100
AcDbSpline
 70
8
 71
3
 72
8
 73
4
 74
0
 40
0
 40
0
 40
0
 40
0
 40
1
 40
1
 40
1
 40
1
 10
212.693448
 20
245.741269
 30
0.0
 10
212.488788
 20
245.926589
 30
0.0
 10
212.199028
 20
246.019425
 30
0.0
 10
211.823817
 20
246.019425
 30
0.0
  0
SPLINE
  5
38a
100
AcDbEntity
  8
Layer_1
 62
1
100
AcDbSpline
 70
8
 71
3
 72
8
 73
4
 74
0
 40
0
 40
0
 40
0
 40
0
 40
1
 40
1
 40
1
 40
1
 10
211.823817
 20
246.019425
 30
0.0
 10
211.665926
 20
246.019425
 30
0.0
 10
211.517529
 20
245.997271
 30
0.0
 10
211.378979
 20
245.953315
 30
0.0
  0
SPLINE
  5
38b
100
AcDbEntity
  8
Layer_1
 62
1
100
AcDbSpline
 70
8
 71
3
 72
8
 73
4
 74
0
 40
0
 40
0
 40
0
 40
0
 40
1
 40
1
 40
1
 40
1
 10
211.378979
 20
245.953315
 30
0.0
 10
211.240077
 20
245.909358
 30
0.0
 10
211.121571
 20
245.848874
 30
0.0
 10
211.023461
 20
245.771160
 30
0.0
  0
SPLINE
  5
38c
100
AcDbEntity
  8
Layer_1
 62
1
100
AcDbSpline
 70
8
 71
3
 72
8
 73
4
 74
0
 40
0
 40
0
 40
0
 40
0
 40
1
 40
1
 40
1
 40
1
 10
211.023461
 20
245.771160
 30
0.0
 10
210.925350
 20
245.693445
 30
0.0
 10
210.849042
 20
245.594631
 30
0.0
 10
210.794536
 20
245.474367
 30
0.0
  0
SPLINE
  5
38d
100
AcDbEntity
  8
Layer_1
 62
1
100
AcDbSpline
 70
8
 71
3
 72
8
 73
4
 74
0
 40
0
 40
0
 40
0
 40
0
 40
1
 40
1
 40
1
 40
1
 10
210.794536
 20
245.474367
 30
0.0
 10
210.740382
 20
245.354102
 30
0.0
 10
210.713305
 20
245.226805
 30
0.0
 10
210.713305
 20
245.092123
 30
0.0
  0
SPLINE
  5
38e
100
AcDbEntity
  8
Layer_1
 62
1
100
AcDbSpline
 70
8
 71
3
 72
8
 73
4
 74
0
 40
0
 40
0
 40
0
 40
0
 40
1
 40
1
 40
1
 40
1
 10
210.713305
 20
245.092123
 30
0.0
 10
210.713305
 20
244.849132
 30
0.0
 10
210.811415
 20
244.649043
 30
0.0
 10
211.007988
 20
244.492559
 30
0.0
  0
LINE
  5
38f
100
AcDbEntity
  8
Layer_1
 62
1
100
AcDbLine
 10
211.007988
 20
244.492559
 30
0.0
 11
209.930179
 21
244.492559
 31
0.0
  0
LINE
  5
390
100
AcDbEntity
  8
Layer_1
 62
1
100
AcDbLine
 10
209.930179
 20
244.492559
 30
0.0
 11
209.930179
 21
244.121568
 31
0.0
  0
LINE
  5
391
100
AcDbEntity
  8
Layer_1
 62
1
100
AcDbLine
 10
209.930179
 20
244.121568
 30
0.0
 11
212.950856
 21
244.121568
 31
0.0
  0
LINE
  5
392
100
AcDbEntity
  8
Layer_1
 62
1
100
AcDbLine
 10
212.950856
 20
244.121568
 30
0.0
 11
212.950856
 21
244.465833
 31
0.0
  0
LINE
  5
393
100
AcDbEntity
  8
Layer_1
 62
1
100
AcDbLine
 10
212.950856
 20
244.465833
 30
0.0
 11
212.676921
 21
244.465833
 31
0.0
  0
LINE
  5
394
100
AcDbEntity
  8
Layer_1
 62
1
100
AcDbLine
 10
212.676921
 20
244.465833
 30
0.0
 11
212.676921
 21
244.465833
 31
0.0
  0
SPLINE
  5
395
100
AcDbEntity
  8
Layer_1
 62
1
100
AcDbSpline
 70
8
 71
3
 72
8
 73
4
 74
0
 40
0
 40
0
 40
0
 40
0
 40
1
 40
1
 40
1
 40
1
 10
211.229528
 20
244.638845
 30
0.0
 10
211.088516
 20
244.757000
 30
0.0
 10
211.018186
 20
244.897308
 30
0.0
 10
211.018186
 20
245.059419
 30
0.0
  0
SPLINE
  5
396
100
AcDbEntity
  8
Layer_1
 62
1
100
AcDbSpline
 70
8
 71
3
 72
8
 73
4
 74
0
 40
0
 40
0
 40
0
 40
0
 40
1
 40
1
 40
1
 40
1
 10
211.018186
 20
245.059419
 30
0.0
 10
211.018186
 20
245.220123
 30
0.0
 10
211.086406
 20
245.356915
 30
0.0
 10
211.222143
 20
245.470147
 30
0.0
  0
SPLINE
  5
397
100
AcDbEntity
  8
Layer_1
 62
1
100
AcDbSpline
 70
8
 71
3
 72
8
 73
4
 74
0
 40
0
 40
0
 40
0
 40
0
 40
1
 40
1
 40
1
 40
1
 10
211.222143
 20
245.470147
 30
0.0
 10
211.358232
 20
245.583730
 30
0.0
 10
211.569222
 20
245.640346
 30
0.0
 10
211.854762
 20
245.640346
 30
0.0
  0
SPLINE
  5
398
100
AcDbEntity
  8
Layer_1
 62
1
100
AcDbSpline
 70
8
 71
3
 72
8
 73
4
 74
0
 40
0
 40
0
 40
0
 40
0
 40
1
 40
1
 40
1
 40
1
 10
211.854762
 20
245.640346
 30
0.0
 10
212.133621
 20
245.640346
 30
0.0
 10
212.343556
 20
245.581268
 30
0.0
 10
212.484216
 20
245.463114
 30
0.0
  0
SPLINE
  5
399
100
AcDbEntity
  8
Layer_1
 62
1
100
AcDbSpline
 70
8
 71
3
 72
8
 73
4
 74
0
 40
0
 40
0
 40
0
 40
0
 40
1
 40
1
 40
1
 40
1
 10
212.484216
 20
245.463114
 30
0.0
 10
212.625228
 20
245.344959
 30
0.0
 10
212.695558
 20
245.205003
 30
0.0
 10
212.695558
 20
245.042892
 30
0.0
  0
SPLINE
  5
39a
100
AcDbEntity
  8
Layer_1
 62
1
100
AcDbSpline
 70
8
 71
3
 72
8
 73
4
 74
0
 40
0
 40
0
 40
0
 40
0
 40
1
 40
1
 40
1
 40
1
 10
212.695558
 20
245.042892
 30
0.0
 10
212.695558
 20
244.843506
 30
0.0
 10
212.599909
 20
244.685615
 30
0.0
 10
212.408963
 20
244.568867
 30
0.0
  0
SPLINE
  5
39b
100
AcDbEntity
  8
Layer_1
 62
1
100
AcDbSpline
 70
8
 71
3
 72
8
 73
4
 74
0
 40
0
 40
0
 40
0
 40
0
 40
1
 40
1
 40
1
 40
1
 10
212.408963
 20
244.568867
 30
0.0
 10
212.292215
 20
244.497482
 30
0.0
 10
212.102676
 20
244.461614
 30
0.0
 10
211.840344
 20
244.461614
 30
0.0
  0
SPLINE
  5
39c
100
AcDbEntity
  8
Layer_1
 62
1
100
AcDbSpline
 70
8
 71
3
 72
8
 73
4
 74
0
 40
0
 40
0
 40
0
 40
0
 40
1
 40
1
 40
1
 40
1
 10
211.840344
 20
244.461614
 30
0.0
 10
211.573793
 20
244.461614
 30
0.0
 10
211.370188
 20
244.520691
 30
0.0
 10
211.229528
 20
244.638845
 30
0.0
  0
LINE
  5
39d
100
AcDbEntity
  8
Layer_1
 62
1
100
AcDbLine
 10
211.229528
 20
244.638845
 30
0.0
 11
211.229528
 21
244.638845
 31
0.0
  0
SPLINE
  5
39e
100
AcDbEntity
  8
Layer_1
 62
1
100
AcDbSpline
 70
8
 71
3
 72
8
 73
4
 74
0
 40
0
 40
0
 40
0
 40
0
 40
1
 40
1
 40
1
 40
1
 10
212.588340
 20
247.950886
 30
0.0
 10
212.659725
 20
247.854885
 30
0.0
 10
212.695593
 20
247.738489
 30
0.0
 10
212.695593
 20
247.602752
 30
0.0
  0
SPLINE
  5
39f
100
AcDbEntity
  8
Layer_1
 62
1
100
AcDbSpline
 70
8
 71
3
 72
8
 73
4
 74
0
 40
0
 40
0
 40
0
 40
0
 40
1
 40
1
 40
1
 40
1
 10
212.695593
 20
247.602752
 30
0.0
 10
212.695593
 20
247.419893
 30
0.0
 10
212.631593
 20
247.267629
 30
0.0
 10
212.503943
 20
247.145255
 30
0.0
  0
SPLINE
  5
3a0
100
AcDbEntity
  8
Layer_1
 62
1
100
AcDbSpline
 70
8
 71
3
 72
8
 73
4
 74
0
 40
0
 40
0
 40
0
 40
0
 40
1
 40
1
 40
1
 40
1
 10
212.503943
 20
247.145255
 30
0.0
 10
212.375943
 20
247.022880
 30
0.0
 10
212.192030
 20
246.955012
 30
0.0
 10
211.951501
 20
246.941297
 30
0.0
  0
LINE
  5
3a1
100
AcDbEntity
  8
Layer_1
 62
1
100
AcDbLine
 10
211.951501
 20
246.941297
 30
0.0
 11
211.951501
 21
248.573307
 31
0.0
  0
SPLINE
  5
3a2
100
AcDbEntity
  8
Layer_1
 62
1
100
AcDbSpline
 70
8
 71
3
 72
8
 73
4
 74
0
 40
0
 40
0
 40
0
 40
0
 40
1
 40
1
 40
1
 40
1
 10
211.951501
 20
248.573307
 30
0.0
 10
211.907544
 20
248.574362
 30
0.0
 10
211.874841
 20
248.575065
 30
0.0
 10
211.852687
 20
248.575065
 30
0.0
  0
SPLINE
  5
3a3
100
AcDbEntity
  8
Layer_1
 62
1
100
AcDbSpline
 70
8
 71
3
 72
8
 73
4
 74
0
 40
0
 40
0
 40
0
 40
0
 40
1
 40
1
 40
1
 40
1
 10
211.852687
 20
248.575065
 30
0.0
 10
211.491542
 20
248.575065
 30
0.0
 10
211.211277
 20
248.482581
 30
0.0
 10
211.012243
 20
248.296910
 30
0.0
  0
SPLINE
  5
3a4
100
AcDbEntity
  8
Layer_1
 62
1
100
AcDbSpline
 70
8
 71
3
 72
8
 73
4
 74
0
 40
0
 40
0
 40
0
 40
0
 40
1
 40
1
 40
1
 40
1
 10
211.012243
 20
248.296910
 30
0.0
 10
210.812857
 20
248.111590
 30
0.0
 10
210.713340
 20
247.872468
 30
0.0
 10
210.713340
 20
247.579894
 30
0.0
  0
SPLINE
  5
3a5
100
AcDbEntity
  8
Layer_1
 62
1
100
AcDbSpline
 70
8
 71
3
 72
8
 73
4
 74
0
 40
0
 40
0
 40
0
 40
0
 40
1
 40
1
 40
1
 40
1
 10
210.713340
 20
247.579894
 30
0.0
 10
210.713340
 20
247.277827
 30
0.0
 10
210.814967
 20
247.032023
 30
0.0
 10
211.018221
 20
246.842484
 30
0.0
  0
SPLINE
  5
3a6
100
AcDbEntity
  8
Layer_1
 62
1
100
AcDbSpline
 70
8
 71
3
 72
8
 73
4
 74
0
 40
0
 40
0
 40
0
 40
0
 40
1
 40
1
 40
1
 40
1
 10
211.018221
 20
246.842484
 30
0.0
 10
211.221474
 20
246.652944
 30
0.0
 10
211.507366
 20
246.557998
 30
0.0
 10
211.875544
 20
246.557998
 30
0.0
  0
SPLINE
  5
3a7
100
AcDbEntity
  8
Layer_1
 62
1
100
AcDbSpline
 70
8
 71
3
 72
8
 73
4
 74
0
 40
0
 40
0
 40
0
 40
0
 40
1
 40
1
 40
1
 40
1
 10
211.875544
 20
246.557998
 30
0.0
 10
212.231063
 20
246.557998
 30
0.0
 10
212.507812
 20
246.651889
 30
0.0
 10
212.704736
 20
246.839319
 30
0.0
  0
SPLINE
  5
3a8
100
AcDbEntity
  8
Layer_1
 62
1
100
AcDbSpline
 70
8
 71
3
 72
8
 73
4
 74
0
 40
0
 40
0
 40
0
 40
0
 40
1
 40
1
 40
1
 40
1
 10
212.704736
 20
246.839319
 30
0.0
 10
212.902012
 20
247.026748
 30
0.0
 10
213.000474
 20
247.280640
 30
0.0
 10
213.000474
 20
247.600642
 30
0.0
  0
SPLINE
  5
3a9
100
AcDbEntity
  8
Layer_1
 62
1
100
AcDbSpline
 70
8
 71
3
 72
8
 73
4
 74
0
 40
0
 40
0
 40
0
 40
0
 40
1
 40
1
 40
1
 40
1
 10
213.000474
 20
247.600642
 30
0.0
 10
213.000474
 20
247.854885
 30
0.0
 10
212.938583
 20
248.063414
 30
0.0
 10
212.815154
 20
248.226931
 30
0.0
  0
SPLINE
  5
3aa
100
AcDbEntity
  8
Layer_1
 62
1
100
AcDbSpline
 70
8
 71
3
 72
8
 73
4
 74
0
 40
0
 40
0
 40
0
 40
0
 40
1
 40
1
 40
1
 40
1
 10
212.815154
 20
248.226931
 30
0.0
 10
212.691373
 20
248.390449
 30
0.0
 10
212.517658
 20
248.502273
 30
0.0
 10
212.293657
 20
248.562757
 30
0.0
  0
LINE
  5
3ab
100
AcDbEntity
  8
Layer_1
 62
1
100
AcDbLine
 10
212.293657
 20
248.562757
 30
0.0
 11
212.246184
 21
248.179458
 31
0.0
  0
SPLINE
  5
3ac
100
AcDbEntity
  8
Layer_1
 62
1
100
AcDbSpline
 70
8
 71
3
 72
8
 73
4
 74
0
 40
0
 40
0
 40
0
 40
0
 40
1
 40
1
 40
1
 40
1
 10
212.246184
 20
248.179458
 30
0.0
 10
212.403020
 20
248.123194
 30
0.0
 10
212.516955
 20
248.046886
 30
0.0
 10
212.588340
 20
247.950886
 30
0.0
  0
LINE
  5
3ad
100
AcDbEntity
  8
Layer_1
 62
1
100
AcDbLine
 10
212.588340
 20
247.950886
 30
0.0
 11
212.588340
 21
247.950886
 31
0.0
  0
SPLINE
  5
3ae
100
AcDbEntity
  8
Layer_1
 62
1
100
AcDbSpline
 70
8
 71
3
 72
8
 73
4
 74
0
 40
0
 40
0
 40
0
 40
0
 40
1
 40
1
 40
1
 40
1
 10
211.189123
 20
247.154397
 30
0.0
 10
211.075188
 20
247.270442
 30
0.0
 10
211.018221
 20
247.413915
 30
0.0
 10
211.018221
 20
247.584114
 30
0.0
  0
SPLINE
  5
3af
100
AcDbEntity
  8
Layer_1
 62
1
100
AcDbSpline
 70
8
 71
3
 72
8
 73
4
 74
0
 40
0
 40
0
 40
0
 40
0
 40
1
 40
1
 40
1
 40
1
 10
211.018221
 20
247.584114
 30
0.0
 10
211.018221
 20
247.772247
 30
0.0
 10
211.089606
 20
247.925567
 30
0.0
 10
211.232727
 20
248.043721
 30
0.0
  0
SPLINE
  5
3b0
100
AcDbEntity
  8
Layer_1
 62
1
100
AcDbSpline
 70
8
 71
3
 72
8
 73
4
 74
0
 40
0
 40
0
 40
0
 40
0
 40
1
 40
1
 40
1
 40
1
 10
211.232727
 20
248.043721
 30
0.0
 10
211.324508
 20
248.120381
 30
0.0
 10
211.462707
 20
248.167151
 30
0.0
 10
211.646620
 20
248.183678
 30
0.0
  0
LINE
  5
3b1
100
AcDbEntity
  8
Layer_1
 62
1
100
AcDbLine
 10
211.646620
 20
248.183678
 30
0.0
 11
211.646620
 21
246.961693
 31
0.0
  0
SPLINE
  5
3b2
100
AcDbEntity
  8
Layer_1
 62
1
100
AcDbSpline
 70
8
 71
3
 72
8
 73
4
 74
0
 40
0
 40
0
 40
0
 40
0
 40
1
 40
1
 40
1
 40
1
 10
211.646620
 20
246.961693
 30
0.0
 10
211.455674
 20
246.974352
 30
0.0
 10
211.303409
 20
247.038353
 30
0.0
 10
211.189123
 20
247.154397
 30
0.0
  0
LINE
  5
3b3
100
AcDbEntity
  8
Layer_1
 62
1
100
AcDbLine
 10
211.189123
 20
247.154397
 30
0.0
 11
211.189123
 21
247.154397
 31
0.0
  0
LINE
  5
3b4
100
AcDbEntity
  8
Layer_1
 62
1
100
AcDbLine
 10
212.950961
 20
249.606288
 30
0.0
 11
211.805284
 21
249.606288
 31
0.0
  0
SPLINE
  5
3b5
100
AcDbEntity
  8
Layer_1
 62
1
100
AcDbSpline
 70
8
 71
3
 72
8
 73
4
 74
0
 40
0
 40
0
 40
0
 40
0
 40
1
 40
1
 40
1
 40
1
 10
211.805284
 20
249.606288
 30
0.0
 10
211.648800
 20
249.606288
 30
0.0
 10
211.504623
 20
249.627036
 30
0.0
 10
211.372754
 20
249.668179
 30
0.0
  0
SPLINE
  5
3b6
100
AcDbEntity
  8
Layer_1
 62
1
100
AcDbSpline
 70
8
 71
3
 72
8
 73
4
 74
0
 40
0
 40
0
 40
0
 40
0
 40
1
 40
1
 40
1
 40
1
 10
211.372754
 20
249.668179
 30
0.0
 10
211.286248
 20
249.695607
 30
0.0
 10
211.218380
 20
249.741674
 30
0.0
 10
211.169852
 20
249.806026
 30
0.0
  0
SPLINE
  5
3b7
100
AcDbEntity
  8
Layer_1
 62
1
100
AcDbSpline
 70
8
 71
3
 72
8
 73
4
 74
0
 40
0
 40
0
 40
0
 40
0
 40
1
 40
1
 40
1
 40
1
 10
211.169852
 20
249.806026
 30
0.0
 10
211.120973
 20
249.870729
 30
0.0
 10
211.096709
 20
249.943521
 30
0.0
 10
211.096709
 20
250.024401
 30
0.0
  0
SPLINE
  5
3b8
100
AcDbEntity
  8
Layer_1
 62
1
100
AcDbSpline
 70
8
 71
3
 72
8
 73
4
 74
0
 40
0
 40
0
 40
0
 40
0
 40
1
 40
1
 40
1
 40
1
 10
211.096709
 20
250.024401
 30
0.0
 10
211.096709
 20
250.115126
 30
0.0
 10
211.123434
 20
250.205852
 30
0.0
 10
211.176885
 20
250.296578
 30
0.0
  0
LINE
  5
3b9
100
AcDbEntity
  8
Layer_1
 62
1
100
AcDbLine
 10
211.176885
 20
250.296578
 30
0.0
 11
210.832971
 21
250.424227
 31
0.0
  0
SPLINE
  5
3ba
100
AcDbEntity
  8
Layer_1
 62
1
100
AcDbSpline
 70
8
 71
3
 72
8
 73
4
 74
0
 40
0
 40
0
 40
0
 40
0
 40
1
 40
1
 40
1
 40
1
 10
210.832971
 20
250.424227
 30
0.0
 10
210.753146
 20
250.295171
 30
0.0
 10
210.713410
 20
250.168226
 30
0.0
 10
210.713410
 20
250.043038
 30
0.0
  0
SPLINE
  5
3bb
100
AcDbEntity
  8
Layer_1
 62
1
100
AcDbSpline
 70
8
 71
3
 72
8
 73
4
 74
0
 40
0
 40
0
 40
0
 40
0
 40
1
 40
1
 40
1
 40
1
 10
210.713410
 20
250.043038
 30
0.0
 10
210.713410
 20
249.956532
 30
0.0
 10
210.738025
 20
249.877411
 30
0.0
 10
210.787608
 20
249.804971
 30
0.0
  0
SPLINE
  5
3bc
100
AcDbEntity
  8
Layer_1
 62
1
100
AcDbSpline
 70
8
 71
3
 72
8
 73
4
 74
0
 40
0
 40
0
 40
0
 40
0
 40
1
 40
1
 40
1
 40
1
 10
210.787608
 20
249.804971
 30
0.0
 10
210.836839
 20
249.732882
 30
0.0
 10
210.939169
 20
249.654464
 30
0.0
 10
211.094599
 20
249.569365
 30
0.0
  0
LINE
  5
3bd
100
AcDbEntity
  8
Layer_1
 62
1
100
AcDbLine
 10
211.094599
 20
249.569365
 30
0.0
 11
210.762641
 21
249.569365
 31
0.0
  0
LINE
  5
3be
100
AcDbEntity
  8
Layer_1
 62
1
100
AcDbLine
 10
210.762641
 20
249.569365
 30
0.0
 11
210.762641
 21
249.235297
 31
0.0
  0
LINE
  5
3bf
100
AcDbEntity
  8
Layer_1
 62
1
100
AcDbLine
 10
210.762641
 20
249.235297
 30
0.0
 11
212.950961
 21
249.235297
 31
0.0
  0
LINE
  5
3c0
100
AcDbEntity
  8
Layer_1
 62
1
100
AcDbLine
 10
212.950961
 20
249.235297
 30
0.0
 11
212.950961
 21
249.606288
 31
0.0
  0
LINE
  5
3c1
100
AcDbEntity
  8
Layer_1
 62
1
100
AcDbLine
 10
212.950961
 20
249.606288
 30
0.0
 11
212.950961
 21
249.606288
 31
0.0
  0
LINE
  5
3c2
100
AcDbEntity
  8
Layer_1
 62
1
100
AcDbLine
 10
212.950961
 20
251.222558
 30
0.0
 11
211.805284
 21
251.222558
 31
0.0
  0
SPLINE
  5
3c3
100
AcDbEntity
  8
Layer_1
 62
1
100
AcDbSpline
 70
8
 71
3
 72
8
 73
4
 74
0
 40
0
 40
0
 40
0
 40
0
 40
1
 40
1
 40
1
 40
1
 10
211.805284
 20
251.222558
 30
0.0
 10
211.648800
 20
251.222558
 30
0.0
 10
211.504623
 20
251.243305
 30
0.0
 10
211.372754
 20
251.284448
 30
0.0
  0
SPLINE
  5
3c4
100
AcDbEntity
  8
Layer_1
 62
1
100
AcDbSpline
 70
8
 71
3
 72
8
 73
4
 74
0
 40
0
 40
0
 40
0
 40
0
 40
1
 40
1
 40
1
 40
1
 10
211.372754
 20
251.284448
 30
0.0
 10
211.286248
 20
251.311877
 30
0.0
 10
211.218380
 20
251.357943
 30
0.0
 10
211.169852
 20
251.422295
 30
0.0
  0
SPLINE
  5
3c5
100
AcDbEntity
  8
Layer_1
 62
1
100
AcDbSpline
 70
8
 71
3
 72
8
 73
4
 74
0
 40
0
 40
0
 40
0
 40
0
 40
1
 40
1
 40
1
 40
1
 10
211.169852
 20
251.422295
 30
0.0
 10
211.120973
 20
251.486999
 30
0.0
 10
211.096709
 20
251.559791
 30
0.0
 10
211.096709
 20
251.640670
 30
0.0
  0
SPLINE
  5
3c6
100
AcDbEntity
  8
Layer_1
 62
1
100
AcDbSpline
 70
8
 71
3
 72
8
 73
4
 74
0
 40
0
 40
0
 40
0
 40
0
 40
1
 40
1
 40
1
 40
1
 10
211.096709
 20
251.640670
 30
0.0
 10
211.096709
 20
251.731396
 30
0.0
 10
211.123434
 20
251.822122
 30
0.0
 10
211.176885
 20
251.912848
 30
0.0
  0
LINE
  5
3c7
100
AcDbEntity
  8
Layer_1
 62
1
100
AcDbLine
 10
211.176885
 20
251.912848
 30
0.0
 11
210.832971
 21
252.040497
 31
0.0
  0
SPLINE
  5
3c8
100
AcDbEntity
  8
Layer_1
 62
1
100
AcDbSpline
 70
8
 71
3
 72
8
 73
4
 74
0
 40
0
 40
0
 40
0
 40
0
 40
1
 40
1
 40
1
 40
1
 10
210.832971
 20
252.040497
 30
0.0
 10
210.753146
 20
251.911441
 30
0.0
 10
210.713410
 20
251.784495
 30
0.0
 10
210.713410
 20
251.659308
 30
0.0
  0
SPLINE
  5
3c9
100
AcDbEntity
  8
Layer_1
 62
1
100
AcDbSpline
 70
8
 71
3
 72
8
 73
4
 74
0
 40
0
 40
0
 40
0
 40
0
 40
1
 40
1
 40
1
 40
1
 10
210.713410
 20
251.659308
 30
0.0
 10
210.713410
 20
251.572802
 30
0.0
 10
210.738025
 20
251.493680
 30
0.0
 10
210.787608
 20
251.421240
 30
0.0
  0
SPLINE
  5
3ca
100
AcDbEntity
  8
Layer_1
 62
1
100
AcDbSpline
 70
8
 71
3
 72
8
 73
4
 74
0
 40
0
 40
0
 40
0
 40
0
 40
1
 40
1
 40
1
 40
1
 10
210.787608
 20
251.421240
 30
0.0
 10
210.836839
 20
251.349152
 30
0.0
 10
210.939169
 20
251.270734
 30
0.0
 10
211.094599
 20
251.185635
 30
0.0
  0
LINE
  5
3cb
100
AcDbEntity
  8
Layer_1
 62
1
100
AcDbLine
 10
211.094599
 20
251.185635
 30
0.0
 11
210.762641
 21
251.185635
 31
0.0
  0
LINE
  5
3cc
100
AcDbEntity
  8
Layer_1
 62
1
100
AcDbLine
 10
210.762641
 20
251.185635
 30
0.0
 11
210.762641
 21
250.851567
 31
0.0
  0
LINE
  5
3cd
100
AcDbEntity
  8
Layer_1
 62
1
100
AcDbLine
 10
210.762641
 20
250.851567
 30
0.0
 11
212.950961
 21
250.851567
 31
0.0
  0
LINE
  5
3ce
100
AcDbEntity
  8
Layer_1
 62
1
100
AcDbLine
 10
212.950961
 20
250.851567
 30
0.0
 11
212.950961
 21
251.222558
 31
0.0
  0
LINE
  5
3cf
100
AcDbEntity
  8
Layer_1
 62
1
100
AcDbLine
 10
212.950961
 20
251.222558
 30
0.0
 11
212.950961
 21
251.222558
 31
0.0
  0
SPLINE
  5
3d0
100
AcDbEntity
  8
Layer_1
 62
1
100
AcDbSpline
 70
8
 71
3
 72
8
 73
4
 74
0
 40
0
 40
0
 40
0
 40
0
 40
1
 40
1
 40
1
 40
1
 10
213.839019
 20
252.694426
 30
0.0
 10
213.839019
 20
252.812580
 30
0.0
 10
213.810535
 20
252.914207
 30
0.0
 10
213.753568
 20
252.999307
 30
0.0
  0
SPLINE
  5
3d1
100
AcDbEntity
  8
Layer_1
 62
1
100
AcDbSpline
 70
8
 71
3
 72
8
 73
4
 74
0
 40
0
 40
0
 40
0
 40
0
 40
1
 40
1
 40
1
 40
1
 10
213.753568
 20
252.999307
 30
0.0
 10
213.696600
 20
253.084406
 30
0.0
 10
213.606929
 20
253.160011
 30
0.0
 10
213.484555
 20
253.226121
 30
0.0
  0
SPLINE
  5
3d2
100
AcDbEntity
  8
Layer_1
 62
1
100
AcDbSpline
 70
8
 71
3
 72
8
 73
4
 74
0
 40
0
 40
0
 40
0
 40
0
 40
1
 40
1
 40
1
 40
1
 10
213.484555
 20
253.226121
 30
0.0
 10
213.393829
 20
253.275352
 30
0.0
 10
213.228554
 20
253.344979
 30
0.0
 10
212.988025
 20
253.434298
 30
0.0
  0
LINE
  5
3d3
100
AcDbEntity
  8
Layer_1
 62
1
100
AcDbLine
 10
212.988025
 20
253.434298
 30
0.0
 11
210.762781
 21
254.266655
 31
0.0
  0
LINE
  5
3d4
100
AcDbEntity
  8
Layer_1
 62
1
100
AcDbLine
 10
210.762781
 20
254.266655
 30
0.0
 11
210.762781
 21
253.895664
 31
0.0
  0
LINE
  5
3d5
100
AcDbEntity
  8
Layer_1
 62
1
100
AcDbLine
 10
210.762781
 20
253.895664
 30
0.0
 11
212.038217
 21
253.427969
 31
0.0
  0
SPLINE
  5
3d6
100
AcDbEntity
  8
Layer_1
 62
1
100
AcDbSpline
 70
8
 71
3
 72
8
 73
4
 74
0
 40
0
 40
0
 40
0
 40
0
 40
1
 40
1
 40
1
 40
1
 10
212.038217
 20
253.427969
 30
0.0
 10
212.200328
 20
253.368891
 30
0.0
 10
212.366307
 20
253.317902
 30
0.0
 10
212.536857
 20
253.275352
 30
0.0
  0
SPLINE
  5
3d7
100
AcDbEntity
  8
Layer_1
 62
1
100
AcDbSpline
 70
8
 71
3
 72
8
 73
4
 74
0
 40
0
 40
0
 40
0
 40
0
 40
1
 40
1
 40
1
 40
1
 10
212.536857
 20
253.275352
 30
0.0
 10
212.359625
 20
253.228934
 30
0.0
 10
212.190482
 20
253.175835
 30
0.0
 10
212.029777
 20
253.116758
 30
0.0
  0
LINE
  5
3d8
100
AcDbEntity
  8
Layer_1
 62
1
100
AcDbLine
 10
212.029777
 20
253.116758
 30
0.0
 11
210.762781
 21
252.661371
 31
0.0
  0
LINE
  5
3d9
100
AcDbEntity
  8
Layer_1
 62
1
100
AcDbLine
 10
210.762781
 20
252.661371
 30
0.0
 11
210.762781
 21
252.261896
 31
0.0
  0
LINE
  5
3da
100
AcDbEntity
  8
Layer_1
 62
1
100
AcDbLine
 10
210.762781
 20
252.261896
 30
0.0
 11
212.954970
 21
253.092142
 31
0.0
  0
SPLINE
  5
3db
100
AcDbEntity
  8
Layer_1
 62
1
100
AcDbSpline
 70
8
 71
3
 72
8
 73
4
 74
0
 40
0
 40
0
 40
0
 40
0
 40
1
 40
1
 40
1
 40
1
 10
212.954970
 20
253.092142
 30
0.0
 10
212.995058
 20
253.077022
 30
0.0
 10
213.025300
 20
253.066120
 30
0.0
 10
213.045695
 20
253.059087
 30
0.0
  0
SPLINE
  5
3dc
100
AcDbEntity
  8
Layer_1
 62
1
100
AcDbSpline
 70
8
 71
3
 72
8
 73
4
 74
0
 40
0
 40
0
 40
0
 40
0
 40
1
 40
1
 40
1
 40
1
 10
213.045695
 20
253.059087
 30
0.0
 10
213.192685
 20
253.007043
 30
0.0
 10
213.284818
 20
252.969065
 30
0.0
 10
213.321741
 20
252.945856
 30
0.0
  0
SPLINE
  5
3dd
100
AcDbEntity
  8
Layer_1
 62
1
100
AcDbSpline
 70
8
 71
3
 72
8
 73
4
 74
0
 40
0
 40
0
 40
0
 40
0
 40
1
 40
1
 40
1
 40
1
 10
213.321741
 20
252.945856
 30
0.0
 10
213.371324
 20
252.914207
 30
0.0
 10
213.409653
 20
252.873768
 30
0.0
 10
213.437082
 20
252.824185
 30
0.0
  0
SPLINE
  5
3de
100
AcDbEntity
  8
Layer_1
 62
1
100
AcDbSpline
 70
8
 71
3
 72
8
 73
4
 74
0
 40
0
 40
0
 40
0
 40
0
 40
1
 40
1
 40
1
 40
1
 10
213.437082
 20
252.824185
 30
0.0
 10
213.464863
 20
252.774954
 30
0.0
 10
213.478577
 20
252.708844
 30
0.0
 10
213.478577
 20
252.626557
 30
0.0
  0
SPLINE
  5
3df
100
AcDbEntity
  8
Layer_1
 62
1
100
AcDbSpline
 70
8
 71
3
 72
8
 73
4
 74
0
 40
0
 40
0
 40
0
 40
0
 40
1
 40
1
 40
1
 40
1
 10
213.478577
 20
252.626557
 30
0.0
 10
213.478577
 20
252.566073
 30
0.0
 10
213.467324
 20
252.495392
 30
0.0
 10
213.445522
 20
252.414161
 30
0.0
  0
LINE
  5
3e0
100
AcDbEntity
  8
Layer_1
 62
1
100
AcDbLine
 10
213.445522
 20
252.414161
 30
0.0
 11
213.793656
 21
252.455304
 31
0.0
  0
SPLINE
  5
3e1
100
AcDbEntity
  8
Layer_1
 62
1
100
AcDbSpline
 70
8
 71
3
 72
8
 73
4
 74
0
 40
0
 40
0
 40
0
 40
0
 40
1
 40
1
 40
1
 40
1
 10
213.793656
 20
252.455304
 30
0.0
 10
213.823898
 20
252.543216
 30
0.0
 10
213.839019
 20
252.623041
 30
0.0
 10
213.839019
 20
252.694426
 30
0.0
  0
LINE
  5
3e2
100
AcDbEntity
  8
Layer_1
 62
1
100
AcDbLine
 10
213.839019
 20
252.694426
 30
0.0
 11
213.839019
 21
252.694426
 31
0.0
  0
LINE
  5
3e3
100
AcDbEntity
  8
Layer_1
 62
1
100
AcDbLine
 10
212.950961
 20
256.623343
 30
0.0
 11
211.722998
 21
256.623343
 31
0.0
  0
LINE
  5
3e4
100
AcDbEntity
  8
Layer_1
 62
1
100
AcDbLine
 10
211.722998
 20
256.623343
 30
0.0
 11
211.722998
 21
257.398029
 31
0.0
  0
SPLINE
  5
3e5
100
AcDbEntity
  8
Layer_1
 62
1
100
AcDbSpline
 70
8
 71
3
 72
8
 73
4
 74
0
 40
0
 40
0
 40
0
 40
0
 40
1
 40
1
 40
1
 40
1
 10
211.722998
 20
257.398029
 30
0.0
 10
211.722998
 20
257.825284
 30
0.0
 10
211.634031
 20
258.120670
 30
0.0
 10
211.456095
 20
258.284188
 30
0.0
  0
SPLINE
  5
3e6
100
AcDbEntity
  8
Layer_1
 62
1
100
AcDbSpline
 70
8
 71
3
 72
8
 73
4
 74
0
 40
0
 40
0
 40
0
 40
0
 40
1
 40
1
 40
1
 40
1
 10
211.456095
 20
258.284188
 30
0.0
 10
211.278160
 20
258.447705
 30
0.0
 10
211.060840
 20
258.529288
 30
0.0
 10
210.804136
 20
258.529288
 30
0.0
  0
SPLINE
  5
3e7
100
AcDbEntity
  8
Layer_1
 62
1
100
AcDbSpline
 70
8
 71
3
 72
8
 73
4
 74
0
 40
0
 40
0
 40
0
 40
0
 40
1
 40
1
 40
1
 40
1
 10
210.804136
 20
258.529288
 30
0.0
 10
210.654333
 20
258.529288
 30
0.0
 10
210.516837
 20
258.498695
 30
0.0
 10
210.392001
 20
258.437507
 30
0.0
  0
SPLINE
  5
3e8
100
AcDbEntity
  8
Layer_1
 62
1
100
AcDbSpline
 70
8
 71
3
 72
8
 73
4
 74
0
 40
0
 40
0
 40
0
 40
0
 40
1
 40
1
 40
1
 40
1
 10
210.392001
 20
258.437507
 30
0.0
 10
210.266814
 20
258.376320
 30
0.0
 10
210.169758
 20
258.295792
 30
0.0
 10
210.100483
 20
258.195572
 30
0.0
  0
SPLINE
  5
3e9
100
AcDbEntity
  8
Layer_1
 62
1
100
AcDbSpline
 70
8
 71
3
 72
8
 73
4
 74
0
 40
0
 40
0
 40
0
 40
0
 40
1
 40
1
 40
1
 40
1
 10
210.100483
 20
258.195572
 30
0.0
 10
210.030856
 20
258.095352
 30
0.0
 10
209.983735
 20
257.970867
 30
0.0
 10
209.959120
 20
257.822471
 30
0.0
  0
SPLINE
  5
3ea
100
AcDbEntity
  8
Layer_1
 62
1
100
AcDbSpline
 70
8
 71
3
 72
8
 73
4
 74
0
 40
0
 40
0
 40
0
 40
0
 40
1
 40
1
 40
1
 40
1
 10
209.959120
 20
257.822471
 30
0.0
 10
209.939779
 20
257.716624
 30
0.0
 10
209.930284
 20
257.563656
 30
0.0
 10
209.930284
 20
257.363215
 30
0.0
  0
LINE
  5
3eb
100
AcDbEntity
  8
Layer_1
 62
1
100
AcDbLine
 10
209.930284
 20
257.363215
 30
0.0
 11
209.930284
 21
256.223517
 31
0.0
  0
LINE
  5
3ec
100
AcDbEntity
  8
Layer_1
 62
1
100
AcDbLine
 10
209.930284
 20
256.223517
 30
0.0
 11
212.950961
 21
256.223517
 31
0.0
  0
LINE
  5
3ed
100
AcDbEntity
  8
Layer_1
 62
1
100
AcDbLine
 10
212.950961
 20
256.223517
 30
0.0
 11
212.950961
 21
256.623343
 31
0.0
  0
LINE
  5
3ee
100
AcDbEntity
  8
Layer_1
 62
1
100
AcDbLine
 10
212.950961
 20
256.623343
 30
0.0
 11
212.950961
 21
256.623343
 31
0.0
  0
LINE
  5
3ef
100
AcDbEntity
  8
Layer_1
 62
1
100
AcDbLine
 10
210.286858
 20
256.623343
 30
0.0
 11
210.286858
 21
257.395919
 31
0.0
  0
SPLINE
  5
3f0
100
AcDbEntity
  8
Layer_1
 62
1
100
AcDbSpline
 70
8
 71
3
 72
8
 73
4
 74
0
 40
0
 40
0
 40
0
 40
0
 40
1
 40
1
 40
1
 40
1
 10
210.286858
 20
257.395919
 30
0.0
 10
210.286858
 20
257.577371
 30
0.0
 10
210.295649
 20
257.701503
 30
0.0
 10
210.313583
 20
257.769020
 30
0.0
  0
SPLINE
  5
3f1
100
AcDbEntity
  8
Layer_1
 62
1
100
AcDbSpline
 70
8
 71
3
 72
8
 73
4
 74
0
 40
0
 40
0
 40
0
 40
0
 40
1
 40
1
 40
1
 40
1
 10
210.313583
 20
257.769020
 30
0.0
 10
210.342419
 20
257.873460
 30
0.0
 10
210.401848
 20
257.957505
 30
0.0
 10
210.491870
 20
258.021505
 30
0.0
  0
SPLINE
  5
3f2
100
AcDbEntity
  8
Layer_1
 62
1
100
AcDbSpline
 70
8
 71
3
 72
8
 73
4
 74
0
 40
0
 40
0
 40
0
 40
0
 40
1
 40
1
 40
1
 40
1
 10
210.491870
 20
258.021505
 30
0.0
 10
210.581893
 20
258.085154
 30
0.0
 10
210.689849
 20
258.117154
 30
0.0
 10
210.816443
 20
258.117154
 30
0.0
  0
SPLINE
  5
3f3
100
AcDbEntity
  8
Layer_1
 62
1
100
AcDbSpline
 70
8
 71
3
 72
8
 73
4
 74
0
 40
0
 40
0
 40
0
 40
0
 40
1
 40
1
 40
1
 40
1
 10
210.816443
 20
258.117154
 30
0.0
 10
210.990862
 20
258.117154
 30
0.0
 10
211.126247
 20
258.063000
 30
0.0
 10
211.222248
 20
257.954340
 30
0.0
  0
SPLINE
  5
3f4
100
AcDbEntity
  8
Layer_1
 62
1
100
AcDbSpline
 70
8
 71
3
 72
8
 73
4
 74
0
 40
0
 40
0
 40
0
 40
0
 40
1
 40
1
 40
1
 40
1
 10
211.222248
 20
257.954340
 30
0.0
 10
211.318248
 20
257.846031
 30
0.0
 10
211.366425
 20
257.662470
 30
0.0
 10
211.366425
 20
257.404359
 30
0.0
  0
LINE
  5
3f5
100
AcDbEntity
  8
Layer_1
 62
1
100
AcDbLine
 10
211.366425
 20
257.404359
 30
0.0
 11
211.366425
 21
256.623343
 31
0.0
  0
LINE
  5
3f6
100
AcDbEntity
  8
Layer_1
 62
1
100
AcDbLine
 10
211.366425
 20
256.623343
 30
0.0
 11
210.286858
 21
256.623343
 31
0.0
  0
LINE
  5
3f7
100
AcDbEntity
  8
Layer_1
 62
1
100
AcDbLine
 10
210.286858
 20
256.623343
 30
0.0
 11
210.286858
 21
256.623343
 31
0.0
  0
LINE
  5
3f8
100
AcDbEntity
  8
Layer_1
 62
1
100
AcDbLine
 10
210.357012
 20
259.574634
 30
0.0
 11
209.930461
 21
259.574634
 31
0.0
  0
LINE
  5
3f9
100
AcDbEntity
  8
Layer_1
 62
1
100
AcDbLine
 10
209.930461
 20
259.574634
 30
0.0
 11
209.930461
 21
259.203642
 31
0.0
  0
LINE
  5
3fa
100
AcDbEntity
  8
Layer_1
 62
1
100
AcDbLine
 10
209.930461
 20
259.203642
 30
0.0
 11
210.357012
 21
259.203642
 31
0.0
  0
LINE
  5
3fb
100
AcDbEntity
  8
Layer_1
 62
1
100
AcDbLine
 10
210.357012
 20
259.203642
 30
0.0
 11
210.357012
 21
259.574634
 31
0.0
  0
LINE
  5
3fc
100
AcDbEntity
  8
Layer_1
 62
1
100
AcDbLine
 10
210.357012
 20
259.574634
 30
0.0
 11
210.357012
 21
259.574634
 31
0.0
  0
LINE
  5
3fd
100
AcDbEntity
  8
Layer_1
 62
1
100
AcDbLine
 10
212.951136
 20
259.574634
 30
0.0
 11
210.762816
 21
259.574634
 31
0.0
  0
LINE
  5
3fe
100
AcDbEntity
  8
Layer_1
 62
1
100
AcDbLine
 10
210.762816
 20
259.574634
 30
0.0
 11
210.762816
 21
259.203642
 31
0.0
  0
LINE
  5
3ff
100
AcDbEntity
  8
Layer_1
 62
1
100
AcDbLine
 10
210.762816
 20
259.203642
 30
0.0
 11
212.951136
 21
259.203642
 31
0.0
  0
LINE
  5
400
100
AcDbEntity
  8
Layer_1
 62
1
100
AcDbLine
 10
212.951136
 20
259.203642
 30
0.0
 11
212.951136
 21
259.574634
 31
0.0
  0
LINE
  5
401
100
AcDbEntity
  8
Layer_1
 62
1
100
AcDbLine
 10
212.951136
 20
259.574634
 30
0.0
 11
212.951136
 21
259.574634
 31
0.0
  0
LINE
  5
402
100
AcDbEntity
  8
Layer_1
 62
7
100
AcDbLine
 10
254.673049
 20
209.592455
 30
0.0
 11
248.691829
 21
209.592455
 31
0.0
  0
LINE
  5
403
100
AcDbEntity
  8
Layer_1
 62
7
100
AcDbLine
 10
248.691829
 20
209.592455
 30
0.0
 11
248.691829
 21
212.582890
 31
0.0
  0
LINE
  5
404
100
AcDbEntity
  8
Layer_1
 62
7
100
AcDbLine
 10
248.691829
 20
212.582890
 30
0.0
 11
254.673049
 21
212.582890
 31
0.0
  0
LINE
  5
405
100
AcDbEntity
  8
Layer_1
 62
7
100
AcDbLine
 10
254.673049
 20
212.582890
 30
0.0
 11
254.673049
 21
209.592455
 31
0.0
  0
LINE
  5
406
100
AcDbEntity
  8
Layer_1
 62
7
100
AcDbLine
 10
254.673049
 20
209.592455
 30
0.0
 11
254.673049
 21
209.592455
 31
0.0
  0
LINE
  5
407
100
AcDbEntity
  8
Layer_1
 62
7
100
AcDbLine
 10
260.155278
 20
224.045989
 30
0.0
 11
263.145713
 21
224.045989
 31
0.0
  0
LINE
  5
408
100
AcDbEntity
  8
Layer_1
 62
7
100
AcDbLine
 10
263.145713
 20
224.045989
 30
0.0
 11
263.145713
 21
218.065119
 31
0.0
  0
LINE
  5
409
100
AcDbEntity
  8
Layer_1
 62
7
100
AcDbLine
 10
263.145713
 20
218.065119
 30
0.0
 11
260.155278
 21
218.065119
 31
0.0
  0
LINE
  5
40a
100
AcDbEntity
  8
Layer_1
 62
7
100
AcDbLine
 10
260.155278
 20
218.065119
 30
0.0
 11
260.155278
 21
224.045989
 31
0.0
  0
LINE
  5
40b
100
AcDbEntity
  8
Layer_1
 62
7
100
AcDbLine
 10
260.155278
 20
224.045989
 30
0.0
 11
260.155278
 21
224.045989
 31
0.0
  0
LINE
  5
40c
100
AcDbEntity
  8
Layer_1
 62
7
100
AcDbLine
 10
260.155278
 20
243.982105
 30
0.0
 11
263.145713
 21
243.982105
 31
0.0
  0
LINE
  5
40d
100
AcDbEntity
  8
Layer_1
 62
7
100
AcDbLine
 10
263.145713
 20
243.982105
 30
0.0
 11
263.145713
 21
238.001234
 31
0.0
  0
LINE
  5
40e
100
AcDbEntity
  8
Layer_1
 62
7
100
AcDbLine
 10
263.145713
 20
238.001234
 30
0.0
 11
260.155278
 21
238.001234
 31
0.0
  0
LINE
  5
40f
100
AcDbEntity
  8
Layer_1
 62
7
100
AcDbLine
 10
260.155278
 20
238.001234
 30
0.0
 11
260.155278
 21
243.982105
 31
0.0
  0
LINE
  5
410
100
AcDbEntity
  8
Layer_1
 62
7
100
AcDbLine
 10
260.155278
 20
243.982105
 30
0.0
 11
260.155278
 21
243.982105
 31
0.0
  0
LINE
  5
411
100
AcDbEntity
  8
Layer_1
 62
7
100
AcDbLine
 10
260.155278
 20
263.918220
 30
0.0
 11
263.145713
 21
263.918220
 31
0.0
  0
LINE
  5
412
100
AcDbEntity
  8
Layer_1
 62
7
100
AcDbLine
 10
263.145713
 20
263.918220
 30
0.0
 11
263.145713
 21
257.937350
 31
0.0
  0
LINE
  5
413
100
AcDbEntity
  8
Layer_1
 62
7
100
AcDbLine
 10
263.145713
 20
257.937350
 30
0.0
 11
260.155278
 21
257.937350
 31
0.0
  0
LINE
  5
414
100
AcDbEntity
  8
Layer_1
 62
7
100
AcDbLine
 10
260.155278
 20
257.937350
 30
0.0
 11
260.155278
 21
263.918220
 31
0.0
  0
LINE
  5
415
100
AcDbEntity
  8
Layer_1
 62
7
100
AcDbLine
 10
260.155278
 20
263.918220
 30
0.0
 11
260.155278
 21
263.918220
 31
0.0
  0
LINE
  5
416
100
AcDbEntity
  8
Layer_1
 62
7
100
AcDbLine
 10
260.155278
 20
283.854686
 30
0.0
 11
263.145713
 21
283.854686
 31
0.0
  0
LINE
  5
417
100
AcDbEntity
  8
Layer_1
 62
7
100
AcDbLine
 10
263.145713
 20
283.854686
 30
0.0
 11
263.145713
 21
277.873816
 31
0.0
  0
LINE
  5
418
100
AcDbEntity
  8
Layer_1
 62
7
100
AcDbLine
 10
263.145713
 20
277.873816
 30
0.0
 11
260.155278
 21
277.873816
 31
0.0
  0
LINE
  5
419
100
AcDbEntity
  8
Layer_1
 62
7
100
AcDbLine
 10
260.155278
 20
277.873816
 30
0.0
 11
260.155278
 21
283.854686
 31
0.0
  0
LINE
  5
41a
100
AcDbEntity
  8
Layer_1
 62
7
100
AcDbLine
 10
260.155278
 20
283.854686
 30
0.0
 11
260.155278
 21
283.854686
 31
0.0
  0
LINE
  5
41b
100
AcDbEntity
  8
Layer_1
 62
7
100
AcDbLine
 10
240.219868
 20
283.854686
 30
0.0
 11
243.209597
 21
283.854686
 31
0.0
  0
LINE
  5
41c
100
AcDbEntity
  8
Layer_1
 62
7
100
AcDbLine
 10
243.209597
 20
283.854686
 30
0.0
 11
243.209597
 21
277.873816
 31
0.0
  0
LINE
  5
41d
100
AcDbEntity
  8
Layer_1
 62
7
100
AcDbLine
 10
243.209597
 20
277.873816
 30
0.0
 11
240.219868
 21
277.873816
 31
0.0
  0
LINE
  5
41e
100
AcDbEntity
  8
Layer_1
 62
7
100
AcDbLine
 10
240.219868
 20
277.873816
 30
0.0
 11
240.219868
 21
283.854686
 31
0.0
  0
LINE
  5
41f
100
AcDbEntity
  8
Layer_1
 62
7
100
AcDbLine
 10
240.219868
 20
283.854686
 30
0.0
 11
240.219868
 21
283.854686
 31
0.0
  0
LINE
  5
420
100
AcDbEntity
  8
Layer_1
 62
7
100
AcDbLine
 10
220.283752
 20
283.854686
 30
0.0
 11
223.274187
 21
283.854686
 31
0.0
  0
LINE
  5
421
100
AcDbEntity
  8
Layer_1
 62
7
100
AcDbLine
 10
223.274187
 20
283.854686
 30
0.0
 11
223.274187
 21
277.873816
 31
0.0
  0
LINE
  5
422
100
AcDbEntity
  8
Layer_1
 62
7
100
AcDbLine
 10
223.274187
 20
277.873816
 30
0.0
 11
220.283752
 21
277.873816
 31
0.0
  0
LINE
  5
423
100
AcDbEntity
  8
Layer_1
 62
7
100
AcDbLine
 10
220.283752
 20
277.873816
 30
0.0
 11
220.283752
 21
283.854686
 31
0.0
  0
LINE
  5
424
100
AcDbEntity
  8
Layer_1
 62
7
100
AcDbLine
 10
220.283752
 20
283.854686
 30
0.0
 11
220.283752
 21
283.854686
 31
0.0
  0
LINE
  5
425
100
AcDbEntity
  8
Layer_1
 62
7
100
AcDbLine
 10
200.347636
 20
283.854686
 30
0.0
 11
203.338072
 21
283.854686
 31
0.0
  0
LINE
  5
426
100
AcDbEntity
  8
Layer_1
 62
7
100
AcDbLine
 10
203.338072
 20
283.854686
 30
0.0
 11
203.338072
 21
277.873816
 31
0.0
  0
LINE
  5
427
100
AcDbEntity
  8
Layer_1
 62
7
100
AcDbLine
 10
203.338072
 20
277.873816
 30
0.0
 11
200.347636
 21
277.873816
 31
0.0
  0
LINE
  5
428
100
AcDbEntity
  8
Layer_1
 62
7
100
AcDbLine
 10
200.347636
 20
277.873816
 30
0.0
 11
200.347636
 21
283.854686
 31
0.0
  0
LINE
  5
429
100
AcDbEntity
  8
Layer_1
 62
7
100
AcDbLine
 10
200.347636
 20
283.854686
 30
0.0
 11
200.347636
 21
283.854686
 31
0.0
  0
LINE
  5
42a
100
AcDbEntity
  8
Layer_1
 62
7
100
AcDbLine
 10
180.411168
 20
283.854686
 30
0.0
 11
183.401603
 21
283.854686
 31
0.0
  0
LINE
  5
42b
100
AcDbEntity
  8
Layer_1
 62
7
100
AcDbLine
 10
183.401603
 20
283.854686
 30
0.0
 11
183.401603
 21
277.873816
 31
0.0
  0
LINE
  5
42c
100
AcDbEntity
  8
Layer_1
 62
7
100
AcDbLine
 10
183.401603
 20
277.873816
 30
0.0
 11
180.411168
 21
277.873816
 31
0.0
  0
LINE
  5
42d
100
AcDbEntity
  8
Layer_1
 62
7
100
AcDbLine
 10
180.411168
 20
277.873816
 30
0.0
 11
180.411168
 21
283.854686
 31
0.0
  0
LINE
  5
42e
100
AcDbEntity
  8
Layer_1
 62
7
100
AcDbLine
 10
180.411168
 20
283.854686
 30
0.0
 11
180.411168
 21
283.854686
 31
0.0
  0
LINE
  5
42f
100
AcDbEntity
  8
Layer_1
 62
7
100
AcDbLine
 10
234.737989
 20
209.592455
 30
0.0
 11
228.756766
 21
209.592455
 31
0.0
  0
LINE
  5
430
100
AcDbEntity
  8
Layer_1
 62
7
100
AcDbLine
 10
228.756766
 20
209.592455
 30
0.0
 11
228.756766
 21
212.582890
 31
0.0
  0
LINE
  5
431
100
AcDbEntity
  8
Layer_1
 62
7
100
AcDbLine
 10
228.756766
 20
212.582890
 30
0.0
 11
234.737989
 21
212.582890
 31
0.0
  0
LINE
  5
432
100
AcDbEntity
  8
Layer_1
 62
7
100
AcDbLine
 10
234.737989
 20
212.582890
 30
0.0
 11
234.737989
 21
209.592455
 31
0.0
  0
LINE
  5
433
100
AcDbEntity
  8
Layer_1
 62
7
100
AcDbLine
 10
234.737989
 20
209.592455
 30
0.0
 11
234.737989
 21
209.592455
 31
0.0
  0
LINE
  5
434
100
AcDbEntity
  8
Layer_1
 62
7
100
AcDbLine
 10
214.801521
 20
209.592455
 30
0.0
 11
208.820300
 21
209.592455
 31
0.0
  0
LINE
  5
435
100
AcDbEntity
  8
Layer_1
 62
7
100
AcDbLine
 10
208.820300
 20
209.592455
 30
0.0
 11
208.820300
 21
212.582890
 31
0.0
  0
LINE
  5
436
100
AcDbEntity
  8
Layer_1
 62
7
100
AcDbLine
 10
208.820300
 20
212.582890
 30
0.0
 11
214.801521
 21
212.582890
 31
0.0
  0
LINE
  5
437
100
AcDbEntity
  8
Layer_1
 62
7
100
AcDbLine
 10
214.801521
 20
212.582890
 30
0.0
 11
214.801521
 21
209.592455
 31
0.0
  0
LINE
  5
438
100
AcDbEntity
  8
Layer_1
 62
7
100
AcDbLine
 10
214.801521
 20
209.592455
 30
0.0
 11
214.801521
 21
209.592455
 31
0.0
  0
LINE
  5
439
100
AcDbEntity
  8
Layer_1
 62
7
100
AcDbLine
 10
194.865405
 20
209.592455
 30
0.0
 11
188.884185
 21
209.592455
 31
0.0
  0
LINE
  5
43a
100
AcDbEntity
  8
Layer_1
 62
7
100
AcDbLine
 10
188.884185
 20
209.592455
 30
0.0
 11
188.884185
 21
212.582890
 31
0.0
  0
LINE
  5
43b
100
AcDbEntity
  8
Layer_1
 62
7
100
AcDbLine
 10
188.884185
 20
212.582890
 30
0.0
 11
194.865405
 21
212.582890
 31
0.0
  0
LINE
  5
43c
100
AcDbEntity
  8
Layer_1
 62
7
100
AcDbLine
 10
194.865405
 20
212.582890
 30
0.0
 11
194.865405
 21
209.592455
 31
0.0
  0
LINE
  5
43d
100
AcDbEntity
  8
Layer_1
 62
7
100
AcDbLine
 10
194.865405
 20
209.592455
 30
0.0
 11
194.865405
 21
209.592455
 31
0.0
  0
LINE
  5
43e
100
AcDbEntity
  8
Layer_1
 62
7
100
AcDbLine
 10
174.929292
 20
209.592455
 30
0.0
 11
168.948069
 21
209.592455
 31
0.0
  0
LINE
  5
43f
100
AcDbEntity
  8
Layer_1
 62
7
100
AcDbLine
 10
168.948069
 20
209.592455
 30
0.0
 11
168.948069
 21
212.582890
 31
0.0
  0
LINE
  5
440
100
AcDbEntity
  8
Layer_1
 62
7
100
AcDbLine
 10
168.948069
 20
212.582890
 30
0.0
 11
174.929292
 21
212.582890
 31
0.0
  0
LINE
  5
441
100
AcDbEntity
  8
Layer_1
 62
7
100
AcDbLine
 10
174.929292
 20
212.582890
 30
0.0
 11
174.929292
 21
209.592455
 31
0.0
  0
LINE
  5
442
100
AcDbEntity
  8
Layer_1
 62
7
100
AcDbLine
 10
174.929292
 20
209.592455
 30
0.0
 11
174.929292
 21
209.592455
 31
0.0
  0
SPLINE
  5
443
100
AcDbEntity
  8
Layer_1
 62
7
100
AcDbSpline
 70
8
 71
3
 72
8
 73
4
 74
0
 40
0
 40
0
 40
0
 40
0
 40
1
 40
1
 40
1
 40
1
 10
244.704252
 20
290.832696
 30
0.0
 10
244.704252
 20
289.180994
 30
0.0
 10
243.365871
 20
287.842261
 30
0.0
 10
241.714520
 20
287.842261
 30
0.0
  0
SPLINE
  5
444
100
AcDbEntity
  8
Layer_1
 62
7
100
AcDbSpline
 70
8
 71
3
 72
8
 73
4
 74
0
 40
0
 40
0
 40
0
 40
0
 40
1
 40
1
 40
1
 40
1
 10
241.714520
 20
287.842261
 30
0.0
 10
240.063170
 20
287.842261
 30
0.0
 10
238.724437
 20
289.180994
 30
0.0
 10
238.724437
 20
290.832696
 30
0.0
  0
SPLINE
  5
445
100
AcDbEntity
  8
Layer_1
 62
7
100
AcDbSpline
 70
8
 71
3
 72
8
 73
4
 74
0
 40
0
 40
0
 40
0
 40
0
 40
1
 40
1
 40
1
 40
1
 10
238.724437
 20
290.832696
 30
0.0
 10
238.724437
 20
292.484398
 30
0.0
 10
240.063170
 20
293.823131
 30
0.0
 10
241.714520
 20
293.823131
 30
0.0
  0
SPLINE
  5
446
100
AcDbEntity
  8
Layer_1
 62
7
100
AcDbSpline
 70
8
 71
3
 72
8
 73
4
 74
0
 40
0
 40
0
 40
0
 40
0
 40
1
 40
1
 40
1
 40
1
 10
241.714520
 20
293.823131
 30
0.0
 10
243.365871
 20
293.823131
 30
0.0
 10
244.704252
 20
292.484398
 30
0.0
 10
244.704252
 20
290.832696
 30
0.0
  0
LINE
  5
447
100
AcDbEntity
  8
Layer_1
 62
7
100
AcDbLine
 10
244.704252
 20
290.832696
 30
0.0
 11
244.704252
 21
290.832696
 31
0.0
  0
SPLINE
  5
448
100
AcDbEntity
  8
Layer_1
 62
7
100
AcDbSpline
 70
8
 71
3
 72
8
 73
4
 74
0
 40
0
 40
0
 40
0
 40
0
 40
1
 40
1
 40
1
 40
1
 10
224.769051
 20
290.832696
 30
0.0
 10
224.769051
 20
289.180994
 30
0.0
 10
223.430318
 20
287.842261
 30
0.0
 10
221.778616
 20
287.842261
 30
0.0
  0
SPLINE
  5
449
100
AcDbEntity
  8
Layer_1
 62
7
100
AcDbSpline
 70
8
 71
3
 72
8
 73
4
 74
0
 40
0
 40
0
 40
0
 40
0
 40
1
 40
1
 40
1
 40
1
 10
221.778616
 20
287.842261
 30
0.0
 10
220.127266
 20
287.842261
 30
0.0
 10
218.788181
 20
289.180994
 30
0.0
 10
218.788181
 20
290.832696
 30
0.0
  0
SPLINE
  5
44a
100
AcDbEntity
  8
Layer_1
 62
7
100
AcDbSpline
 70
8
 71
3
 72
8
 73
4
 74
0
 40
0
 40
0
 40
0
 40
0
 40
1
 40
1
 40
1
 40
1
 10
218.788181
 20
290.832696
 30
0.0
 10
218.788181
 20
292.484398
 30
0.0
 10
220.127266
 20
293.823131
 30
0.0
 10
221.778616
 20
293.823131
 30
0.0
  0
SPLINE
  5
44b
100
AcDbEntity
  8
Layer_1
 62
7
100
AcDbSpline
 70
8
 71
3
 72
8
 73
4
 74
0
 40
0
 40
0
 40
0
 40
0
 40
1
 40
1
 40
1
 40
1
 10
221.778616
 20
293.823131
 30
0.0
 10
223.430318
 20
293.823131
 30
0.0
 10
224.769051
 20
292.484398
 30
0.0
 10
224.769051
 20
290.832696
 30
0.0
  0
LINE
  5
44c
100
AcDbEntity
  8
Layer_1
 62
7
100
AcDbLine
 10
224.769051
 20
290.832696
 30
0.0
 11
224.769051
 21
290.832696
 31
0.0
  0
SPLINE
  5
44d
100
AcDbEntity
  8
Layer_1
 62
7
100
AcDbSpline
 70
8
 71
3
 72
8
 73
4
 74
0
 40
0
 40
0
 40
0
 40
0
 40
1
 40
1
 40
1
 40
1
 10
204.832797
 20
290.832696
 30
0.0
 10
204.832797
 20
289.180994
 30
0.0
 10
203.494064
 20
287.842261
 30
0.0
 10
201.842362
 20
287.842261
 30
0.0
  0
SPLINE
  5
44e
100
AcDbEntity
  8
Layer_1
 62
7
100
AcDbSpline
 70
8
 71
3
 72
8
 73
4
 74
0
 40
0
 40
0
 40
0
 40
0
 40
1
 40
1
 40
1
 40
1
 10
201.842362
 20
287.842261
 30
0.0
 10
200.191012
 20
287.842261
 30
0.0
 10
198.851927
 20
289.180994
 30
0.0
 10
198.851927
 20
290.832696
 30
0.0
  0
SPLINE
  5
44f
100
AcDbEntity
  8
Layer_1
 62
7
100
AcDbSpline
 70
8
 71
3
 72
8
 73
4
 74
0
 40
0
 40
0
 40
0
 40
0
 40
1
 40
1
 40
1
 40
1
 10
198.851927
 20
290.832696
 30
0.0
 10
198.851927
 20
292.484398
 30
0.0
 10
200.191012
 20
293.823131
 30
0.0
 10
201.842362
 20
293.823131
 30
0.0
  0
SPLINE
  5
450
100
AcDbEntity
  8
Layer_1
 62
7
100
AcDbSpline
 70
8
 71
3
 72
8
 73
4
 74
0
 40
0
 40
0
 40
0
 40
0
 40
1
 40
1
 40
1
 40
1
 10
201.842362
 20
293.823131
 30
0.0
 10
203.494064
 20
293.823131
 30
0.0
 10
204.832797
 20
292.484398
 30
0.0
 10
204.832797
 20
290.832696
 30
0.0
  0
LINE
  5
451
100
AcDbEntity
  8
Layer_1
 62
7
100
AcDbLine
 10
204.832797
 20
290.832696
 30
0.0
 11
204.832797
 21
290.832696
 31
0.0
  0
SPLINE
  5
452
100
AcDbEntity
  8
Layer_1
 62
7
100
AcDbSpline
 70
8
 71
3
 72
8
 73
4
 74
0
 40
0
 40
0
 40
0
 40
0
 40
1
 40
1
 40
1
 40
1
 10
184.896540
 20
290.832696
 30
0.0
 10
184.896540
 20
289.180994
 30
0.0
 10
183.557807
 20
287.842261
 30
0.0
 10
181.906105
 20
287.842261
 30
0.0
  0
SPLINE
  5
453
100
AcDbEntity
  8
Layer_1
 62
7
100
AcDbSpline
 70
8
 71
3
 72
8
 73
4
 74
0
 40
0
 40
0
 40
0
 40
0
 40
1
 40
1
 40
1
 40
1
 10
181.906105
 20
287.842261
 30
0.0
 10
180.254755
 20
287.842261
 30
0.0
 10
178.915670
 20
289.180994
 30
0.0
 10
178.915670
 20
290.832696
 30
0.0
  0
SPLINE
  5
454
100
AcDbEntity
  8
Layer_1
 62
7
100
AcDbSpline
 70
8
 71
3
 72
8
 73
4
 74
0
 40
0
 40
0
 40
0
 40
0
 40
1
 40
1
 40
1
 40
1
 10
178.915670
 20
290.832696
 30
0.0
 10
178.915670
 20
292.484398
 30
0.0
 10
180.254755
 20
293.823131
 30
0.0
 10
181.906105
 20
293.823131
 30
0.0
  0
SPLINE
  5
455
100
AcDbEntity
  8
Layer_1
 62
7
100
AcDbSpline
 70
8
 71
3
 72
8
 73
4
 74
0
 40
0
 40
0
 40
0
 40
0
 40
1
 40
1
 40
1
 40
1
 10
181.906105
 20
293.823131
 30
0.0
 10
183.557807
 20
293.823131
 30
0.0
 10
184.896540
 20
292.484398
 30
0.0
 10
184.896540
 20
290.832696
 30
0.0
  0
LINE
  5
456
100
AcDbEntity
  8
Layer_1
 62
7
100
AcDbLine
 10
184.896540
 20
290.832696
 30
0.0
 11
184.896540
 21
290.832696
 31
0.0
  0
LINE
  5
457
100
AcDbEntity
  8
Layer_1
 62
7
100
AcDbLine
 10
254.673049
 20
289.337620
 30
0.0
 11
248.691829
 21
289.337620
 31
0.0
  0
LINE
  5
458
100
AcDbEntity
  8
Layer_1
 62
7
100
AcDbLine
 10
248.691829
 20
289.337620
 30
0.0
 11
248.691829
 21
292.328054
 31
0.0
  0
LINE
  5
459
100
AcDbEntity
  8
Layer_1
 62
7
100
AcDbLine
 10
248.691829
 20
292.328054
 30
0.0
 11
254.673049
 21
292.328054
 31
0.0
  0
LINE
  5
45a
100
AcDbEntity
  8
Layer_1
 62
7
100
AcDbLine
 10
254.673049
 20
292.328054
 30
0.0
 11
254.673049
 21
289.337620
 31
0.0
  0
LINE
  5
45b
100
AcDbEntity
  8
Layer_1
 62
7
100
AcDbLine
 10
254.673049
 20
289.337620
 30
0.0
 11
254.673049
 21
289.337620
 31
0.0
  0
LINE
  5
45c
100
AcDbEntity
  8
Layer_1
 62
7
100
AcDbLine
 10
234.737989
 20
289.337620
 30
0.0
 11
228.756766
 21
289.337620
 31
0.0
  0
LINE
  5
45d
100
AcDbEntity
  8
Layer_1
 62
7
100
AcDbLine
 10
228.756766
 20
289.337620
 30
0.0
 11
228.756766
 21
292.328054
 31
0.0
  0
LINE
  5
45e
100
AcDbEntity
  8
Layer_1
 62
7
100
AcDbLine
 10
228.756766
 20
292.328054
 30
0.0
 11
234.737989
 21
292.328054
 31
0.0
  0
LINE
  5
45f
100
AcDbEntity
  8
Layer_1
 62
7
100
AcDbLine
 10
234.737989
 20
292.328054
 30
0.0
 11
234.737989
 21
289.337620
 31
0.0
  0
LINE
  5
460
100
AcDbEntity
  8
Layer_1
 62
7
100
AcDbLine
 10
234.737989
 20
289.337620
 30
0.0
 11
234.737989
 21
289.337620
 31
0.0
  0
LINE
  5
461
100
AcDbEntity
  8
Layer_1
 62
7
100
AcDbLine
 10
214.801521
 20
289.337620
 30
0.0
 11
208.820300
 21
289.337620
 31
0.0
  0
LINE
  5
462
100
AcDbEntity
  8
Layer_1
 62
7
100
AcDbLine
 10
208.820300
 20
289.337620
 30
0.0
 11
208.820300
 21
292.328054
 31
0.0
  0
LINE
  5
463
100
AcDbEntity
  8
Layer_1
 62
7
100
AcDbLine
 10
208.820300
 20
292.328054
 30
0.0
 11
214.801521
 21
292.328054
 31
0.0
  0
LINE
  5
464
100
AcDbEntity
  8
Layer_1
 62
7
100
AcDbLine
 10
214.801521
 20
292.328054
 30
0.0
 11
214.801521
 21
289.337620
 31
0.0
  0
LINE
  5
465
100
AcDbEntity
  8
Layer_1
 62
7
100
AcDbLine
 10
214.801521
 20
289.337620
 30
0.0
 11
214.801521
 21
289.337620
 31
0.0
  0
LINE
  5
466
100
AcDbEntity
  8
Layer_1
 62
7
100
AcDbLine
 10
194.865405
 20
289.337620
 30
0.0
 11
188.884185
 21
289.337620
 31
0.0
  0
LINE
  5
467
100
AcDbEntity
  8
Layer_1
 62
7
100
AcDbLine
 10
188.884185
 20
289.337620
 30
0.0
 11
188.884185
 21
292.328054
 31
0.0
  0
LINE
  5
468
100
AcDbEntity
  8
Layer_1
 62
7
100
AcDbLine
 10
188.884185
 20
292.328054
 30
0.0
 11
194.865405
 21
292.328054
 31
0.0
  0
LINE
  5
469
100
AcDbEntity
  8
Layer_1
 62
7
100
AcDbLine
 10
194.865405
 20
292.328054
 30
0.0
 11
194.865405
 21
289.337620
 31
0.0
  0
LINE
  5
46a
100
AcDbEntity
  8
Layer_1
 62
7
100
AcDbLine
 10
194.865405
 20
289.337620
 30
0.0
 11
194.865405
 21
289.337620
 31
0.0
  0
LINE
  5
46b
100
AcDbEntity
  8
Layer_1
 62
7
100
AcDbLine
 10
174.929292
 20
289.337620
 30
0.0
 11
168.948069
 21
289.337620
 31
0.0
  0
LINE
  5
46c
100
AcDbEntity
  8
Layer_1
 62
7
100
AcDbLine
 10
168.948069
 20
289.337620
 30
0.0
 11
168.948069
 21
292.328054
 31
0.0
  0
LINE
  5
46d
100
AcDbEntity
  8
Layer_1
 62
7
100
AcDbLine
 10
168.948069
 20
292.328054
 30
0.0
 11
174.929292
 21
292.328054
 31
0.0
  0
LINE
  5
46e
100
AcDbEntity
  8
Layer_1
 62
7
100
AcDbLine
 10
174.929292
 20
292.328054
 30
0.0
 11
174.929292
 21
289.337620
 31
0.0
  0
LINE
  5
46f
100
AcDbEntity
  8
Layer_1
 62
7
100
AcDbLine
 10
174.929292
 20
289.337620
 30
0.0
 11
174.929292
 21
289.337620
 31
0.0
  0
LINE
  5
470
100
AcDbEntity
  8
Layer_1
 62
7
100
AcDbLine
 10
163.466543
 20
218.064416
 30
0.0
 11
160.476108
 21
218.064416
 31
0.0
  0
LINE
  5
471
100
AcDbEntity
  8
Layer_1
 62
7
100
AcDbLine
 10
160.476108
 20
218.064416
 30
0.0
 11
160.476108
 21
224.045636
 31
0.0
  0
LINE
  5
472
100
AcDbEntity
  8
Layer_1
 62
7
100
AcDbLine
 10
160.476108
 20
224.045636
 30
0.0
 11
163.466543
 21
224.045636
 31
0.0
  0
LINE
  5
473
100
AcDbEntity
  8
Layer_1
 62
7
100
AcDbLine
 10
163.466543
 20
224.045636
 30
0.0
 11
163.466543
 21
218.064416
 31
0.0
  0
LINE
  5
474
100
AcDbEntity
  8
Layer_1
 62
7
100
AcDbLine
 10
163.466543
 20
218.064416
 30
0.0
 11
163.466543
 21
218.064416
 31
0.0
  0
LINE
  5
475
100
AcDbEntity
  8
Layer_1
 62
7
100
AcDbLine
 10
163.466543
 20
277.873113
 30
0.0
 11
160.476108
 21
277.873113
 31
0.0
  0
LINE
  5
476
100
AcDbEntity
  8
Layer_1
 62
7
100
AcDbLine
 10
160.476108
 20
277.873113
 30
0.0
 11
160.476108
 21
283.854334
 31
0.0
  0
LINE
  5
477
100
AcDbEntity
  8
Layer_1
 62
7
100
AcDbLine
 10
160.476108
 20
283.854334
 30
0.0
 11
163.466543
 21
283.854334
 31
0.0
  0
LINE
  5
478
100
AcDbEntity
  8
Layer_1
 62
7
100
AcDbLine
 10
163.466543
 20
283.854334
 30
0.0
 11
163.466543
 21
277.873113
 31
0.0
  0
LINE
  5
479
100
AcDbEntity
  8
Layer_1
 62
7
100
AcDbLine
 10
163.466543
 20
277.873113
 30
0.0
 11
163.466543
 21
277.873113
 31
0.0
  0
SPLINE
  5
47a
100
AcDbEntity
  8
Layer_1
 62
7
100
AcDbSpline
 70
8
 71
3
 72
8
 73
4
 74
0
 40
0
 40
0
 40
0
 40
0
 40
1
 40
1
 40
1
 40
1
 10
172.936662
 20
223.684617
 30
0.0
 10
173.762689
 20
223.684617
 30
0.0
 10
174.431879
 20
223.015427
 30
0.0
 10
174.431879
 20
222.189400
 30
0.0
  0
SPLINE
  5
47b
100
AcDbEntity
  8
Layer_1
 62
7
100
AcDbSpline
 70
8
 71
3
 72
8
 73
4
 74
0
 40
0
 40
0
 40
0
 40
0
 40
1
 40
1
 40
1
 40
1
 10
174.431879
 20
222.189400
 30
0.0
 10
174.431879
 20
221.363373
 30
0.0
 10
173.762689
 20
220.694183
 30
0.0
 10
172.936662
 20
220.694183
 30
0.0
  0
SPLINE
  5
47c
100
AcDbEntity
  8
Layer_1
 62
7
100
AcDbSpline
 70
8
 71
3
 72
8
 73
4
 74
0
 40
0
 40
0
 40
0
 40
0
 40
1
 40
1
 40
1
 40
1
 10
172.936662
 20
220.694183
 30
0.0
 10
172.110987
 20
220.694183
 30
0.0
 10
171.441445
 20
221.363373
 30
0.0
 10
171.441445
 20
222.189400
 30
0.0
  0
SPLINE
  5
47d
100
AcDbEntity
  8
Layer_1
 62
7
100
AcDbSpline
 70
8
 71
3
 72
8
 73
4
 74
0
 40
0
 40
0
 40
0
 40
0
 40
1
 40
1
 40
1
 40
1
 10
171.441445
 20
222.189400
 30
0.0
 10
171.441445
 20
223.015427
 30
0.0
 10
172.110987
 20
223.684617
 30
0.0
 10
172.936662
 20
223.684617
 30
0.0
  0
LINE
  5
47e
100
AcDbEntity
  8
Layer_1
 62
7
100
AcDbLine
 10
172.936662
 20
223.684617
 30
0.0
 11
172.936662
 21
223.684617
 31
0.0
  0
SPLINE
  5
47f
100
AcDbEntity
  8
Layer_1
 62
7
100
AcDbSpline
 70
8
 71
3
 72
8
 73
4
 74
0
 40
0
 40
0
 40
0
 40
0
 40
1
 40
1
 40
1
 40
1
 10
172.936662
 20
272.528294
 30
0.0
 10
173.762689
 20
272.528294
 30
0.0
 10
174.431879
 20
271.859104
 30
0.0
 10
174.431879
 20
271.033077
 30
0.0
  0
SPLINE
  5
480
100
AcDbEntity
  8
Layer_1
 62
7
100
AcDbSpline
 70
8
 71
3
 72
8
 73
4
 74
0
 40
0
 40
0
 40
0
 40
0
 40
1
 40
1
 40
1
 40
1
 10
174.431879
 20
271.033077
 30
0.0
 10
174.431879
 20
270.207050
 30
0.0
 10
173.762689
 20
269.537860
 30
0.0
 10
172.936662
 20
269.537860
 30
0.0
  0
SPLINE
  5
481
100
AcDbEntity
  8
Layer_1
 62
7
100
AcDbSpline
 70
8
 71
3
 72
8
 73
4
 74
0
 40
0
 40
0
 40
0
 40
0
 40
1
 40
1
 40
1
 40
1
 10
172.936662
 20
269.537860
 30
0.0
 10
172.110987
 20
269.537860
 30
0.0
 10
171.441445
 20
270.207050
 30
0.0
 10
171.441445
 20
271.033077
 30
0.0
  0
SPLINE
  5
482
100
AcDbEntity
  8
Layer_1
 62
7
100
AcDbSpline
 70
8
 71
3
 72
8
 73
4
 74
0
 40
0
 40
0
 40
0
 40
0
 40
1
 40
1
 40
1
 40
1
 10
171.441445
 20
271.033077
 30
0.0
 10
171.441445
 20
271.859104
 30
0.0
 10
172.110987
 20
272.528294
 30
0.0
 10
172.936662
 20
272.528294
 30
0.0
  0
LINE
  5
483
100
AcDbEntity
  8
Layer_1
 62
7
100
AcDbLine
 10
172.936662
 20
272.528294
 30
0.0
 11
172.936662
 21
272.528294
 31
0.0
  0
SPLINE
  5
484
100
AcDbEntity
  8
Layer_1
 62
7
100
AcDbSpline
 70
8
 71
3
 72
8
 73
4
 74
0
 40
0
 40
0
 40
0
 40
0
 40
1
 40
1
 40
1
 40
1
 10
230.751891
 20
223.684617
 30
0.0
 10
231.578269
 20
223.684617
 30
0.0
 10
232.247108
 20
223.015427
 30
0.0
 10
232.247108
 20
222.189400
 30
0.0
  0
SPLINE
  5
485
100
AcDbEntity
  8
Layer_1
 62
7
100
AcDbSpline
 70
8
 71
3
 72
8
 73
4
 74
0
 40
0
 40
0
 40
0
 40
0
 40
1
 40
1
 40
1
 40
1
 10
232.247108
 20
222.189400
 30
0.0
 10
232.247108
 20
221.363373
 30
0.0
 10
231.578269
 20
220.694183
 30
0.0
 10
230.751891
 20
220.694183
 30
0.0
  0
SPLINE
  5
486
100
AcDbEntity
  8
Layer_1
 62
7
100
AcDbSpline
 70
8
 71
3
 72
8
 73
4
 74
0
 40
0
 40
0
 40
0
 40
0
 40
1
 40
1
 40
1
 40
1
 10
230.751891
 20
220.694183
 30
0.0
 10
229.926216
 20
220.694183
 30
0.0
 10
229.256673
 20
221.363373
 30
0.0
 10
229.256673
 20
222.189400
 30
0.0
  0
SPLINE
  5
487
100
AcDbEntity
  8
Layer_1
 62
7
100
AcDbSpline
 70
8
 71
3
 72
8
 73
4
 74
0
 40
0
 40
0
 40
0
 40
0
 40
1
 40
1
 40
1
 40
1
 10
229.256673
 20
222.189400
 30
0.0
 10
229.256673
 20
223.015427
 30
0.0
 10
229.926216
 20
223.684617
 30
0.0
 10
230.751891
 20
223.684617
 30
0.0
  0
LINE
  5
488
100
AcDbEntity
  8
Layer_1
 62
7
100
AcDbLine
 10
230.751891
 20
223.684617
 30
0.0
 11
230.751891
 21
223.684617
 31
0.0
  0
SPLINE
  5
489
100
AcDbEntity
  8
Layer_1
 62
7
100
AcDbSpline
 70
8
 71
3
 72
8
 73
4
 74
0
 40
0
 40
0
 40
0
 40
0
 40
1
 40
1
 40
1
 40
1
 10
230.751891
 20
272.528294
 30
0.0
 10
231.578269
 20
272.528294
 30
0.0
 10
232.247108
 20
271.859104
 30
0.0
 10
232.247108
 20
271.033077
 30
0.0
  0
SPLINE
  5
48a
100
AcDbEntity
  8
Layer_1
 62
7
100
AcDbSpline
 70
8
 71
3
 72
8
 73
4
 74
0
 40
0
 40
0
 40
0
 40
0
 40
1
 40
1
 40
1
 40
1
 10
232.247108
 20
271.033077
 30
0.0
 10
232.247108
 20
270.207050
 30
0.0
 10
231.578269
 20
269.537860
 30
0.0
 10
230.751891
 20
269.537860
 30
0.0
  0
SPLINE
  5
48b
100
AcDbEntity
  8
Layer_1
 62
7
100
AcDbSpline
 70
8
 71
3
 72
8
 73
4
 74
0
 40
0
 40
0
 40
0
 40
0
 40
1
 40
1
 40
1
 40
1
 10
230.751891
 20
269.537860
 30
0.0
 10
229.926216
 20
269.537860
 30
0.0
 10
229.256673
 20
270.207050
 30
0.0
 10
229.256673
 20
271.033077
 30
0.0
  0
SPLINE
  5
48c
100
AcDbEntity
  8
Layer_1
 62
7
100
AcDbSpline
 70
8
 71
3
 72
8
 73
4
 74
0
 40
0
 40
0
 40
0
 40
0
 40
1
 40
1
 40
1
 40
1
 10
229.256673
 20
271.033077
 30
0.0
 10
229.256673
 20
271.859104
 30
0.0
 10
229.926216
 20
272.528294
 30
0.0
 10
230.751891
 20
272.528294
 30
0.0
  0
LINE
  5
48d
100
AcDbEntity
  8
Layer_1
 62
7
100
AcDbLine
 10
230.751891
 20
272.528294
 30
0.0
 11
230.751891
 21
272.528294
 31
0.0
  0
LINE
  5
48e
100
AcDbEntity
  8
Layer_1
 62
7
100
AcDbLine
 10
267.660233
 20
231.691654
 30
0.0
 11
267.660930
 21
209.943676
 31
0.0
  0
SPLINE
  5
48f
100
AcDbEntity
  8
Layer_1
 62
7
100
AcDbSpline
 70
8
 71
3
 72
8
 73
4
 74
0
 40
0
 40
0
 40
0
 40
0
 40
1
 40
1
 40
1
 40
1
 10
267.660930
 20
209.943676
 30
0.0
 10
267.660930
 20
207.204778
 30
0.0
 10
265.455584
 20
205.000130
 30
0.0
 10
262.717384
 20
205.000130
 30
0.0
  0
LINE
  5
490
100
AcDbEntity
  8
Layer_1
 62
7
100
AcDbLine
 10
262.717384
 20
205.000130
 30
0.0
 11
262.717384
 21
204.986529
 31
0.0
  0
LINE
  5
491
100
AcDbEntity
  8
Layer_1
 62
7
100
AcDbLine
 10
262.717384
 20
204.986529
 30
0.0
 11
160.902504
 21
204.986878
 31
0.0
  0
SPLINE
  5
492
100
AcDbEntity
  8
Layer_1
 62
7
100
AcDbSpline
 70
8
 71
3
 72
8
 73
4
 74
0
 40
0
 40
0
 40
0
 40
0
 40
1
 40
1
 40
1
 40
1
 10
160.902504
 20
204.986878
 30
0.0
 10
158.164652
 20
204.986878
 30
0.0
 10
155.960352
 20
207.191527
 30
0.0
 10
155.960352
 20
209.930424
 30
0.0
  0
LINE
  5
493
100
AcDbEntity
  8
Layer_1
 62
7
100
AcDbLine
 10
155.960352
 20
209.930424
 30
0.0
 11
155.959655
 21
221.793751
 31
0.0
  0
LINE
  5
494
100
AcDbEntity
  8
Layer_1
 62
7
100
AcDbLine
 10
155.959655
 20
221.793751
 30
0.0
 11
155.959655
 21
229.225809
 31
0.0
  0
SPLINE
  5
495
100
AcDbEntity
  8
Layer_1
 62
7
100
AcDbSpline
 70
8
 71
3
 72
8
 73
4
 74
0
 40
0
 40
0
 40
0
 40
0
 40
1
 40
1
 40
1
 40
1
 10
155.959655
 20
229.225809
 30
0.0
 10
155.959655
 20
231.954943
 30
0.0
 10
158.172673
 20
234.167961
 30
0.0
 10
160.902504
 20
234.167961
 30
0.0
  0
LINE
  5
496
100
AcDbEntity
  8
Layer_1
 62
7
100
AcDbLine
 10
160.902504
 20
234.167961
 30
0.0
 11
160.902853
 21
234.167961
 31
0.0
  0
LINE
  5
497
100
AcDbEntity
  8
Layer_1
 62
7
100
AcDbLine
 10
160.902853
 20
234.167961
 30
0.0
 11
164.363614
 21
234.167961
 31
0.0
  0
SPLINE
  5
498
100
AcDbEntity
  8
Layer_1
 62
7
100
AcDbSpline
 70
8
 71
3
 72
8
 73
4
 74
0
 40
0
 40
0
 40
0
 40
0
 40
1
 40
1
 40
1
 40
1
 10
164.363614
 20
234.167961
 30
0.0
 10
167.093445
 20
234.167961
 30
0.0
 10
169.306463
 20
236.380630
 30
0.0
 10
169.306463
 20
239.109764
 30
0.0
  0
LINE
  5
499
100
AcDbEntity
  8
Layer_1
 62
7
100
AcDbLine
 10
169.306463
 20
239.109764
 30
0.0
 11
169.306463
 21
257.891823
 31
0.0
  0
SPLINE
  5
49a
100
AcDbEntity
  8
Layer_1
 62
7
100
AcDbSpline
 70
8
 71
3
 72
8
 73
4
 74
0
 40
0
 40
0
 40
0
 40
0
 40
1
 40
1
 40
1
 40
1
 10
169.306463
 20
257.891823
 30
0.0
 10
169.306463
 20
260.621654
 30
0.0
 10
167.093445
 20
262.834672
 30
0.0
 10
164.363614
 20
262.834672
 30
0.0
  0
LINE
  5
49b
100
AcDbEntity
  8
Layer_1
 62
7
100
AcDbLine
 10
164.363614
 20
262.834672
 30
0.0
 11
164.363265
 21
262.799451
 31
0.0
  0
LINE
  5
49c
100
AcDbEntity
  8
Layer_1
 62
7
100
AcDbLine
 10
164.363265
 20
262.799451
 30
0.0
 11
160.902504
 21
262.799451
 31
0.0
  0
SPLINE
  5
49d
100
AcDbEntity
  8
Layer_1
 62
7
100
AcDbSpline
 70
8
 71
3
 72
8
 73
4
 74
0
 40
0
 40
0
 40
0
 40
0
 40
1
 40
1
 40
1
 40
1
 10
160.902504
 20
262.799451
 30
0.0
 10
158.172673
 20
262.799451
 30
0.0
 10
155.959655
 20
265.012469
 30
0.0
 10
155.959655
 20
267.742300
 30
0.0
  0
LINE
  5
49e
100
AcDbEntity
  8
Layer_1
 62
7
100
AcDbLine
 10
155.959655
 20
267.742300
 30
0.0
 11
155.959655
 21
291.977395
 31
0.0
  0
SPLINE
  5
49f
100
AcDbEntity
  8
Layer_1
 62
7
100
AcDbSpline
 70
8
 71
3
 72
8
 73
4
 74
0
 40
0
 40
0
 40
0
 40
0
 40
1
 40
1
 40
1
 40
1
 10
155.959655
 20
291.977395
 30
0.0
 10
155.959655
 20
294.716293
 30
0.0
 10
158.165350
 20
296.920942
 30
0.0
 10
160.903201
 20
296.920942
 30
0.0
  0
LINE
  5
4a0
100
AcDbEntity
  8
Layer_1
 62
7
100
AcDbLine
 10
160.903201
 20
296.920942
 30
0.0
 11
160.903201
 21
296.934542
 31
0.0
  0
LINE
  5
4a1
100
AcDbEntity
  8
Layer_1
 62
7
100
AcDbLine
 10
160.903201
 20
296.934542
 30
0.0
 11
262.718081
 21
296.934542
 31
0.0
  0
SPLINE
  5
4a2
100
AcDbEntity
  8
Layer_1
 62
7
100
AcDbSpline
 70
8
 71
3
 72
8
 73
4
 74
0
 40
0
 40
0
 40
0
 40
0
 40
1
 40
1
 40
1
 40
1
 10
262.718081
 20
296.934542
 30
0.0
 10
265.456282
 20
296.934542
 30
0.0
 10
267.660233
 20
294.729196
 30
0.0
 10
267.660233
 20
291.990996
 30
0.0
  0
LINE
  5
4a3
100
AcDbEntity
  8
Layer_1
 62
7
100
AcDbLine
 10
267.660233
 20
291.990996
 30
0.0
 11
267.660930
 21
271.231308
 31
0.0
  0
LINE
  5
4a4
100
AcDbEntity
  8
Layer_1
 62
7
100
AcDbLine
 10
267.660930
 20
271.231308
 30
0.0
 11
267.660233
 21
231.691654
 31
0.0
  0
LINE
  5
4a5
100
AcDbEntity
  8
Layer_1
 62
7
100
AcDbLine
 10
267.660233
 20
231.691654
 30
0.0
 11
267.660233
 21
231.691654
 31
0.0
  0
ENDSEC
  0
SECTION
  2
OBJECTS
  0
DICTIONARY
  5
C
330
0
100
AcDbDictionary
  3
ACAD_GROUP
350
D
  3
ACAD_MLINESTYLE
350
17
  0
DICTIONARY
  5
D
330
C
100
AcDbDictionary
  0
DICTIONARY
  5
1A
330
C
100
AcDbDictionary
  0
DICTIONARY
  5
17
330
C
100
AcDbDictionary
  3
STANDARD
350
18
  0
DICTIONARY
  5
19
330
C
100
AcDbDictionary
  0
ENDSEC
  0
EOF
